<ttFont>
    <TTGlyph name=".notdef" xMin="100" yMin="0" xMax="700" yMax="700">
      <contour>
        <pt x="100" y="0" on="1"/>
        <pt x="100" y="700" on="1"/>
        <pt x="700" y="700" on="1"/>
        <pt x="700" y="0" on="1"/>
        <pt x="100" y="0" on="1"/>
      </contour>
      <contour>
        <pt x="150" y="50" on="1"/>
        <pt x="650" y="50" on="1"/>
        <pt x="650" y="650" on="1"/>
        <pt x="150" y="650" on="1"/>
        <pt x="150" y="50" on="1"/>
      </contour>
    </TTGlyph>
    <TTGlyph name="afii301" xMin="0" yMin="-245" xMax="170" yMax="750">
      <contour>
        <pt x="0" y="-245" on="1"/>
        <pt x="0" y="750" on="1"/>
        <pt x="170" y="750" on="1"/>
        <pt x="170" y="710" on="1"/>
        <pt x="40" y="710" on="1"/>
        <pt x="40" y="-245" on="1"/>
        <pt x="0" y="-245" on="1"/>
      </contour>
    </TTGlyph>
    <TTGlyph name="afii61664" xMin="0" yMin="-245" xMax="40" yMax="750">
      <contour>
        <pt x="0" y="-245" on="1"/>
        <pt x="0" y="750" on="1"/>
        <pt x="40" y="750" on="1"/>
        <pt x="40" y="-245" on="1"/>
        <pt x="0" y="-245" on="1"/>
      </contour>
    </TTGlyph>
    <TTGlyph name="ampersand" xMin="90" yMin="-25" xMax="512" yMax="539">
      <contour>
        <pt x="90" y="116" on="1"/>
        <pt x="90" y="159" on="0"/>
        <pt x="159" y="249" on="0"/>
        <pt x="219" y="284" on="1"/>
        <pt x="184" y="328" on="0"/>
        <pt x="148" y="405" on="0"/>
        <pt x="148" y="434" on="1"/>
        <pt x="148" y="477" on="0"/>
        <pt x="219" y="539" on="0"/>
        <pt x="269" y="539" on="1"/>
        <pt x="317" y="539" on="0"/>
        <pt x="386" y="469" on="0"/>
        <pt x="386" y="419" on="1"/>
        <pt x="386" y="380" on="0"/>
        <pt x="332" y="304" on="0"/>
        <pt x="285" y="277" on="1"/>
        <pt x="394" y="135" on="1"/>
        <pt x="400" y="159" on="0"/>
        <pt x="407" y="202" on="0"/>
        <pt x="407" y="221" on="1"/>
        <pt x="450" y="221" on="1"/>
        <pt x="450" y="182" on="0"/>
        <pt x="437" y="119" on="0"/>
        <pt x="424" y="97" on="1"/>
        <pt x="512" y="-19" on="1"/>
        <pt x="452" y="-19" on="1"/>
        <pt x="392" y="52" on="1"/>
        <pt x="367" y="16" on="0"/>
        <pt x="288" y="-25" on="0"/>
        <pt x="244" y="-25" on="1"/>
        <pt x="180" y="-25" on="0"/>
        <pt x="90" y="58" on="0"/>
        <pt x="90" y="116" on="1"/>
      </contour>
      <contour>
        <pt x="140" y="123" on="1"/>
        <pt x="140" y="80" on="0"/>
        <pt x="206" y="19" on="0"/>
        <pt x="252" y="19" on="1"/>
        <pt x="285" y="19" on="0"/>
        <pt x="348" y="57" on="0"/>
        <pt x="371" y="90" on="1"/>
        <pt x="243" y="249" on="1"/>
        <pt x="195" y="221" on="0"/>
        <pt x="140" y="154" on="0"/>
        <pt x="140" y="123" on="1"/>
      </contour>
      <contour>
        <pt x="198" y="426" on="1"/>
        <pt x="198" y="407" on="0"/>
        <pt x="228" y="348" on="0"/>
        <pt x="257" y="311" on="1"/>
        <pt x="293" y="332" on="0"/>
        <pt x="335" y="390" on="0"/>
        <pt x="335" y="419" on="1"/>
        <pt x="335" y="451" on="0"/>
        <pt x="299" y="497" on="0"/>
        <pt x="274" y="497" on="1"/>
        <pt x="243" y="497" on="0"/>
        <pt x="198" y="455" on="0"/>
        <pt x="198" y="426" on="1"/>
      </contour>
    </TTGlyph>
    <TTGlyph name="asciicircum" xMin="90" yMin="104" xMax="444" yMax="361">
      <contour>
        <pt x="233" y="361" on="1"/>
        <pt x="298" y="361" on="1"/>
        <pt x="444" y="104" on="1"/>
        <pt x="385" y="104" on="1"/>
        <pt x="267" y="318" on="1"/>
        <pt x="149" y="104" on="1"/>
        <pt x="90" y="104" on="1"/>
        <pt x="233" y="361" on="1"/>
      </contour>
    </TTGlyph>
    <TTGlyph name="asciitilde" xMin="90" yMin="200" xMax="482" yMax="306">
      <contour>
        <pt x="117" y="228" on="1"/>
        <pt x="90" y="262" on="1"/>
        <pt x="115" y="283" on="0"/>
        <pt x="170" y="306" on="0"/>
        <pt x="196" y="306" on="1"/>
        <pt x="222" y="306" on="0"/>
        <pt x="265" y="294" on="0"/>
        <pt x="279" y="282" on="1"/>
        <pt x="302" y="263" on="0"/>
        <pt x="344" y="242" on="0"/>
        <pt x="360" y="242" on="1"/>
        <pt x="387" y="242" on="0"/>
        <pt x="436" y="266" on="0"/>
        <pt x="454" y="287" on="1"/>
        <pt x="482" y="255" on="1"/>
        <pt x="460" y="229" on="0"/>
        <pt x="396" y="200" on="0"/>
        <pt x="360" y="200" on="1"/>
        <pt x="337" y="200" on="0"/>
        <pt x="295" y="214" on="0"/>
        <pt x="279" y="228" on="1"/>
        <pt x="262" y="243" on="0"/>
        <pt x="219" y="258" on="0"/>
        <pt x="197" y="258" on="1"/>
        <pt x="176" y="258" on="0"/>
        <pt x="134" y="243" on="0"/>
        <pt x="117" y="228" on="1"/>
      </contour>
    </TTGlyph>
    <TTGlyph name="asterisk" xMin="90" yMin="490" xMax="375" yMax="745">
      <contour>
        <pt x="180" y="490" on="1"/>
        <pt x="135" y="520" on="1"/>
        <pt x="210" y="610" on="1"/>
        <pt x="95" y="590" on="1"/>
        <pt x="90" y="650" on="1"/>
        <pt x="205" y="640" on="1"/>
        <pt x="140" y="720" on="1"/>
        <pt x="195" y="745" on="1"/>
        <pt x="230" y="660" on="1"/>
        <pt x="270" y="745" on="1"/>
        <pt x="320" y="720" on="1"/>
        <pt x="260" y="640" on="1"/>
        <pt x="375" y="655" on="1"/>
        <pt x="375" y="600" on="1"/>
        <pt x="260" y="610" on="1"/>
        <pt x="345" y="520" on="1"/>
        <pt x="290" y="490" on="1"/>
        <pt x="240" y="600" on="1"/>
        <pt x="180" y="490" on="1"/>
      </contour>
    </TTGlyph>
    <TTGlyph name="at" xMin="90" yMin="-48" xMax="724" yMax="543">
      <contour>
        <pt x="253" y="240" on="1"/>
        <pt x="253" y="299" on="0"/>
        <pt x="334" y="384" on="0"/>
        <pt x="392" y="384" on="1"/>
        <pt x="418" y="384" on="0"/>
        <pt x="465" y="363" on="0"/>
        <pt x="482" y="343" on="1"/>
        <pt x="482" y="379" on="1"/>
        <pt x="532" y="379" on="1"/>
        <pt x="532" y="156" on="1"/>
        <pt x="532" y="141" on="0"/>
        <pt x="558" y="119" on="0"/>
        <pt x="577" y="119" on="1"/>
        <pt x="618" y="119" on="0"/>
        <pt x="676" y="200" on="0"/>
        <pt x="676" y="258" on="1"/>
        <pt x="676" y="357" on="0"/>
        <pt x="524" y="497" on="0"/>
        <pt x="417" y="497" on="1"/>
        <pt x="301" y="497" on="0"/>
        <pt x="137" y="344" on="0"/>
        <pt x="137" y="236" on="1"/>
        <pt x="137" y="138" on="0"/>
        <pt x="301" y="0" on="0"/>
        <pt x="417" y="0" on="1"/>
        <pt x="462" y="0" on="0"/>
        <pt x="541" y="24" on="0"/>
        <pt x="571" y="47" on="1"/>
        <pt x="595" y="6" on="1"/>
        <pt x="557" y="-20" on="0"/>
        <pt x="466" y="-48" on="0"/>
        <pt x="417" y="-48" on="1"/>
        <pt x="282" y="-48" on="0"/>
        <pt x="90" y="118" on="0"/>
        <pt x="90" y="236" on="1"/>
        <pt x="90" y="363" on="0"/>
        <pt x="282" y="543" on="0"/>
        <pt x="417" y="543" on="1"/>
        <pt x="544" y="543" on="0"/>
        <pt x="724" y="376" on="0"/>
        <pt x="724" y="258" on="1"/>
        <pt x="724" y="181" on="0"/>
        <pt x="638" y="71" on="0"/>
        <pt x="577" y="71" on="1"/>
        <pt x="542" y="71" on="0"/>
        <pt x="489" y="111" on="0"/>
        <pt x="484" y="142" on="1"/>
        <pt x="470" y="117" on="0"/>
        <pt x="420" y="89" on="0"/>
        <pt x="392" y="89" on="1"/>
        <pt x="333" y="89" on="0"/>
        <pt x="253" y="178" on="0"/>
        <pt x="253" y="240" on="1"/>
      </contour>
      <contour>
        <pt x="302" y="240" on="1"/>
        <pt x="302" y="199" on="0"/>
        <pt x="354" y="139" on="0"/>
        <pt x="392" y="139" on="1"/>
        <pt x="430" y="139" on="0"/>
        <pt x="482" y="199" on="0"/>
        <pt x="482" y="240" on="1"/>
        <pt x="482" y="281" on="0"/>
        <pt x="430" y="340" on="0"/>
        <pt x="392" y="340" on="1"/>
        <pt x="354" y="340" on="0"/>
        <pt x="302" y="281" on="0"/>
        <pt x="302" y="240" on="1"/>
      </contour>
    </TTGlyph>
    <TTGlyph name="backslash" xMin="90" yMin="-97" xMax="395" yMax="610">
      <contour>
        <pt x="395" y="-97" on="1"/>
        <pt x="344" y="-97" on="1"/>
        <pt x="90" y="610" on="1"/>
        <pt x="141" y="610" on="1"/>
        <pt x="395" y="-97" on="1"/>
      </contour>
    </TTGlyph>
    <TTGlyph name="bar" xMin="90" yMin="-245" xMax="140" yMax="750">
      <contour>
        <pt x="90" y="-245" on="1"/>
        <pt x="90" y="750" on="1"/>
        <pt x="140" y="750" on="1"/>
        <pt x="140" y="-245" on="1"/>
        <pt x="90" y="-245" on="1"/>
      </contour>
    </TTGlyph>
    <TTGlyph name="bn_ka_Ta_ra" xMin="-10" yMin="-150" xMax="473" yMax="689">
      <contour>
        <pt x="344" y="-148" on="1"/>
        <pt x="344" y="-130" on="0"/>
        <pt x="316" y="-117" on="1"/>
        <pt x="292" y="-105" on="0"/>
        <pt x="260" y="-105" on="1"/>
        <pt x="230" y="-105" on="0"/>
        <pt x="172" y="-124" on="1"/>
        <pt x="116" y="-144" on="0"/>
        <pt x="86" y="-144" on="1"/>
        <pt x="52" y="-144" on="0"/>
        <pt x="32" y="-117" on="1"/>
        <pt x="11" y="-89" on="0"/>
        <pt x="11" y="-51" on="1"/>
        <pt x="44" y="-51" on="1"/>
        <pt x="44" y="-74" on="0"/>
        <pt x="56" y="-89" on="1"/>
        <pt x="68" y="-105" on="0"/>
        <pt x="86" y="-105" on="1"/>
        <pt x="116" y="-105" on="0"/>
        <pt x="172" y="-85" on="1"/>
        <pt x="230" y="-66" on="0"/>
        <pt x="290" y="-66" on="0"/>
        <pt x="313" y="-75" on="1"/>
        <pt x="335" y="-84" on="0"/>
        <pt x="344" y="-100" on="1"/>
        <pt x="344" y="67" on="1"/>
        <pt x="382" y="96" on="1"/>
        <pt x="380" y="-150" on="1"/>
        <pt x="344" y="-148" on="1"/>
      </contour>
      <contour>
        <pt x="238" y="-10" on="1"/>
        <pt x="176" y="-10" on="0"/>
        <pt x="135" y="19" on="1"/>
        <pt x="93" y="49" on="0"/>
        <pt x="93" y="90" on="1"/>
        <pt x="93" y="118" on="0"/>
        <pt x="120" y="146" on="1"/>
        <pt x="148" y="174" on="0"/>
        <pt x="193" y="190" on="1"/>
        <pt x="169" y="232" on="0"/>
        <pt x="123" y="259" on="1"/>
        <pt x="79" y="285" on="0"/>
        <pt x="28" y="285" on="1"/>
        <pt x="18" y="325" on="1"/>
        <pt x="61" y="368" on="0"/>
        <pt x="117" y="392" on="1"/>
        <pt x="172" y="415" on="0"/>
        <pt x="232" y="415" on="1"/>
        <pt x="232" y="464" on="1"/>
        <pt x="-10" y="464" on="1"/>
        <pt x="-10" y="500" on="1"/>
        <pt x="332" y="500" on="1"/>
        <pt x="332" y="532" on="0"/>
        <pt x="310" y="556" on="1"/>
        <pt x="289" y="579" on="0"/>
        <pt x="258" y="579" on="1"/>
        <pt x="231" y="579" on="0"/>
        <pt x="124" y="560" on="0"/>
        <pt x="98" y="560" on="1"/>
        <pt x="61" y="560" on="0"/>
        <pt x="34" y="580" on="1"/>
        <pt x="8" y="600" on="0"/>
        <pt x="8" y="629" on="1"/>
        <pt x="8" y="650" on="0"/>
        <pt x="14" y="666" on="1"/>
        <pt x="21" y="682" on="0"/>
        <pt x="33" y="689" on="1"/>
        <pt x="68" y="674" on="1"/>
        <pt x="58" y="662" on="0"/>
        <pt x="48" y="642" on="0"/>
        <pt x="48" y="634" on="1"/>
        <pt x="48" y="620" on="0"/>
        <pt x="62" y="610" on="1"/>
        <pt x="77" y="599" on="0"/>
        <pt x="98" y="599" on="1"/>
        <pt x="124" y="599" on="0"/>
        <pt x="175" y="609" on="1"/>
        <pt x="226" y="620" on="0"/>
        <pt x="253" y="620" on="1"/>
        <pt x="302" y="620" on="0"/>
        <pt x="373" y="549" on="0"/>
        <pt x="373" y="500" on="1"/>
        <pt x="473" y="500" on="1"/>
        <pt x="473" y="464" on="1"/>
        <pt x="273" y="464" on="1"/>
        <pt x="273" y="415" on="1"/>
        <pt x="334" y="415" on="0"/>
        <pt x="379" y="371" on="1"/>
        <pt x="422" y="329" on="0"/>
        <pt x="422" y="270" on="1"/>
        <pt x="422" y="247" on="0"/>
        <pt x="406" y="231" on="1"/>
        <pt x="391" y="214" on="0"/>
        <pt x="368" y="214" on="1"/>
        <pt x="346" y="214" on="0"/>
        <pt x="332" y="228" on="1"/>
        <pt x="317" y="241" on="0"/>
        <pt x="317" y="260" on="1"/>
        <pt x="317" y="280" on="0"/>
        <pt x="335" y="292" on="1"/>
        <pt x="355" y="304" on="0"/>
        <pt x="377" y="299" on="1"/>
        <pt x="371" y="332" on="0"/>
        <pt x="341" y="353" on="1"/>
        <pt x="313" y="374" on="0"/>
        <pt x="273" y="374" on="1"/>
        <pt x="273" y="225" on="1"/>
        <pt x="273" y="205" on="0"/>
        <pt x="254" y="184" on="1"/>
        <pt x="235" y="166" on="0"/>
        <pt x="202" y="154" on="1"/>
        <pt x="171" y="144" on="0"/>
        <pt x="152" y="124" on="1"/>
        <pt x="133" y="105" on="0"/>
        <pt x="133" y="85" on="1"/>
        <pt x="133" y="62" on="0"/>
        <pt x="195" y="30" on="0"/>
        <pt x="238" y="30" on="1"/>
        <pt x="268" y="30" on="0"/>
        <pt x="293" y="43" on="1"/>
        <pt x="320" y="57" on="0"/>
        <pt x="332" y="80" on="1"/>
        <pt x="292" y="80" on="0"/>
        <pt x="292" y="160" on="0"/>
        <pt x="332" y="160" on="1"/>
        <pt x="353" y="160" on="0"/>
        <pt x="368" y="145" on="1"/>
        <pt x="382" y="130" on="0"/>
        <pt x="382" y="110" on="1"/>
        <pt x="382" y="60" on="0"/>
        <pt x="298" y="-10" on="0"/>
        <pt x="238" y="-10" on="1"/>
      </contour>
      <contour>
        <pt x="223" y="210" on="1"/>
        <pt x="228" y="212" on="0"/>
        <pt x="232" y="228" on="0"/>
        <pt x="232" y="240" on="1"/>
        <pt x="232" y="374" on="1"/>
        <pt x="190" y="374" on="0"/>
        <pt x="148" y="358" on="1"/>
        <pt x="108" y="344" on="0"/>
        <pt x="73" y="314" on="1"/>
        <pt x="124" y="305" on="0"/>
        <pt x="164" y="278" on="1"/>
        <pt x="204" y="250" on="0"/>
        <pt x="223" y="210" on="1"/>
      </contour>
    </TTGlyph>
    <TTGlyph name="bn_la_dha" xMin="4" yMin="2" xMax="647" yMax="561">
      <contour>
        <pt x="4" y="466" on="1"/>
        <pt x="199" y="466" on="1"/>
        <pt x="199" y="500" on="1"/>
        <pt x="4" y="500" on="1"/>
      </contour>
      <contour>
        <pt x="314" y="296" on="1"/>
        <pt x="334" y="312" on="1"/>
        <pt x="362" y="337" on="1"/>
        <pt x="313" y="337" on="0"/>
        <pt x="278" y="365" on="1"/>
        <pt x="243" y="395" on="0"/>
        <pt x="243" y="478" on="0"/>
        <pt x="313" y="536" on="0"/>
        <pt x="362" y="536" on="1"/>
        <pt x="389" y="536" on="0"/>
        <pt x="409" y="520" on="1"/>
        <pt x="428" y="504" on="0"/>
        <pt x="428" y="482" on="1"/>
        <pt x="428" y="458" on="0"/>
        <pt x="410" y="442" on="1"/>
        <pt x="392" y="427" on="0"/>
        <pt x="344" y="427" on="0"/>
        <pt x="326" y="443" on="1"/>
        <pt x="310" y="460" on="0"/>
        <pt x="313" y="482" on="1"/>
        <pt x="299" y="479" on="0"/>
        <pt x="290" y="466" on="1"/>
        <pt x="283" y="454" on="0"/>
        <pt x="283" y="436" on="1"/>
        <pt x="283" y="407" on="0"/>
        <pt x="317" y="388" on="1"/>
        <pt x="352" y="367" on="0"/>
        <pt x="403" y="367" on="1"/>
        <pt x="507" y="442" on="1"/>
        <pt x="507" y="561" on="1"/>
        <pt x="548" y="561" on="1"/>
        <pt x="548" y="501" on="1"/>
        <pt x="647" y="501" on="1"/>
        <pt x="647" y="466" on="1"/>
        <pt x="548" y="466" on="1"/>
        <pt x="548" y="2" on="1"/>
        <pt x="507" y="2" on="1"/>
        <pt x="507" y="2" on="1"/>
        <pt x="466" y="85" on="0"/>
        <pt x="400" y="133" on="1"/>
        <pt x="335" y="182" on="0"/>
        <pt x="268" y="182" on="1"/>
        <pt x="238" y="232" on="1"/>
        <pt x="293" y="278" on="1"/>
        <pt x="280" y="299" on="0"/>
        <pt x="252" y="299" on="1"/>
        <pt x="233" y="299" on="0"/>
        <pt x="220" y="280" on="1"/>
        <pt x="208" y="261" on="0"/>
        <pt x="208" y="234" on="1"/>
        <pt x="172" y="234" on="1"/>
        <pt x="172" y="263" on="0"/>
        <pt x="154" y="287" on="1"/>
        <pt x="136" y="310" on="0"/>
        <pt x="86" y="310" on="0"/>
        <pt x="52" y="275" on="0"/>
        <pt x="58" y="256" on="1"/>
        <pt x="76" y="268" on="0"/>
        <pt x="94" y="258" on="1"/>
        <pt x="111" y="247" on="0"/>
        <pt x="111" y="223" on="1"/>
        <pt x="111" y="208" on="0"/>
        <pt x="100" y="196" on="1"/>
        <pt x="88" y="184" on="0"/>
        <pt x="71" y="184" on="1"/>
        <pt x="51" y="184" on="0"/>
        <pt x="38" y="206" on="1"/>
        <pt x="23" y="230" on="0"/>
        <pt x="23" y="261" on="1"/>
        <pt x="23" y="299" on="0"/>
        <pt x="75" y="353" on="0"/>
        <pt x="111" y="353" on="1"/>
        <pt x="136" y="353" on="0"/>
        <pt x="157" y="339" on="1"/>
        <pt x="178" y="324" on="0"/>
        <pt x="190" y="299" on="1"/>
        <pt x="203" y="322" on="0"/>
        <pt x="218" y="332" on="1"/>
        <pt x="236" y="344" on="0"/>
        <pt x="252" y="343" on="1"/>
        <pt x="302" y="338" on="0"/>
      </contour>
      <contour>
        <pt x="507" y="72" on="1"/>
        <pt x="507" y="397" on="1"/>
        <pt x="288" y="222" on="1"/>
        <pt x="346" y="217" on="0"/>
        <pt x="404" y="177" on="1"/>
        <pt x="461" y="138" on="0"/>
        <pt x="507" y="72" on="1"/>
      </contour>
    </TTGlyph>
    <TTGlyph name="bn_la_ta" xMin="-10" yMin="-42" xMax="533" yMax="500">
      <contour>
        <pt x="102" y="262" on="1"/>
      </contour>
      <contour>
        <pt x="394" y="266" on="1"/>
        <pt x="394" y="325" on="1"/>
        <pt x="380" y="344" on="0"/>
        <pt x="364" y="353" on="1"/>
        <pt x="349" y="364" on="0"/>
        <pt x="334" y="364" on="1"/>
        <pt x="307" y="364" on="0"/>
        <pt x="288" y="340" on="1"/>
        <pt x="268" y="314" on="0"/>
        <pt x="268" y="280" on="1"/>
        <pt x="229" y="280" on="1"/>
        <pt x="229" y="319" on="0"/>
        <pt x="207" y="346" on="1"/>
        <pt x="184" y="374" on="0"/>
        <pt x="154" y="374" on="1"/>
        <pt x="121" y="374" on="0"/>
        <pt x="97" y="356" on="1"/>
        <pt x="74" y="337" on="0"/>
        <pt x="74" y="310" on="1"/>
        <pt x="74" y="290" on="0"/>
        <pt x="96" y="256" on="0"/>
        <pt x="114" y="250" on="1"/>
        <pt x="112" y="268" on="0"/>
        <pt x="124" y="280" on="1"/>
        <pt x="139" y="295" on="0"/>
        <pt x="159" y="295" on="1"/>
        <pt x="173" y="295" on="0"/>
        <pt x="187" y="284" on="1"/>
        <pt x="199" y="274" on="0"/>
        <pt x="199" y="260" on="1"/>
        <pt x="199" y="238" on="0"/>
        <pt x="180" y="224" on="1"/>
        <pt x="160" y="210" on="0"/>
        <pt x="134" y="210" on="1"/>
        <pt x="93" y="210" on="0"/>
        <pt x="63" y="238" on="1"/>
        <pt x="34" y="266" on="0"/>
        <pt x="34" y="304" on="1"/>
        <pt x="34" y="350" on="0"/>
        <pt x="69" y="382" on="1"/>
        <pt x="104" y="415" on="0"/>
        <pt x="154" y="415" on="1"/>
        <pt x="189" y="415" on="0"/>
        <pt x="214" y="398" on="1"/>
        <pt x="242" y="382" on="0"/>
        <pt x="249" y="355" on="1"/>
        <pt x="260" y="377" on="0"/>
        <pt x="283" y="392" on="1"/>
        <pt x="305" y="404" on="0"/>
        <pt x="334" y="404" on="1"/>
        <pt x="352" y="404" on="0"/>
        <pt x="368" y="397" on="1"/>
        <pt x="383" y="388" on="0"/>
        <pt x="394" y="374" on="1"/>
        <pt x="394" y="464" on="1"/>
        <pt x="-10" y="464" on="1"/>
        <pt x="-10" y="500" on="1"/>
        <pt x="533" y="500" on="1"/>
        <pt x="533" y="464" on="1"/>
        <pt x="434" y="464" on="1"/>
        <pt x="434" y="234" on="1"/>
        <pt x="438" y="233" on="0"/>
        <pt x="451" y="218" on="1"/>
        <pt x="484" y="177" on="0"/>
        <pt x="484" y="123" on="1"/>
        <pt x="484" y="55" on="0"/>
        <pt x="428" y="6" on="1"/>
        <pt x="370" y="-42" on="0"/>
        <pt x="290" y="-42" on="1"/>
        <pt x="290" y="-42" on="1"/>
        <pt x="205" y="-42" on="0"/>
        <pt x="136" y="23" on="1"/>
        <pt x="68" y="89" on="0"/>
        <pt x="40" y="193" on="1"/>
        <pt x="75" y="202" on="1"/>
        <pt x="99" y="112" on="0"/>
        <pt x="219" y="-2" on="0"/>
        <pt x="290" y="-2" on="1"/>
        <pt x="356" y="-2" on="0"/>
        <pt x="400" y="34" on="1"/>
        <pt x="445" y="71" on="0"/>
        <pt x="445" y="123" on="1"/>
        <pt x="445" y="169" on="0"/>
        <pt x="412" y="201" on="1"/>
        <pt x="380" y="232" on="0"/>
        <pt x="334" y="232" on="1"/>
        <pt x="313" y="232" on="0"/>
        <pt x="293" y="222" on="1"/>
        <pt x="276" y="212" on="0"/>
        <pt x="265" y="193" on="1"/>
        <pt x="288" y="196" on="0"/>
        <pt x="305" y="182" on="1"/>
        <pt x="325" y="166" on="0"/>
        <pt x="325" y="142" on="1"/>
        <pt x="325" y="122" on="0"/>
        <pt x="310" y="106" on="1"/>
        <pt x="296" y="93" on="0"/>
        <pt x="274" y="93" on="1"/>
        <pt x="248" y="93" on="0"/>
        <pt x="229" y="112" on="1"/>
        <pt x="209" y="131" on="0"/>
        <pt x="210" y="158" on="1"/>
        <pt x="210" y="194" on="0"/>
        <pt x="231" y="217" on="1"/>
        <pt x="298" y="292" on="0"/>
      </contour>
    </TTGlyph>
    <TTGlyph name="bn_ma_tha" xMin="-10" yMin="-82" xMax="579" yMax="500">
      <contour>
        <pt x="464" y="365" on="1"/>
      </contour>
      <contour>
        <pt x="380" y="299" on="1"/>
        <pt x="428" y="290" on="1"/>
        <pt x="440" y="284" on="0"/>
        <pt x="466" y="260" on="1"/>
        <pt x="489" y="234" on="0"/>
        <pt x="489" y="188" on="1"/>
        <pt x="489" y="140" on="0"/>
        <pt x="457" y="103" on="1"/>
        <pt x="424" y="67" on="0"/>
        <pt x="374" y="58" on="1"/>
        <pt x="434" y="42" on="0"/>
        <pt x="488" y="12" on="1"/>
        <pt x="539" y="-17" on="0"/>
        <pt x="579" y="-57" on="1"/>
        <pt x="554" y="-82" on="1"/>
        <pt x="554" y="-82" on="1"/>
        <pt x="504" y="-32" on="0"/>
        <pt x="415" y="4" on="1"/>
        <pt x="328" y="38" on="0"/>
        <pt x="220" y="48" on="1"/>
        <pt x="210" y="88" on="1"/>
        <pt x="228" y="82" on="0"/>
        <pt x="246" y="80" on="1"/>
        <pt x="268" y="78" on="0"/>
        <pt x="299" y="78" on="1"/>
        <pt x="362" y="78" on="0"/>
        <pt x="406" y="110" on="1"/>
        <pt x="449" y="142" on="0"/>
        <pt x="449" y="188" on="1"/>
        <pt x="449" y="219" on="0"/>
        <pt x="422" y="244" on="1"/>
        <pt x="397" y="268" on="0"/>
        <pt x="359" y="268" on="1"/>
        <pt x="328" y="268" on="0"/>
        <pt x="302" y="253" on="1"/>
        <pt x="277" y="238" on="0"/>
        <pt x="265" y="213" on="1"/>
        <pt x="268" y="214" on="0"/>
        <pt x="272" y="214" on="1"/>
        <pt x="280" y="214" on="1"/>
        <pt x="302" y="214" on="0"/>
        <pt x="319" y="202" on="1"/>
        <pt x="334" y="190" on="0"/>
        <pt x="334" y="154" on="0"/>
        <pt x="320" y="141" on="1"/>
        <pt x="305" y="128" on="0"/>
        <pt x="285" y="128" on="1"/>
        <pt x="260" y="128" on="0"/>
        <pt x="242" y="147" on="1"/>
        <pt x="225" y="166" on="0"/>
        <pt x="225" y="193" on="1"/>
        <pt x="225" y="228" on="0"/>
        <pt x="258" y="267" on="1"/>
        <pt x="285" y="298" on="0"/>
        <pt x="332" y="299" on="1"/>
        <pt x="296" y="300" on="0"/>
        <pt x="283" y="311" on="1"/>
        <pt x="253" y="334" on="0"/>
        <pt x="216" y="334" on="1"/>
        <pt x="216" y="305" on="0"/>
        <pt x="195" y="285" on="1"/>
        <pt x="175" y="265" on="0"/>
        <pt x="146" y="265" on="1"/>
        <pt x="121" y="265" on="0"/>
        <pt x="103" y="282" on="1"/>
        <pt x="86" y="299" on="0"/>
        <pt x="86" y="325" on="1"/>
        <pt x="86" y="350" on="0"/>
        <pt x="111" y="367" on="1"/>
        <pt x="136" y="383" on="0"/>
        <pt x="171" y="383" on="1"/>
        <pt x="160" y="416" on="0"/>
        <pt x="147" y="436" on="1"/>
        <pt x="134" y="458" on="0"/>
        <pt x="121" y="464" on="1"/>
        <pt x="-10" y="464" on="1"/>
        <pt x="-10" y="500" on="1"/>
        <pt x="557" y="500" on="1"/>
        <pt x="557" y="464" on="1"/>
        <pt x="430" y="464" on="1"/>
        <pt x="448" y="451" on="0"/>
        <pt x="457" y="434" on="1"/>
        <pt x="466" y="414" on="0"/>
        <pt x="466" y="394" on="1"/>
        <pt x="464" y="367" on="0"/>
        <pt x="464" y="365" on="1"/>
        <pt x="449" y="332" on="1"/>
        <pt x="406" y="284" on="0"/>
      </contour>
      <contour>
        <pt x="350" y="329" on="1"/>
        <pt x="382" y="329" on="0"/>
        <pt x="404" y="349" on="1"/>
        <pt x="425" y="368" on="0"/>
        <pt x="425" y="394" on="1"/>
        <pt x="425" y="424" on="0"/>
        <pt x="398" y="445" on="1"/>
        <pt x="370" y="464" on="0"/>
        <pt x="331" y="464" on="1"/>
        <pt x="176" y="464" on="1"/>
        <pt x="189" y="449" on="0"/>
        <pt x="199" y="428" on="1"/>
        <pt x="208" y="406" on="0"/>
        <pt x="216" y="380" on="1"/>
        <pt x="235" y="376" on="0"/>
        <pt x="252" y="370" on="1"/>
        <pt x="270" y="364" on="0"/>
        <pt x="286" y="355" on="1"/>
        <pt x="307" y="343" on="0"/>
        <pt x="322" y="335" on="1"/>
        <pt x="340" y="329" on="0"/>
        <pt x="350" y="329" on="1"/>
      </contour>
    </TTGlyph>
    <TTGlyph name="braceleft" xMin="90" yMin="-146" xMax="304" yMax="588">
      <contour>
        <pt x="90" y="233" on="1"/>
        <pt x="121" y="233" on="0"/>
        <pt x="166" y="284" on="0"/>
        <pt x="166" y="320" on="1"/>
        <pt x="166" y="419" on="1"/>
        <pt x="166" y="489" on="0"/>
        <pt x="247" y="588" on="0"/>
        <pt x="304" y="588" on="1"/>
        <pt x="304" y="549" on="1"/>
        <pt x="267" y="549" on="0"/>
        <pt x="214" y="473" on="0"/>
        <pt x="214" y="419" on="1"/>
        <pt x="214" y="320" on="1"/>
        <pt x="214" y="285" on="0"/>
        <pt x="180" y="230" on="0"/>
        <pt x="152" y="220" on="1"/>
        <pt x="180" y="210" on="0"/>
        <pt x="214" y="156" on="0"/>
        <pt x="214" y="122" on="1"/>
        <pt x="214" y="24" on="1"/>
        <pt x="214" y="-30" on="0"/>
        <pt x="267" y="-106" on="0"/>
        <pt x="304" y="-106" on="1"/>
        <pt x="304" y="-146" on="1"/>
        <pt x="247" y="-146" on="0"/>
        <pt x="166" y="-46" on="0"/>
        <pt x="166" y="24" on="1"/>
        <pt x="166" y="122" on="1"/>
        <pt x="166" y="157" on="0"/>
        <pt x="121" y="206" on="0"/>
        <pt x="90" y="206" on="1"/>
        <pt x="90" y="233" on="1"/>
      </contour>
    </TTGlyph>
    <TTGlyph name="braceright" xMin="90" yMin="-120" xMax="305" yMax="614">
      <contour>
        <pt x="305" y="259" on="1"/>
        <pt x="305" y="232" on="1"/>
        <pt x="274" y="232" on="0"/>
        <pt x="229" y="183" on="0"/>
        <pt x="229" y="148" on="1"/>
        <pt x="229" y="50" on="1"/>
        <pt x="229" y="-20" on="0"/>
        <pt x="148" y="-120" on="0"/>
        <pt x="90" y="-120" on="1"/>
        <pt x="90" y="-80" on="1"/>
        <pt x="128" y="-80" on="0"/>
        <pt x="181" y="-4" on="0"/>
        <pt x="181" y="50" on="1"/>
        <pt x="181" y="148" on="1"/>
        <pt x="181" y="181" on="0"/>
        <pt x="216" y="235" on="0"/>
        <pt x="245" y="245" on="1"/>
        <pt x="216" y="255" on="0"/>
        <pt x="181" y="311" on="0"/>
        <pt x="181" y="346" on="1"/>
        <pt x="181" y="445" on="1"/>
        <pt x="181" y="499" on="0"/>
        <pt x="128" y="575" on="0"/>
        <pt x="90" y="575" on="1"/>
        <pt x="90" y="614" on="1"/>
        <pt x="148" y="614" on="0"/>
        <pt x="229" y="515" on="0"/>
        <pt x="229" y="445" on="1"/>
        <pt x="229" y="346" on="1"/>
        <pt x="229" y="310" on="0"/>
        <pt x="274" y="259" on="0"/>
        <pt x="305" y="259" on="1"/>
      </contour>
    </TTGlyph>
    <TTGlyph name="bracketleft" xMin="90" yMin="-220" xMax="290" yMax="720">
      <contour>
        <pt x="90" y="-220" on="1"/>
        <pt x="90" y="720" on="1"/>
        <pt x="290" y="720" on="1"/>
        <pt x="290" y="690" on="1"/>
        <pt x="130" y="690" on="1"/>
        <pt x="130" y="-190" on="1"/>
        <pt x="290" y="-190" on="1"/>
        <pt x="290" y="-220" on="1"/>
        <pt x="90" y="-220" on="1"/>
      </contour>
    </TTGlyph>
    <TTGlyph name="bracketright" xMin="90" yMin="-220" xMax="290" yMax="720">
      <contour>
        <pt x="90" y="-220" on="1"/>
        <pt x="90" y="-190" on="1"/>
        <pt x="250" y="-190" on="1"/>
        <pt x="250" y="690" on="1"/>
        <pt x="90" y="690" on="1"/>
        <pt x="90" y="720" on="1"/>
        <pt x="290" y="720" on="1"/>
        <pt x="290" y="-220" on="1"/>
        <pt x="90" y="-220" on="1"/>
      </contour>
    </TTGlyph>
    <TTGlyph name="cent" xMin="62" yMin="-94" xMax="475" yMax="604">
      <contour>
        <pt x="62" y="250" on="1"/>
        <pt x="62" y="363" on="0"/>
        <pt x="176" y="500" on="0"/>
        <pt x="271" y="500" on="1"/>
        <pt x="290" y="500" on="0"/>
        <pt x="323" y="496" on="0"/>
        <pt x="337" y="493" on="1"/>
        <pt x="382" y="604" on="1"/>
        <pt x="432" y="604" on="1"/>
        <pt x="381" y="473" on="1"/>
        <pt x="420" y="447" on="0"/>
        <pt x="468" y="374" on="0"/>
        <pt x="471" y="335" on="1"/>
        <pt x="415" y="335" on="1"/>
        <pt x="413" y="358" on="0"/>
        <pt x="387" y="406" on="0"/>
        <pt x="364" y="428" on="1"/>
        <pt x="219" y="53" on="1"/>
        <pt x="234" y="49" on="0"/>
        <pt x="260" y="44" on="0"/>
        <pt x="271" y="44" on="1"/>
        <pt x="334" y="44" on="0"/>
        <pt x="416" y="113" on="0"/>
        <pt x="421" y="171" on="1"/>
        <pt x="475" y="171" on="1"/>
        <pt x="468" y="92" on="0"/>
        <pt x="357" y="-2" on="0"/>
        <pt x="271" y="-2" on="1"/>
        <pt x="254" y="-2" on="0"/>
        <pt x="218" y="3" on="0"/>
        <pt x="201" y="8" on="1"/>
        <pt x="161" y="-94" on="1"/>
        <pt x="111" y="-94" on="1"/>
        <pt x="159" y="28" on="1"/>
        <pt x="113" y="61" on="0"/>
        <pt x="62" y="179" on="0"/>
        <pt x="62" y="250" on="1"/>
      </contour>
      <contour>
        <pt x="322" y="447" on="1"/>
        <pt x="306" y="450" on="0"/>
        <pt x="280" y="454" on="0"/>
        <pt x="271" y="454" on="1"/>
        <pt x="201" y="454" on="0"/>
        <pt x="116" y="343" on="0"/>
        <pt x="116" y="250" on="1"/>
        <pt x="116" y="199" on="0"/>
        <pt x="147" y="109" on="0"/>
        <pt x="176" y="76" on="1"/>
        <pt x="322" y="447" on="1"/>
      </contour>
    </TTGlyph>
    <TTGlyph name="colon" xMin="90" yMin="0" xMax="180" yMax="380">
      <contour>
        <pt x="135" y="285" on="1"/>
        <pt x="116" y="285" on="0"/>
        <pt x="90" y="313" on="0"/>
        <pt x="90" y="332" on="1"/>
        <pt x="90" y="352" on="0"/>
        <pt x="119" y="380" on="0"/>
        <pt x="140" y="380" on="1"/>
        <pt x="157" y="380" on="0"/>
        <pt x="180" y="352" on="0"/>
        <pt x="180" y="332" on="1"/>
        <pt x="180" y="313" on="0"/>
        <pt x="154" y="285" on="0"/>
        <pt x="135" y="285" on="1"/>
      </contour>
      <contour>
        <pt x="135" y="0" on="1"/>
        <pt x="116" y="0" on="0"/>
        <pt x="90" y="28" on="0"/>
        <pt x="90" y="47" on="1"/>
        <pt x="90" y="67" on="0"/>
        <pt x="116" y="95" on="0"/>
        <pt x="135" y="95" on="1"/>
        <pt x="154" y="95" on="0"/>
        <pt x="180" y="67" on="0"/>
        <pt x="180" y="47" on="1"/>
        <pt x="180" y="28" on="0"/>
        <pt x="154" y="0" on="0"/>
        <pt x="135" y="0" on="1"/>
      </contour>
    </TTGlyph>
    <TTGlyph name="comma" xMin="90" yMin="-135" xMax="230" yMax="90">
      <contour>
        <pt x="115" y="-135" on="1"/>
        <pt x="90" y="-105" on="1"/>
        <pt x="133" y="-85" on="0"/>
        <pt x="185" y="-30" on="0"/>
        <pt x="185" y="-5" on="1"/>
        <pt x="185" y="-3" on="0"/>
        <pt x="182" y="2" on="0"/>
        <pt x="180" y="5" on="1"/>
        <pt x="174" y="0" on="0"/>
        <pt x="154" y="-5" on="0"/>
        <pt x="140" y="-5" on="1"/>
        <pt x="123" y="-5" on="0"/>
        <pt x="100" y="18" on="0"/>
        <pt x="100" y="35" on="1"/>
        <pt x="100" y="58" on="0"/>
        <pt x="132" y="90" on="0"/>
        <pt x="155" y="90" on="1"/>
        <pt x="186" y="90" on="0"/>
        <pt x="230" y="43" on="0"/>
        <pt x="230" y="10" on="1"/>
        <pt x="230" y="-32" on="0"/>
        <pt x="168" y="-110" on="0"/>
        <pt x="115" y="-135" on="1"/>
      </contour>
    </TTGlyph>
    <TTGlyph name="divide" xMin="90" yMin="28" xMax="442" yMax="417">
      <contour>
        <pt x="442" y="250" on="1"/>
        <pt x="442" y="194" on="1"/>
        <pt x="90" y="194" on="1"/>
        <pt x="90" y="250" on="1"/>
        <pt x="442" y="250" on="1"/>
      </contour>
      <contour>
        <pt x="266" y="130" on="1"/>
        <pt x="287" y="130" on="0"/>
        <pt x="317" y="100" on="0"/>
        <pt x="317" y="79" on="1"/>
        <pt x="317" y="58" on="0"/>
        <pt x="287" y="28" on="0"/>
        <pt x="266" y="28" on="1"/>
        <pt x="245" y="28" on="0"/>
        <pt x="215" y="58" on="0"/>
        <pt x="215" y="79" on="1"/>
        <pt x="215" y="100" on="0"/>
        <pt x="245" y="130" on="0"/>
        <pt x="266" y="130" on="1"/>
      </contour>
      <contour>
        <pt x="266" y="417" on="1"/>
        <pt x="287" y="417" on="0"/>
        <pt x="317" y="387" on="0"/>
        <pt x="317" y="366" on="1"/>
        <pt x="317" y="345" on="0"/>
        <pt x="287" y="315" on="0"/>
        <pt x="266" y="315" on="1"/>
        <pt x="245" y="315" on="0"/>
        <pt x="215" y="345" on="0"/>
        <pt x="215" y="366" on="1"/>
        <pt x="215" y="387" on="0"/>
        <pt x="245" y="417" on="0"/>
        <pt x="266" y="417" on="1"/>
      </contour>
    </TTGlyph>
    <TTGlyph name="dollar" xMin="90" yMin="-96" xMax="475" yMax="610">
      <contour>
        <pt x="90" y="149" on="1"/>
        <pt x="136" y="149" on="1"/>
        <pt x="136" y="104" on="0"/>
        <pt x="203" y="30" on="0"/>
        <pt x="255" y="17" on="1"/>
        <pt x="255" y="236" on="1"/>
        <pt x="190" y="243" on="0"/>
        <pt x="102" y="327" on="0"/>
        <pt x="102" y="382" on="1"/>
        <pt x="102" y="435" on="0"/>
        <pt x="189" y="516" on="0"/>
        <pt x="255" y="524" on="1"/>
        <pt x="255" y="610" on="1"/>
        <pt x="304" y="610" on="1"/>
        <pt x="304" y="524" on="1"/>
        <pt x="371" y="516" on="0"/>
        <pt x="460" y="428" on="0"/>
        <pt x="460" y="370" on="1"/>
        <pt x="412" y="370" on="1"/>
        <pt x="412" y="411" on="0"/>
        <pt x="350" y="473" on="0"/>
        <pt x="304" y="480" on="1"/>
        <pt x="304" y="272" on="1"/>
        <pt x="378" y="262" on="0"/>
        <pt x="475" y="178" on="0"/>
        <pt x="475" y="126" on="1"/>
        <pt x="475" y="68" on="0"/>
        <pt x="377" y="-19" on="0"/>
        <pt x="304" y="-27" on="1"/>
        <pt x="304" y="-96" on="1"/>
        <pt x="255" y="-96" on="1"/>
        <pt x="255" y="-27" on="1"/>
        <pt x="184" y="-17" on="0"/>
        <pt x="90" y="83" on="0"/>
        <pt x="90" y="149" on="1"/>
      </contour>
      <contour>
        <pt x="304" y="17" on="1"/>
        <pt x="358" y="23" on="0"/>
        <pt x="431" y="85" on="0"/>
        <pt x="431" y="126" on="1"/>
        <pt x="431" y="166" on="0"/>
        <pt x="358" y="225" on="0"/>
        <pt x="304" y="229" on="1"/>
        <pt x="304" y="17" on="1"/>
      </contour>
      <contour>
        <pt x="255" y="480" on="1"/>
        <pt x="209" y="471" on="0"/>
        <pt x="149" y="416" on="0"/>
        <pt x="149" y="382" on="1"/>
        <pt x="149" y="345" on="0"/>
        <pt x="209" y="286" on="0"/>
        <pt x="255" y="279" on="1"/>
        <pt x="255" y="480" on="1"/>
      </contour>
    </TTGlyph>
    <TTGlyph name="eight" xMin="47" yMin="-6" xMax="379" yMax="525">
      <contour>
        <pt x="213" y="-6" on="1"/>
        <pt x="144" y="-6" on="0"/>
        <pt x="47" y="79" on="0"/>
        <pt x="47" y="139" on="1"/>
        <pt x="47" y="185" on="0"/>
        <pt x="104" y="262" on="0"/>
        <pt x="150" y="279" on="1"/>
        <pt x="113" y="296" on="0"/>
        <pt x="70" y="357" on="0"/>
        <pt x="70" y="392" on="1"/>
        <pt x="70" y="447" on="0"/>
        <pt x="154" y="525" on="0"/>
        <pt x="213" y="525" on="1"/>
        <pt x="272" y="525" on="0"/>
        <pt x="356" y="447" on="0"/>
        <pt x="356" y="392" on="1"/>
        <pt x="356" y="354" on="0"/>
        <pt x="313" y="292" on="0"/>
        <pt x="277" y="279" on="1"/>
        <pt x="323" y="262" on="0"/>
        <pt x="379" y="185" on="0"/>
        <pt x="379" y="139" on="1"/>
        <pt x="379" y="79" on="0"/>
        <pt x="282" y="-6" on="0"/>
        <pt x="213" y="-6" on="1"/>
      </contour>
      <contour>
        <pt x="213" y="28" on="1"/>
        <pt x="266" y="28" on="0"/>
        <pt x="341" y="93" on="0"/>
        <pt x="341" y="139" on="1"/>
        <pt x="341" y="187" on="0"/>
        <pt x="266" y="254" on="0"/>
        <pt x="213" y="254" on="1"/>
        <pt x="160" y="254" on="0"/>
        <pt x="85" y="187" on="0"/>
        <pt x="85" y="139" on="1"/>
        <pt x="85" y="93" on="0"/>
        <pt x="160" y="28" on="0"/>
        <pt x="213" y="28" on="1"/>
      </contour>
      <contour>
        <pt x="213" y="298" on="1"/>
        <pt x="256" y="298" on="0"/>
        <pt x="318" y="355" on="0"/>
        <pt x="318" y="395" on="1"/>
        <pt x="318" y="435" on="0"/>
        <pt x="256" y="491" on="0"/>
        <pt x="213" y="491" on="1"/>
        <pt x="170" y="491" on="0"/>
        <pt x="109" y="435" on="0"/>
        <pt x="109" y="395" on="1"/>
        <pt x="109" y="355" on="0"/>
        <pt x="170" y="298" on="0"/>
        <pt x="213" y="298" on="1"/>
      </contour>
    </TTGlyph>
    <TTGlyph name="ellipsis" xMin="90" yMin="0" xMax="720" yMax="45">
      <contour>
        <pt x="90" y="0" on="1"/>
        <pt x="90" y="45" on="1"/>
        <pt x="200" y="45" on="1"/>
        <pt x="200" y="0" on="1"/>
        <pt x="90" y="0" on="1"/>
      </contour>
      <contour>
        <pt x="350" y="0" on="1"/>
        <pt x="350" y="45" on="1"/>
        <pt x="460" y="45" on="1"/>
        <pt x="460" y="0" on="1"/>
        <pt x="350" y="0" on="1"/>
      </contour>
      <contour>
        <pt x="610" y="0" on="1"/>
        <pt x="610" y="45" on="1"/>
        <pt x="720" y="45" on="1"/>
        <pt x="720" y="0" on="1"/>
        <pt x="610" y="0" on="1"/>
      </contour>
    </TTGlyph>
    <TTGlyph name="emdash" xMin="0" yMin="235" xMax="1000" yMax="275">
      <contour>
        <pt x="0" y="235" on="1"/>
        <pt x="0" y="275" on="1"/>
        <pt x="1000" y="275" on="1"/>
        <pt x="1000" y="235" on="1"/>
        <pt x="0" y="235" on="1"/>
      </contour>
    </TTGlyph>
    <TTGlyph name="endash" xMin="0" yMin="235" xMax="500" yMax="275">
      <contour>
        <pt x="0" y="235" on="1"/>
        <pt x="0" y="275" on="1"/>
        <pt x="500" y="275" on="1"/>
        <pt x="500" y="235" on="1"/>
        <pt x="0" y="235" on="1"/>
      </contour>
    </TTGlyph>
    <TTGlyph name="equal" xMin="90" yMin="150" xMax="490" yMax="350">
      <contour>
        <pt x="90" y="150" on="1"/>
        <pt x="90" y="180" on="1"/>
        <pt x="490" y="180" on="1"/>
        <pt x="490" y="150" on="1"/>
        <pt x="90" y="150" on="1"/>
      </contour>
      <contour>
        <pt x="90" y="320" on="1"/>
        <pt x="90" y="350" on="1"/>
        <pt x="490" y="350" on="1"/>
        <pt x="490" y="320" on="1"/>
        <pt x="90" y="320" on="1"/>
      </contour>
    </TTGlyph>
    <TTGlyph name="exclam" xMin="240" yMin="-40" xMax="320" yMax="550">
      <contour>
        <pt x="280" y="-40" on="1"/>
        <pt x="263" y="-40" on="0"/>
        <pt x="240" y="-17" on="0"/>
        <pt x="240" y="0" on="1"/>
        <pt x="240" y="14" on="0"/>
        <pt x="263" y="35" on="0"/>
        <pt x="297" y="35" on="0"/>
        <pt x="320" y="12" on="0"/>
        <pt x="320" y="-5" on="1"/>
        <pt x="320" y="-19" on="0"/>
        <pt x="297" y="-40" on="0"/>
        <pt x="280" y="-40" on="1"/>
      </contour>
      <contour>
        <pt x="260" y="100" on="1"/>
        <pt x="260" y="550" on="1"/>
        <pt x="300" y="550" on="1"/>
        <pt x="300" y="100" on="1"/>
        <pt x="260" y="100" on="1"/>
      </contour>
    </TTGlyph>
    <TTGlyph name="five" xMin="47" yMin="-6" xMax="379" yMax="519">
      <contour>
        <pt x="213" y="-6" on="1"/>
        <pt x="147" y="-6" on="0"/>
        <pt x="52" y="70" on="0"/>
        <pt x="47" y="126" on="1"/>
        <pt x="85" y="126" on="1"/>
        <pt x="92" y="85" on="0"/>
        <pt x="165" y="32" on="0"/>
        <pt x="213" y="32" on="1"/>
        <pt x="266" y="32" on="0"/>
        <pt x="341" y="107" on="0"/>
        <pt x="341" y="160" on="1"/>
        <pt x="341" y="216" on="0"/>
        <pt x="266" y="294" on="0"/>
        <pt x="213" y="294" on="1"/>
        <pt x="177" y="294" on="0"/>
        <pt x="118" y="269" on="0"/>
        <pt x="102" y="246" on="1"/>
        <pt x="67" y="246" on="1"/>
        <pt x="113" y="519" on="1"/>
        <pt x="353" y="519" on="1"/>
        <pt x="353" y="480" on="1"/>
        <pt x="145" y="480" on="1"/>
        <pt x="111" y="294" on="1"/>
        <pt x="123" y="310" on="0"/>
        <pt x="180" y="329" on="0"/>
        <pt x="220" y="329" on="1"/>
        <pt x="286" y="329" on="0"/>
        <pt x="379" y="234" on="0"/>
        <pt x="379" y="166" on="1"/>
        <pt x="379" y="95" on="0"/>
        <pt x="282" y="-6" on="0"/>
        <pt x="213" y="-6" on="1"/>
      </contour>
    </TTGlyph>
    <TTGlyph name="four" xMin="40" yMin="0" xMax="386" yMax="519">
      <contour>
        <pt x="272" y="0" on="1"/>
        <pt x="272" y="121" on="1"/>
        <pt x="40" y="121" on="1"/>
        <pt x="40" y="166" on="1"/>
        <pt x="279" y="519" on="1"/>
        <pt x="306" y="519" on="1"/>
        <pt x="306" y="160" on="1"/>
        <pt x="386" y="160" on="1"/>
        <pt x="386" y="121" on="1"/>
        <pt x="306" y="121" on="1"/>
        <pt x="306" y="0" on="1"/>
        <pt x="272" y="0" on="1"/>
      </contour>
      <contour>
        <pt x="78" y="160" on="1"/>
        <pt x="272" y="160" on="1"/>
        <pt x="272" y="448" on="1"/>
        <pt x="78" y="160" on="1"/>
      </contour>
    </TTGlyph>
    <TTGlyph name="glyph283" xMin="-10" yMin="-325" xMax="625" yMax="500">
      <contour>
        <pt x="339" y="-10" on="1"/>
        <pt x="237" y="-10" on="0"/>
        <pt x="69" y="108" on="0"/>
        <pt x="34" y="205" on="1"/>
        <pt x="69" y="220" on="1"/>
        <pt x="110" y="133" on="0"/>
        <pt x="256" y="30" on="0"/>
        <pt x="339" y="30" on="1"/>
        <pt x="418" y="30" on="0"/>
        <pt x="529" y="118" on="0"/>
        <pt x="529" y="180" on="1"/>
        <pt x="529" y="215" on="0"/>
        <pt x="505" y="270" on="0"/>
        <pt x="484" y="285" on="1"/>
        <pt x="463" y="239" on="0"/>
        <pt x="392" y="185" on="0"/>
        <pt x="354" y="185" on="1"/>
        <pt x="323" y="185" on="0"/>
        <pt x="279" y="247" on="0"/>
        <pt x="279" y="290" on="1"/>
        <pt x="256" y="313" on="0"/>
        <pt x="191" y="342" on="0"/>
        <pt x="154" y="345" on="1"/>
        <pt x="160" y="338" on="0"/>
        <pt x="166" y="322" on="0"/>
        <pt x="166" y="313" on="1"/>
        <pt x="166" y="291" on="0"/>
        <pt x="133" y="260" on="0"/>
        <pt x="110" y="260" on="1"/>
        <pt x="87" y="260" on="0"/>
        <pt x="54" y="295" on="0"/>
        <pt x="54" y="320" on="1"/>
        <pt x="54" y="347" on="0"/>
        <pt x="104" y="385" on="0"/>
        <pt x="139" y="385" on="1"/>
        <pt x="176" y="385" on="0"/>
        <pt x="248" y="362" on="0"/>
        <pt x="279" y="340" on="1"/>
        <pt x="279" y="465" on="1"/>
        <pt x="-10" y="465" on="1"/>
        <pt x="-10" y="500" on="1"/>
        <pt x="625" y="500" on="1"/>
        <pt x="625" y="465" on="1"/>
        <pt x="319" y="465" on="1"/>
        <pt x="319" y="280" on="1"/>
        <pt x="319" y="257" on="0"/>
        <pt x="342" y="225" on="0"/>
        <pt x="359" y="225" on="1"/>
        <pt x="387" y="225" on="0"/>
        <pt x="449" y="287" on="0"/>
        <pt x="474" y="340" on="1"/>
        <pt x="518" y="315" on="0"/>
        <pt x="569" y="229" on="0"/>
        <pt x="569" y="180" on="1"/>
        <pt x="569" y="142" on="0"/>
        <pt x="532" y="71" on="0"/>
        <pt x="499" y="44" on="1"/>
        <pt x="499" y="-175" on="1"/>
        <pt x="530" y="-197" on="0"/>
        <pt x="588" y="-265" on="0"/>
        <pt x="614" y="-310" on="1"/>
        <pt x="579" y="-325" on="1"/>
        <pt x="558" y="-289" on="0"/>
        <pt x="503" y="-229" on="0"/>
        <pt x="469" y="-205" on="1"/>
        <pt x="452" y="-235" on="0"/>
        <pt x="401" y="-270" on="0"/>
        <pt x="374" y="-270" on="1"/>
        <pt x="339" y="-270" on="0"/>
        <pt x="289" y="-226" on="0"/>
        <pt x="289" y="-195" on="1"/>
        <pt x="289" y="-162" on="0"/>
        <pt x="342" y="-115" on="0"/>
        <pt x="379" y="-115" on="1"/>
        <pt x="397" y="-115" on="0"/>
        <pt x="438" y="-128" on="0"/>
        <pt x="459" y="-140" on="1"/>
        <pt x="459" y="-125" on="1"/>
        <pt x="449" y="-106" on="0"/>
        <pt x="400" y="-85" on="0"/>
        <pt x="369" y="-85" on="1"/>
        <pt x="337" y="-85" on="0"/>
        <pt x="216" y="-125" on="0"/>
        <pt x="184" y="-125" on="1"/>
        <pt x="151" y="-125" on="0"/>
        <pt x="104" y="-69" on="0"/>
        <pt x="104" y="-30" on="1"/>
        <pt x="139" y="-30" on="1"/>
        <pt x="139" y="-53" on="0"/>
        <pt x="165" y="-85" on="0"/>
        <pt x="184" y="-85" on="1"/>
        <pt x="216" y="-85" on="0"/>
        <pt x="337" y="-45" on="0"/>
        <pt x="369" y="-45" on="1"/>
        <pt x="400" y="-45" on="0"/>
        <pt x="447" y="-61" on="0"/>
        <pt x="459" y="-75" on="1"/>
        <pt x="459" y="18" on="1"/>
        <pt x="432" y="4" on="0"/>
        <pt x="371" y="-10" on="0"/>
        <pt x="339" y="-10" on="1"/>
      </contour>
      <contour>
        <pt x="374" y="-235" on="1"/>
        <pt x="393" y="-235" on="0"/>
        <pt x="429" y="-202" on="0"/>
        <pt x="439" y="-175" on="1"/>
        <pt x="427" y="-165" on="0"/>
        <pt x="397" y="-155" on="0"/>
        <pt x="379" y="-155" on="1"/>
        <pt x="358" y="-155" on="0"/>
        <pt x="329" y="-178" on="0"/>
        <pt x="329" y="-195" on="1"/>
        <pt x="329" y="-212" on="0"/>
        <pt x="355" y="-235" on="0"/>
        <pt x="374" y="-235" on="1"/>
      </contour>
    </TTGlyph>
    <TTGlyph name="glyph391" xMin="-10" yMin="-210" xMax="694" yMax="500">
      <contour>
        <pt x="-10" y="465" on="1"/>
        <pt x="-10" y="500" on="1"/>
        <pt x="694" y="500" on="1"/>
        <pt x="694" y="465" on="1"/>
        <pt x="459" y="465" on="1"/>
        <pt x="466" y="458" on="0"/>
        <pt x="474" y="434" on="0"/>
        <pt x="474" y="420" on="1"/>
        <pt x="474" y="396" on="0"/>
        <pt x="449" y="357" on="0"/>
        <pt x="429" y="350" on="1"/>
        <pt x="445" y="341" on="0"/>
        <pt x="464" y="295" on="0"/>
        <pt x="464" y="265" on="1"/>
        <pt x="480" y="284" on="0"/>
        <pt x="527" y="305" on="0"/>
        <pt x="554" y="305" on="1"/>
        <pt x="595" y="305" on="0"/>
        <pt x="654" y="252" on="0"/>
        <pt x="654" y="215" on="1"/>
        <pt x="654" y="174" on="0"/>
        <pt x="595" y="115" on="0"/>
        <pt x="554" y="115" on="1"/>
        <pt x="527" y="115" on="0"/>
        <pt x="489" y="144" on="0"/>
        <pt x="489" y="165" on="1"/>
        <pt x="489" y="184" on="0"/>
        <pt x="515" y="210" on="0"/>
        <pt x="534" y="210" on="1"/>
        <pt x="553" y="210" on="0"/>
        <pt x="580" y="185" on="0"/>
        <pt x="580" y="167" on="1"/>
        <pt x="580" y="165" on="0"/>
        <pt x="579" y="159" on="0"/>
        <pt x="578" y="155" on="1"/>
        <pt x="594" y="161" on="0"/>
        <pt x="614" y="191" on="0"/>
        <pt x="614" y="210" on="1"/>
        <pt x="614" y="235" on="0"/>
        <pt x="579" y="270" on="0"/>
        <pt x="554" y="270" on="1"/>
        <pt x="519" y="270" on="0"/>
        <pt x="467" y="221" on="0"/>
        <pt x="464" y="185" on="1"/>
        <pt x="464" y="15" on="1"/>
        <pt x="464" y="-3" on="0"/>
        <pt x="461" y="-36" on="0"/>
        <pt x="459" y="-50" on="1"/>
        <pt x="497" y="-77" on="0"/>
        <pt x="563" y="-150" on="0"/>
        <pt x="589" y="-195" on="1"/>
        <pt x="554" y="-210" on="1"/>
        <pt x="533" y="-174" on="0"/>
        <pt x="478" y="-114" on="0"/>
        <pt x="444" y="-90" on="1"/>
        <pt x="430" y="-120" on="0"/>
        <pt x="379" y="-155" on="0"/>
        <pt x="349" y="-155" on="1"/>
        <pt x="314" y="-155" on="0"/>
        <pt x="264" y="-111" on="0"/>
        <pt x="264" y="-80" on="1"/>
        <pt x="264" y="-47" on="0"/>
        <pt x="317" y="0" on="0"/>
        <pt x="354" y="0" on="1"/>
        <pt x="373" y="0" on="0"/>
        <pt x="410" y="-13" on="0"/>
        <pt x="424" y="-25" on="1"/>
        <pt x="424" y="0" on="1"/>
        <pt x="398" y="31" on="0"/>
        <pt x="335" y="65" on="0"/>
        <pt x="303" y="65" on="1"/>
        <pt x="275" y="65" on="0"/>
        <pt x="167" y="35" on="0"/>
        <pt x="139" y="35" on="1"/>
        <pt x="100" y="35" on="0"/>
        <pt x="44" y="97" on="0"/>
        <pt x="44" y="140" on="1"/>
        <pt x="44" y="153" on="0"/>
        <pt x="52" y="183" on="0"/>
        <pt x="59" y="200" on="1"/>
        <pt x="99" y="190" on="1"/>
        <pt x="92" y="177" on="0"/>
        <pt x="84" y="152" on="0"/>
        <pt x="84" y="140" on="1"/>
        <pt x="84" y="113" on="0"/>
        <pt x="116" y="75" on="0"/>
        <pt x="139" y="75" on="1"/>
        <pt x="167" y="75" on="0"/>
        <pt x="275" y="105" on="0"/>
        <pt x="303" y="105" on="1"/>
        <pt x="339" y="105" on="0"/>
        <pt x="402" y="76" on="0"/>
        <pt x="424" y="50" on="1"/>
        <pt x="424" y="275" on="1"/>
        <pt x="424" y="296" on="0"/>
        <pt x="401" y="326" on="0"/>
        <pt x="384" y="326" on="1"/>
        <pt x="345" y="326" on="0"/>
        <pt x="276" y="268" on="0"/>
        <pt x="259" y="220" on="1"/>
        <pt x="281" y="224" on="0"/>
        <pt x="314" y="199" on="0"/>
        <pt x="314" y="180" on="1"/>
        <pt x="314" y="159" on="0"/>
        <pt x="285" y="130" on="0"/>
        <pt x="264" y="130" on="1"/>
        <pt x="241" y="130" on="0"/>
        <pt x="209" y="165" on="0"/>
        <pt x="209" y="190" on="1"/>
        <pt x="209" y="235" on="0"/>
        <pt x="269" y="317" on="0"/>
        <pt x="319" y="340" on="1"/>
        <pt x="285" y="356" on="0"/>
        <pt x="250" y="376" on="0"/>
        <pt x="244" y="385" on="1"/>
        <pt x="237" y="348" on="0"/>
        <pt x="181" y="300" on="0"/>
        <pt x="144" y="300" on="1"/>
        <pt x="103" y="300" on="0"/>
        <pt x="44" y="353" on="0"/>
        <pt x="44" y="390" on="1"/>
        <pt x="84" y="400" on="1"/>
        <pt x="84" y="375" on="0"/>
        <pt x="119" y="340" on="0"/>
        <pt x="144" y="340" on="1"/>
        <pt x="169" y="340" on="0"/>
        <pt x="204" y="381" on="0"/>
        <pt x="204" y="410" on="1"/>
        <pt x="204" y="426" on="0"/>
        <pt x="191" y="455" on="0"/>
        <pt x="179" y="465" on="1"/>
        <pt x="-10" y="465" on="1"/>
      </contour>
      <contour>
        <pt x="369" y="370" on="1"/>
        <pt x="396" y="370" on="0"/>
        <pt x="434" y="396" on="0"/>
        <pt x="434" y="415" on="1"/>
        <pt x="434" y="435" on="0"/>
        <pt x="414" y="464" on="0"/>
        <pt x="399" y="465" on="1"/>
        <pt x="229" y="465" on="1"/>
        <pt x="254" y="421" on="0"/>
        <pt x="329" y="370" on="0"/>
        <pt x="369" y="370" on="1"/>
      </contour>
      <contour>
        <pt x="349" y="-120" on="1"/>
        <pt x="368" y="-120" on="0"/>
        <pt x="404" y="-87" on="0"/>
        <pt x="414" y="-60" on="1"/>
        <pt x="402" y="-50" on="0"/>
        <pt x="372" y="-40" on="0"/>
        <pt x="354" y="-40" on="1"/>
        <pt x="333" y="-40" on="0"/>
        <pt x="304" y="-63" on="0"/>
        <pt x="304" y="-80" on="1"/>
        <pt x="304" y="-97" on="0"/>
        <pt x="330" y="-120" on="0"/>
        <pt x="349" y="-120" on="1"/>
      </contour>
    </TTGlyph>
    <TTGlyph name="glyph395" xMin="-10" yMin="-310" xMax="705" yMax="750">
      <contour>
        <pt x="-10" y="465" on="1"/>
        <pt x="-10" y="500" on="1"/>
        <pt x="520" y="500" on="1"/>
        <pt x="539" y="513" on="0"/>
        <pt x="560" y="548" on="0"/>
        <pt x="560" y="565" on="1"/>
        <pt x="560" y="592" on="0"/>
        <pt x="516" y="630" on="0"/>
        <pt x="485" y="630" on="1"/>
        <pt x="454" y="630" on="0"/>
        <pt x="336" y="600" on="0"/>
        <pt x="305" y="600" on="1"/>
        <pt x="270" y="600" on="0"/>
        <pt x="220" y="649" on="0"/>
        <pt x="220" y="684" on="1"/>
        <pt x="220" y="701" on="0"/>
        <pt x="238" y="736" on="0"/>
        <pt x="255" y="750" on="1"/>
        <pt x="284" y="730" on="1"/>
        <pt x="272" y="717" on="0"/>
        <pt x="260" y="693" on="0"/>
        <pt x="260" y="683" on="1"/>
        <pt x="260" y="665" on="0"/>
        <pt x="286" y="640" on="0"/>
        <pt x="305" y="640" on="1"/>
        <pt x="336" y="640" on="0"/>
        <pt x="454" y="670" on="0"/>
        <pt x="485" y="670" on="1"/>
        <pt x="533" y="670" on="0"/>
        <pt x="600" y="609" on="0"/>
        <pt x="600" y="566" on="1"/>
        <pt x="600" y="551" on="0"/>
        <pt x="585" y="517" on="0"/>
        <pt x="570" y="500" on="1"/>
        <pt x="698" y="500" on="1"/>
        <pt x="698" y="465" on="1"/>
        <pt x="400" y="465" on="1"/>
        <pt x="400" y="135" on="1"/>
        <pt x="400" y="114" on="0"/>
        <pt x="435" y="85" on="0"/>
        <pt x="460" y="85" on="1"/>
        <pt x="500" y="85" on="0"/>
        <pt x="600" y="188" on="0"/>
        <pt x="600" y="230" on="1"/>
        <pt x="596" y="229" on="0"/>
        <pt x="587" y="227" on="0"/>
        <pt x="582" y="227" on="1"/>
        <pt x="558" y="227" on="0"/>
        <pt x="525" y="255" on="0"/>
        <pt x="525" y="275" on="1"/>
        <pt x="525" y="298" on="0"/>
        <pt x="558" y="330" on="0"/>
        <pt x="582" y="330" on="1"/>
        <pt x="608" y="330" on="0"/>
        <pt x="645" y="289" on="0"/>
        <pt x="645" y="260" on="1"/>
        <pt x="645" y="220" on="0"/>
        <pt x="614" y="145" on="0"/>
        <pt x="585" y="115" on="1"/>
        <pt x="585" y="-97" on="1"/>
        <pt x="585" y="-107" on="0"/>
        <pt x="580" y="-131" on="0"/>
        <pt x="575" y="-145" on="1"/>
        <pt x="613" y="-172" on="0"/>
        <pt x="679" y="-245" on="0"/>
        <pt x="705" y="-290" on="1"/>
        <pt x="670" y="-310" on="1"/>
        <pt x="643" y="-264" on="0"/>
        <pt x="588" y="-197" on="0"/>
        <pt x="561" y="-178" on="1"/>
        <pt x="545" y="-211" on="0"/>
        <pt x="493" y="-250" on="0"/>
        <pt x="465" y="-250" on="1"/>
        <pt x="430" y="-250" on="0"/>
        <pt x="380" y="-206" on="0"/>
        <pt x="380" y="-175" on="1"/>
        <pt x="380" y="-142" on="0"/>
        <pt x="433" y="-95" on="0"/>
        <pt x="470" y="-95" on="1"/>
        <pt x="490" y="-95" on="0"/>
        <pt x="527" y="-108" on="0"/>
        <pt x="541" y="-120" on="1"/>
        <pt x="544" y="-101" on="1"/>
        <pt x="535" y="-82" on="0"/>
        <pt x="487" y="-60" on="0"/>
        <pt x="455" y="-60" on="1"/>
        <pt x="423" y="-60" on="0"/>
        <pt x="302" y="-100" on="0"/>
        <pt x="270" y="-100" on="1"/>
        <pt x="237" y="-100" on="0"/>
        <pt x="190" y="-44" on="0"/>
        <pt x="190" y="-5" on="1"/>
        <pt x="230" y="-5" on="1"/>
        <pt x="230" y="-28" on="0"/>
        <pt x="253" y="-60" on="0"/>
        <pt x="270" y="-60" on="1"/>
        <pt x="302" y="-60" on="0"/>
        <pt x="423" y="-20" on="0"/>
        <pt x="455" y="-20" on="1"/>
        <pt x="486" y="-20" on="0"/>
        <pt x="533" y="-36" on="0"/>
        <pt x="545" y="-50" on="1"/>
        <pt x="545" y="80" on="1"/>
        <pt x="522" y="63" on="0"/>
        <pt x="478" y="45" on="0"/>
        <pt x="460" y="45" on="1"/>
        <pt x="419" y="45" on="0"/>
        <pt x="360" y="98" on="0"/>
        <pt x="360" y="135" on="1"/>
        <pt x="360" y="250" on="1"/>
        <pt x="360" y="275" on="0"/>
        <pt x="319" y="310" on="0"/>
        <pt x="290" y="310" on="1"/>
        <pt x="261" y="310" on="0"/>
        <pt x="213" y="271" on="0"/>
        <pt x="205" y="240" on="1"/>
        <pt x="198" y="201" on="0"/>
        <pt x="144" y="150" on="0"/>
        <pt x="109" y="150" on="1"/>
        <pt x="80" y="150" on="0"/>
        <pt x="28" y="194" on="0"/>
        <pt x="15" y="230" on="1"/>
        <pt x="50" y="250" on="1"/>
        <pt x="57" y="223" on="0"/>
        <pt x="91" y="190" on="0"/>
        <pt x="110" y="190" on="1"/>
        <pt x="128" y="190" on="0"/>
        <pt x="158" y="221" on="0"/>
        <pt x="165" y="245" on="1"/>
        <pt x="171" y="268" on="0"/>
        <pt x="192" y="304" on="0"/>
        <pt x="205" y="315" on="1"/>
        <pt x="186" y="368" on="0"/>
        <pt x="129" y="445" on="0"/>
        <pt x="95" y="465" on="1"/>
        <pt x="-10" y="465" on="1"/>
      </contour>
      <contour>
        <pt x="290" y="350" on="1"/>
        <pt x="309" y="350" on="0"/>
        <pt x="346" y="334" on="0"/>
        <pt x="360" y="320" on="1"/>
        <pt x="360" y="465" on="1"/>
        <pt x="155" y="465" on="1"/>
        <pt x="181" y="447" on="0"/>
        <pt x="224" y="383" on="0"/>
        <pt x="240" y="340" on="1"/>
        <pt x="251" y="345" on="0"/>
        <pt x="276" y="350" on="0"/>
        <pt x="290" y="350" on="1"/>
      </contour>
      <contour>
        <pt x="465" y="-215" on="1"/>
        <pt x="484" y="-215" on="0"/>
        <pt x="520" y="-182" on="0"/>
        <pt x="530" y="-155" on="1"/>
        <pt x="518" y="-145" on="0"/>
        <pt x="488" y="-135" on="0"/>
        <pt x="470" y="-135" on="1"/>
        <pt x="449" y="-135" on="0"/>
        <pt x="420" y="-158" on="0"/>
        <pt x="420" y="-175" on="1"/>
        <pt x="420" y="-192" on="0"/>
        <pt x="446" y="-215" on="0"/>
        <pt x="465" y="-215" on="1"/>
      </contour>
    </TTGlyph>
    <TTGlyph name="glyph404" xMin="-10" yMin="-213" xMax="914" yMax="560">
      <contour>
        <pt x="-10" y="465" on="1"/>
        <pt x="-10" y="500" on="1"/>
        <pt x="334" y="500" on="1"/>
        <pt x="371" y="500" on="0"/>
        <pt x="424" y="447" on="0"/>
        <pt x="424" y="410" on="1"/>
        <pt x="464" y="458" on="0"/>
        <pt x="566" y="510" on="0"/>
        <pt x="618" y="510" on="1"/>
        <pt x="652" y="510" on="0"/>
        <pt x="722" y="482" on="0"/>
        <pt x="754" y="455" on="1"/>
        <pt x="754" y="560" on="1"/>
        <pt x="794" y="560" on="1"/>
        <pt x="794" y="500" on="1"/>
        <pt x="894" y="500" on="1"/>
        <pt x="894" y="465" on="1"/>
        <pt x="794" y="465" on="1"/>
        <pt x="794" y="0" on="1"/>
        <pt x="794" y="-11" on="0"/>
        <pt x="789" y="-36" on="0"/>
        <pt x="784" y="-50" on="1"/>
        <pt x="822" y="-77" on="0"/>
        <pt x="888" y="-150" on="0"/>
        <pt x="914" y="-195" on="1"/>
        <pt x="879" y="-213" on="1"/>
        <pt x="853" y="-168" on="0"/>
        <pt x="798" y="-103" on="0"/>
        <pt x="770" y="-83" on="1"/>
        <pt x="755" y="-116" on="0"/>
        <pt x="703" y="-155" on="0"/>
        <pt x="674" y="-155" on="1"/>
        <pt x="639" y="-155" on="0"/>
        <pt x="589" y="-111" on="0"/>
        <pt x="589" y="-80" on="1"/>
        <pt x="589" y="-47" on="0"/>
        <pt x="642" y="0" on="0"/>
        <pt x="679" y="0" on="1"/>
        <pt x="694" y="0" on="0"/>
        <pt x="730" y="-13" on="0"/>
        <pt x="749" y="-25" on="1"/>
        <pt x="755" y="8" on="1"/>
        <pt x="747" y="36" on="0"/>
        <pt x="697" y="70" on="0"/>
        <pt x="664" y="70" on="1"/>
        <pt x="613" y="70" on="0"/>
        <pt x="420" y="0" on="0"/>
        <pt x="369" y="0" on="1"/>
        <pt x="313" y="0" on="0"/>
        <pt x="234" y="91" on="0"/>
        <pt x="234" y="155" on="1"/>
        <pt x="274" y="160" on="1"/>
        <pt x="274" y="110" on="0"/>
        <pt x="330" y="40" on="0"/>
        <pt x="369" y="40" on="1"/>
        <pt x="420" y="40" on="0"/>
        <pt x="613" y="110" on="0"/>
        <pt x="664" y="110" on="1"/>
        <pt x="690" y="110" on="0"/>
        <pt x="737" y="92" on="0"/>
        <pt x="754" y="75" on="1"/>
        <pt x="754" y="374" on="1"/>
        <pt x="754" y="385" on="0"/>
        <pt x="741" y="400" on="0"/>
        <pt x="731" y="400" on="1"/>
        <pt x="692" y="400" on="0"/>
        <pt x="588" y="315" on="0"/>
        <pt x="535" y="240" on="1"/>
        <pt x="504" y="260" on="1"/>
        <pt x="534" y="305" on="1"/>
        <pt x="544" y="332" on="0"/>
        <pt x="496" y="380" on="0"/>
        <pt x="459" y="380" on="1"/>
        <pt x="449" y="380" on="0"/>
        <pt x="424" y="350" on="0"/>
        <pt x="414" y="350" on="1"/>
        <pt x="411" y="350" on="0"/>
        <pt x="403" y="355" on="0"/>
        <pt x="399" y="360" on="1"/>
        <pt x="385" y="346" on="0"/>
        <pt x="348" y="330" on="0"/>
        <pt x="329" y="330" on="1"/>
        <pt x="300" y="330" on="0"/>
        <pt x="237" y="367" on="0"/>
        <pt x="209" y="400" on="1"/>
        <pt x="209" y="359" on="0"/>
        <pt x="147" y="300" on="0"/>
        <pt x="104" y="300" on="1"/>
        <pt x="71" y="300" on="0"/>
        <pt x="20" y="345" on="0"/>
        <pt x="14" y="380" on="1"/>
        <pt x="49" y="390" on="1"/>
        <pt x="60" y="367" on="0"/>
        <pt x="90" y="340" on="0"/>
        <pt x="104" y="340" on="1"/>
        <pt x="131" y="340" on="0"/>
        <pt x="169" y="378" on="0"/>
        <pt x="169" y="405" on="1"/>
        <pt x="169" y="423" on="0"/>
        <pt x="159" y="453" on="0"/>
        <pt x="149" y="465" on="1"/>
        <pt x="-10" y="465" on="1"/>
      </contour>
      <contour>
        <pt x="568" y="340" on="1"/>
        <pt x="608" y="387" on="0"/>
        <pt x="685" y="438" on="0"/>
        <pt x="714" y="435" on="1"/>
        <pt x="694" y="452" on="0"/>
        <pt x="644" y="470" on="0"/>
        <pt x="618" y="470" on="1"/>
        <pt x="582" y="470" on="0"/>
        <pt x="513" y="439" on="0"/>
        <pt x="484" y="410" on="1"/>
        <pt x="519" y="410" on="0"/>
        <pt x="568" y="369" on="0"/>
        <pt x="568" y="340" on="1"/>
      </contour>
      <contour>
        <pt x="329" y="370" on="1"/>
        <pt x="350" y="370" on="0"/>
        <pt x="379" y="399" on="0"/>
        <pt x="379" y="420" on="1"/>
        <pt x="379" y="439" on="0"/>
        <pt x="353" y="465" on="0"/>
        <pt x="334" y="465" on="1"/>
        <pt x="214" y="465" on="1"/>
        <pt x="234" y="422" on="0"/>
        <pt x="297" y="370" on="0"/>
        <pt x="329" y="370" on="1"/>
      </contour>
      <contour>
        <pt x="674" y="-120" on="1"/>
        <pt x="693" y="-120" on="0"/>
        <pt x="729" y="-87" on="0"/>
        <pt x="739" y="-60" on="1"/>
        <pt x="727" y="-50" on="0"/>
        <pt x="697" y="-40" on="0"/>
        <pt x="679" y="-40" on="1"/>
        <pt x="658" y="-40" on="0"/>
        <pt x="629" y="-63" on="0"/>
        <pt x="629" y="-80" on="1"/>
        <pt x="629" y="-97" on="0"/>
        <pt x="655" y="-120" on="0"/>
        <pt x="674" y="-120" on="1"/>
      </contour>
    </TTGlyph>
    <TTGlyph name="glyph430" xMin="-10" yMin="0" xMax="577" yMax="759">
      <contour>
        <pt x="-10" y="465" on="1"/>
        <pt x="-10" y="500" on="1"/>
        <pt x="90" y="500" on="1"/>
        <pt x="71" y="519" on="0"/>
        <pt x="50" y="571" on="0"/>
        <pt x="50" y="600" on="1"/>
        <pt x="50" y="648" on="0"/>
        <pt x="126" y="715" on="0"/>
        <pt x="180" y="715" on="1"/>
        <pt x="226" y="715" on="0"/>
        <pt x="332" y="638" on="0"/>
        <pt x="380" y="570" on="1"/>
        <pt x="345" y="550" on="1"/>
        <pt x="304" y="609" on="0"/>
        <pt x="216" y="675" on="0"/>
        <pt x="180" y="675" on="1"/>
        <pt x="143" y="675" on="0"/>
        <pt x="90" y="631" on="0"/>
        <pt x="90" y="600" on="1"/>
        <pt x="90" y="570" on="0"/>
        <pt x="114" y="518" on="0"/>
        <pt x="135" y="500" on="1"/>
        <pt x="230" y="500" on="1"/>
        <pt x="230" y="465" on="1"/>
        <pt x="130" y="465" on="1"/>
        <pt x="130" y="0" on="1"/>
        <pt x="90" y="0" on="1"/>
        <pt x="90" y="465" on="1"/>
        <pt x="-10" y="465" on="1"/>
      </contour>
      <contour>
        <pt x="464" y="601" on="1"/>
        <pt x="421" y="601" on="0"/>
        <pt x="356" y="671" on="0"/>
        <pt x="351" y="723" on="1"/>
        <pt x="392" y="727" on="1"/>
        <pt x="399" y="689" on="0"/>
        <pt x="439" y="639" on="0"/>
        <pt x="464" y="639" on="1"/>
        <pt x="489" y="639" on="0"/>
        <pt x="530" y="689" on="0"/>
        <pt x="536" y="727" on="1"/>
        <pt x="577" y="723" on="1"/>
        <pt x="572" y="671" on="0"/>
        <pt x="507" y="601" on="0"/>
        <pt x="464" y="601" on="1"/>
      </contour>
      <contour>
        <pt x="464" y="696" on="1"/>
        <pt x="449" y="696" on="0"/>
        <pt x="428" y="713" on="0"/>
        <pt x="428" y="725" on="1"/>
        <pt x="428" y="739" on="0"/>
        <pt x="450" y="759" on="0"/>
        <pt x="466" y="759" on="1"/>
        <pt x="480" y="759" on="0"/>
        <pt x="500" y="740" on="0"/>
        <pt x="500" y="727" on="1"/>
        <pt x="500" y="714" on="0"/>
        <pt x="479" y="696" on="0"/>
        <pt x="464" y="696" on="1"/>
      </contour>
    </TTGlyph>
    <TTGlyph name="glyph437" xMin="-485" yMin="-120" xMax="-90" yMax="130">
      <contour>
        <pt x="-130" y="-120" on="1"/>
        <pt x="-135" y="-100" on="0"/>
        <pt x="-186" y="-75" on="0"/>
        <pt x="-220" y="-75" on="1"/>
        <pt x="-252" y="-75" on="0"/>
        <pt x="-373" y="-115" on="0"/>
        <pt x="-405" y="-115" on="1"/>
        <pt x="-438" y="-115" on="0"/>
        <pt x="-485" y="-59" on="0"/>
        <pt x="-485" y="-20" on="1"/>
        <pt x="-450" y="-20" on="1"/>
        <pt x="-450" y="-43" on="0"/>
        <pt x="-424" y="-75" on="0"/>
        <pt x="-405" y="-75" on="1"/>
        <pt x="-373" y="-75" on="0"/>
        <pt x="-252" y="-35" on="0"/>
        <pt x="-220" y="-35" on="1"/>
        <pt x="-188" y="-35" on="0"/>
        <pt x="-139" y="-54" on="0"/>
        <pt x="-130" y="-70" on="1"/>
        <pt x="-130" y="100" on="1"/>
        <pt x="-90" y="130" on="1"/>
        <pt x="-90" y="-120" on="1"/>
        <pt x="-130" y="-120" on="1"/>
      </contour>
    </TTGlyph>
    <TTGlyph name="glyph438" xMin="240" yMin="0" xMax="650" yMax="500">
      <contour>
        <pt x="240" y="0" on="1"/>
        <pt x="240" y="500" on="1"/>
        <pt x="280" y="500" on="1"/>
        <pt x="280" y="0" on="1"/>
        <pt x="240" y="0" on="1"/>
      </contour>
      <contour>
        <pt x="610" y="0" on="1"/>
        <pt x="610" y="500" on="1"/>
        <pt x="650" y="500" on="1"/>
        <pt x="650" y="0" on="1"/>
        <pt x="610" y="0" on="1"/>
      </contour>
    </TTGlyph>
    <TTGlyph name="glyph454" xMin="-10" yMin="-254" xMax="586" yMax="500">
      <contour>
        <pt x="316" y="-10" on="1"/>
        <pt x="200" y="-10" on="0"/>
        <pt x="118" y="89" on="1"/>
        <pt x="36" y="189" on="0"/>
        <pt x="36" y="329" on="1"/>
        <pt x="76" y="334" on="1"/>
        <pt x="76" y="207" on="0"/>
        <pt x="146" y="116" on="1"/>
        <pt x="217" y="25" on="0"/>
        <pt x="316" y="25" on="1"/>
        <pt x="388" y="25" on="0"/>
        <pt x="440" y="75" on="1"/>
        <pt x="490" y="124" on="0"/>
        <pt x="490" y="195" on="1"/>
        <pt x="490" y="250" on="0"/>
        <pt x="449" y="290" on="1"/>
        <pt x="409" y="329" on="0"/>
        <pt x="350" y="329" on="1"/>
        <pt x="320" y="329" on="0"/>
        <pt x="298" y="316" on="1"/>
        <pt x="278" y="304" on="0"/>
        <pt x="276" y="285" on="1"/>
        <pt x="280" y="286" on="0"/>
        <pt x="285" y="286" on="1"/>
        <pt x="290" y="288" on="0"/>
        <pt x="295" y="288" on="1"/>
        <pt x="316" y="288" on="0"/>
        <pt x="346" y="260" on="0"/>
        <pt x="346" y="240" on="1"/>
        <pt x="346" y="219" on="0"/>
        <pt x="329" y="204" on="1"/>
        <pt x="314" y="190" on="0"/>
        <pt x="290" y="190" on="1"/>
        <pt x="264" y="190" on="0"/>
        <pt x="244" y="210" on="1"/>
        <pt x="226" y="231" on="0"/>
        <pt x="226" y="260" on="1"/>
        <pt x="226" y="305" on="0"/>
        <pt x="262" y="338" on="1"/>
        <pt x="298" y="370" on="0"/>
        <pt x="350" y="370" on="1"/>
        <pt x="425" y="370" on="0"/>
        <pt x="478" y="317" on="1"/>
        <pt x="530" y="267" on="0"/>
        <pt x="530" y="195" on="1"/>
        <pt x="530" y="110" on="0"/>
        <pt x="404" y="-10" on="0"/>
        <pt x="316" y="-10" on="1"/>
      </contour>
      <contour>
        <pt x="-10" y="464" on="1"/>
        <pt x="-10" y="500" on="1"/>
        <pt x="586" y="500" on="1"/>
        <pt x="586" y="464" on="1"/>
        <pt x="-10" y="464" on="1"/>
      </contour>
      <contour>
        <pt x="502" y="-254" on="1"/>
        <pt x="284" y="-49" on="1"/>
        <pt x="313" y="-19" on="1"/>
        <pt x="532" y="-224" on="1"/>
        <pt x="502" y="-254" on="1"/>
      </contour>
    </TTGlyph>
    <TTGlyph name="glyph475" xMin="2" yMin="-254" xMax="633" yMax="500">
      <contour>
        <pt x="384" y="0" on="1"/>
        <pt x="376" y="46" on="0"/>
        <pt x="306" y="121" on="0"/>
        <pt x="254" y="140" on="1"/>
        <pt x="252" y="119" on="0"/>
        <pt x="220" y="90" on="0"/>
        <pt x="199" y="90" on="1"/>
        <pt x="176" y="90" on="0"/>
        <pt x="144" y="116" on="0"/>
        <pt x="144" y="135" on="1"/>
        <pt x="144" y="156" on="0"/>
        <pt x="176" y="186" on="0"/>
        <pt x="199" y="186" on="1"/>
        <pt x="219" y="185" on="1"/>
        <pt x="227" y="231" on="0"/>
        <pt x="177" y="307" on="0"/>
        <pt x="134" y="315" on="1"/>
        <pt x="134" y="288" on="0"/>
        <pt x="102" y="250" on="0"/>
        <pt x="79" y="250" on="1"/>
        <pt x="56" y="250" on="0"/>
        <pt x="24" y="276" on="0"/>
        <pt x="24" y="295" on="1"/>
        <pt x="24" y="318" on="0"/>
        <pt x="58" y="351" on="0"/>
        <pt x="82" y="351" on="1"/>
        <pt x="94" y="350" on="1"/>
        <pt x="94" y="386" on="0"/>
        <pt x="59" y="448" on="0"/>
        <pt x="29" y="465" on="1"/>
        <pt x="2" y="465" on="1"/>
        <pt x="2" y="500" on="1"/>
        <pt x="633" y="500" on="1"/>
        <pt x="633" y="465" on="1"/>
        <pt x="424" y="465" on="1"/>
        <pt x="424" y="335" on="1"/>
        <pt x="494" y="335" on="0"/>
        <pt x="594" y="268" on="0"/>
        <pt x="594" y="220" on="1"/>
        <pt x="594" y="185" on="0"/>
        <pt x="553" y="135" on="0"/>
        <pt x="524" y="135" on="1"/>
        <pt x="501" y="135" on="0"/>
        <pt x="469" y="161" on="0"/>
        <pt x="469" y="180" on="1"/>
        <pt x="469" y="199" on="0"/>
        <pt x="498" y="225" on="0"/>
        <pt x="519" y="225" on="1"/>
        <pt x="527" y="225" on="0"/>
        <pt x="543" y="217" on="0"/>
        <pt x="549" y="210" on="1"/>
        <pt x="565" y="238" on="0"/>
        <pt x="482" y="295" on="0"/>
        <pt x="424" y="295" on="1"/>
        <pt x="424" y="0" on="1"/>
        <pt x="384" y="0" on="1"/>
      </contour>
      <contour>
        <pt x="384" y="90" on="1"/>
        <pt x="384" y="295" on="1"/>
        <pt x="312" y="295" on="0"/>
        <pt x="209" y="395" on="0"/>
        <pt x="209" y="465" on="1"/>
        <pt x="84" y="465" on="1"/>
        <pt x="108" y="449" on="0"/>
        <pt x="134" y="388" on="0"/>
        <pt x="134" y="350" on="1"/>
        <pt x="196" y="345" on="0"/>
        <pt x="270" y="240" on="0"/>
        <pt x="259" y="175" on="1"/>
        <pt x="299" y="168" on="0"/>
        <pt x="365" y="123" on="0"/>
        <pt x="384" y="90" on="1"/>
      </contour>
      <contour>
        <pt x="384" y="335" on="1"/>
        <pt x="384" y="465" on="1"/>
        <pt x="249" y="465" on="1"/>
        <pt x="249" y="411" on="0"/>
        <pt x="328" y="335" on="0"/>
        <pt x="384" y="335" on="1"/>
      </contour>
      <contour>
        <pt x="595" y="-254" on="1"/>
        <pt x="376" y="-49" on="1"/>
        <pt x="405" y="-19" on="1"/>
        <pt x="625" y="-224" on="1"/>
        <pt x="595" y="-254" on="1"/>
      </contour>
    </TTGlyph>
    <TTGlyph name="grave" xMin="90" yMin="499" xMax="196" yMax="657">
      <contour>
        <pt x="196" y="499" on="1"/>
        <pt x="159" y="499" on="1"/>
        <pt x="90" y="657" on="1"/>
        <pt x="155" y="657" on="1"/>
        <pt x="196" y="499" on="1"/>
      </contour>
    </TTGlyph>
    <TTGlyph name="greater" xMin="90" yMin="14" xMax="437" yMax="484">
      <contour>
        <pt x="437" y="218" on="1"/>
        <pt x="90" y="14" on="1"/>
        <pt x="90" y="70" on="1"/>
        <pt x="388" y="250" on="1"/>
        <pt x="90" y="430" on="1"/>
        <pt x="90" y="484" on="1"/>
        <pt x="437" y="277" on="1"/>
        <pt x="437" y="218" on="1"/>
      </contour>
    </TTGlyph>
    <TTGlyph name="hyphen" xMin="90" yMin="240" xMax="320" yMax="275">
      <contour>
        <pt x="90" y="240" on="1"/>
        <pt x="90" y="275" on="1"/>
        <pt x="320" y="275" on="1"/>
        <pt x="320" y="240" on="1"/>
        <pt x="90" y="240" on="1"/>
      </contour>
    </TTGlyph>
    <TTGlyph name="less" xMin="90" yMin="14" xMax="437" yMax="484">
      <contour>
        <pt x="90" y="218" on="1"/>
        <pt x="90" y="277" on="1"/>
        <pt x="437" y="484" on="1"/>
        <pt x="437" y="430" on="1"/>
        <pt x="139" y="250" on="1"/>
        <pt x="437" y="70" on="1"/>
        <pt x="437" y="14" on="1"/>
        <pt x="90" y="218" on="1"/>
      </contour>
    </TTGlyph>
    <TTGlyph name="minus" xMin="7" yMin="240" xMax="237" yMax="275">
      <contour>
        <pt x="7" y="240" on="1"/>
        <pt x="7" y="275" on="1"/>
        <pt x="237" y="275" on="1"/>
        <pt x="237" y="240" on="1"/>
        <pt x="7" y="240" on="1"/>
      </contour>
    </TTGlyph>
    <TTGlyph name="multiply" xMin="90" yMin="32" xMax="431" yMax="373">
      <contour>
        <pt x="90" y="333" on="1"/>
        <pt x="129" y="373" on="1"/>
        <pt x="260" y="242" on="1"/>
        <pt x="391" y="373" on="1"/>
        <pt x="431" y="333" on="1"/>
        <pt x="299" y="203" on="1"/>
        <pt x="431" y="71" on="1"/>
        <pt x="391" y="32" on="1"/>
        <pt x="260" y="163" on="1"/>
        <pt x="129" y="32" on="1"/>
        <pt x="90" y="71" on="1"/>
        <pt x="221" y="203" on="1"/>
        <pt x="90" y="333" on="1"/>
      </contour>
    </TTGlyph>
    <TTGlyph name="nine" xMin="47" yMin="-6" xMax="379" yMax="519">
      <contour>
        <pt x="207" y="-6" on="1"/>
        <pt x="152" y="-6" on="0"/>
        <pt x="69" y="57" on="0"/>
        <pt x="60" y="106" on="1"/>
        <pt x="98" y="106" on="1"/>
        <pt x="104" y="71" on="0"/>
        <pt x="166" y="25" on="0"/>
        <pt x="207" y="25" on="1"/>
        <pt x="262" y="25" on="0"/>
        <pt x="341" y="144" on="0"/>
        <pt x="341" y="227" on="1"/>
        <pt x="341" y="273" on="1"/>
        <pt x="327" y="234" on="0"/>
        <pt x="256" y="186" on="0"/>
        <pt x="213" y="186" on="1"/>
        <pt x="138" y="186" on="0"/>
        <pt x="47" y="277" on="0"/>
        <pt x="47" y="352" on="1"/>
        <pt x="47" y="428" on="0"/>
        <pt x="138" y="519" on="0"/>
        <pt x="213" y="519" on="1"/>
        <pt x="292" y="519" on="0"/>
        <pt x="379" y="386" on="0"/>
        <pt x="379" y="266" on="1"/>
        <pt x="379" y="137" on="0"/>
        <pt x="289" y="-6" on="0"/>
        <pt x="207" y="-6" on="1"/>
      </contour>
      <contour>
        <pt x="210" y="224" on="1"/>
        <pt x="259" y="224" on="0"/>
        <pt x="328" y="299" on="0"/>
        <pt x="328" y="352" on="1"/>
        <pt x="328" y="405" on="0"/>
        <pt x="259" y="480" on="0"/>
        <pt x="210" y="480" on="1"/>
        <pt x="153" y="480" on="0"/>
        <pt x="85" y="410" on="0"/>
        <pt x="85" y="352" on="1"/>
        <pt x="85" y="294" on="0"/>
        <pt x="153" y="224" on="0"/>
        <pt x="210" y="224" on="1"/>
      </contour>
    </TTGlyph>
    <TTGlyph name="numbersign" xMin="90" yMin="-1" xMax="642" yMax="502">
      <contour>
        <pt x="140" y="338" on="1"/>
        <pt x="140" y="384" on="1"/>
        <pt x="285" y="384" on="1"/>
        <pt x="322" y="502" on="1"/>
        <pt x="368" y="502" on="1"/>
        <pt x="331" y="384" on="1"/>
        <pt x="485" y="384" on="1"/>
        <pt x="522" y="502" on="1"/>
        <pt x="569" y="502" on="1"/>
        <pt x="532" y="384" on="1"/>
        <pt x="642" y="384" on="1"/>
        <pt x="642" y="338" on="1"/>
        <pt x="516" y="338" on="1"/>
        <pt x="466" y="184" on="1"/>
        <pt x="592" y="184" on="1"/>
        <pt x="592" y="136" on="1"/>
        <pt x="451" y="136" on="1"/>
        <pt x="408" y="-1" on="1"/>
        <pt x="361" y="-1" on="1"/>
        <pt x="405" y="136" on="1"/>
        <pt x="251" y="136" on="1"/>
        <pt x="207" y="-1" on="1"/>
        <pt x="161" y="-1" on="1"/>
        <pt x="205" y="136" on="1"/>
        <pt x="90" y="136" on="1"/>
        <pt x="90" y="184" on="1"/>
        <pt x="219" y="184" on="1"/>
        <pt x="269" y="338" on="1"/>
        <pt x="140" y="338" on="1"/>
      </contour>
      <contour>
        <pt x="470" y="338" on="1"/>
        <pt x="316" y="338" on="1"/>
        <pt x="265" y="184" on="1"/>
        <pt x="420" y="184" on="1"/>
        <pt x="470" y="338" on="1"/>
      </contour>
    </TTGlyph>
    <TTGlyph name="one" xMin="136" yMin="0" xMax="289" yMax="519">
      <contour>
        <pt x="251" y="0" on="1"/>
        <pt x="251" y="394" on="1"/>
        <pt x="136" y="394" on="1"/>
        <pt x="136" y="422" on="1"/>
        <pt x="163" y="422" on="1"/>
        <pt x="200" y="422" on="0"/>
        <pt x="258" y="477" on="0"/>
        <pt x="265" y="519" on="1"/>
        <pt x="289" y="519" on="1"/>
        <pt x="289" y="0" on="1"/>
        <pt x="251" y="0" on="1"/>
      </contour>
    </TTGlyph>
    <TTGlyph name="parenleft" xMin="90" yMin="-210" xMax="350" yMax="710">
      <contour>
        <pt x="330" y="-210" on="1"/>
        <pt x="219" y="-146" on="0"/>
        <pt x="90" y="101" on="0"/>
        <pt x="90" y="250" on="1"/>
        <pt x="90" y="399" on="0"/>
        <pt x="219" y="646" on="0"/>
        <pt x="330" y="710" on="1"/>
        <pt x="350" y="680" on="1"/>
        <pt x="248" y="621" on="0"/>
        <pt x="130" y="391" on="0"/>
        <pt x="130" y="250" on="1"/>
        <pt x="130" y="109" on="0"/>
        <pt x="248" y="-121" on="0"/>
        <pt x="350" y="-180" on="1"/>
        <pt x="330" y="-210" on="1"/>
      </contour>
    </TTGlyph>
    <TTGlyph name="parenright" xMin="90" yMin="-210" xMax="350" yMax="710">
      <contour>
        <pt x="110" y="-210" on="1"/>
        <pt x="90" y="-180" on="1"/>
        <pt x="192" y="-121" on="0"/>
        <pt x="310" y="109" on="0"/>
        <pt x="310" y="250" on="1"/>
        <pt x="310" y="391" on="0"/>
        <pt x="192" y="621" on="0"/>
        <pt x="90" y="680" on="1"/>
        <pt x="110" y="710" on="1"/>
        <pt x="221" y="646" on="0"/>
        <pt x="350" y="399" on="0"/>
        <pt x="350" y="250" on="1"/>
        <pt x="350" y="101" on="0"/>
        <pt x="221" y="-146" on="0"/>
        <pt x="110" y="-210" on="1"/>
      </contour>
    </TTGlyph>
    <TTGlyph name="percent" xMin="90" yMin="-10" xMax="621" yMax="510">
      <contour>
        <pt x="155" y="0" on="1"/>
        <pt x="105" y="0" on="1"/>
        <pt x="565" y="500" on="1"/>
        <pt x="620" y="500" on="1"/>
        <pt x="155" y="0" on="1"/>
      </contour>
      <contour>
        <pt x="506" y="-10" on="1"/>
        <pt x="458" y="-10" on="0"/>
        <pt x="391" y="73" on="0"/>
        <pt x="391" y="132" on="1"/>
        <pt x="391" y="191" on="0"/>
        <pt x="458" y="275" on="0"/>
        <pt x="506" y="275" on="1"/>
        <pt x="554" y="275" on="0"/>
        <pt x="621" y="191" on="0"/>
        <pt x="621" y="132" on="1"/>
        <pt x="621" y="73" on="0"/>
        <pt x="554" y="-10" on="0"/>
        <pt x="506" y="-10" on="1"/>
      </contour>
      <contour>
        <pt x="506" y="30" on="1"/>
        <pt x="537" y="30" on="0"/>
        <pt x="581" y="90" on="0"/>
        <pt x="581" y="132" on="1"/>
        <pt x="581" y="175" on="0"/>
        <pt x="537" y="235" on="0"/>
        <pt x="506" y="235" on="1"/>
        <pt x="475" y="235" on="0"/>
        <pt x="431" y="175" on="0"/>
        <pt x="431" y="132" on="1"/>
        <pt x="431" y="90" on="0"/>
        <pt x="475" y="30" on="0"/>
        <pt x="506" y="30" on="1"/>
      </contour>
      <contour>
        <pt x="210" y="230" on="1"/>
        <pt x="160" y="230" on="0"/>
        <pt x="90" y="312" on="0"/>
        <pt x="90" y="370" on="1"/>
        <pt x="90" y="428" on="0"/>
        <pt x="160" y="510" on="0"/>
        <pt x="210" y="510" on="1"/>
        <pt x="260" y="510" on="0"/>
        <pt x="330" y="428" on="0"/>
        <pt x="330" y="370" on="1"/>
        <pt x="330" y="312" on="0"/>
        <pt x="260" y="230" on="0"/>
        <pt x="210" y="230" on="1"/>
      </contour>
      <contour>
        <pt x="207" y="270" on="1"/>
        <pt x="239" y="270" on="0"/>
        <pt x="285" y="329" on="0"/>
        <pt x="285" y="370" on="1"/>
        <pt x="285" y="411" on="0"/>
        <pt x="241" y="470" on="0"/>
        <pt x="210" y="470" on="1"/>
        <pt x="177" y="470" on="0"/>
        <pt x="130" y="411" on="0"/>
        <pt x="130" y="370" on="1"/>
        <pt x="130" y="329" on="0"/>
        <pt x="175" y="270" on="0"/>
        <pt x="207" y="270" on="1"/>
      </contour>
    </TTGlyph>
    <TTGlyph name="period" xMin="90" yMin="0" xMax="180" yMax="95">
      <contour>
        <pt x="135" y="0" on="1"/>
        <pt x="116" y="0" on="0"/>
        <pt x="90" y="28" on="0"/>
        <pt x="90" y="47" on="1"/>
        <pt x="90" y="67" on="0"/>
        <pt x="116" y="95" on="0"/>
        <pt x="135" y="95" on="1"/>
        <pt x="154" y="95" on="0"/>
        <pt x="180" y="67" on="0"/>
        <pt x="180" y="47" on="1"/>
        <pt x="180" y="28" on="0"/>
        <pt x="154" y="0" on="0"/>
        <pt x="135" y="0" on="1"/>
      </contour>
    </TTGlyph>
    <TTGlyph name="plus" xMin="90" yMin="50" xMax="490" yMax="440">
      <contour>
        <pt x="270" y="50" on="1"/>
        <pt x="270" y="225" on="1"/>
        <pt x="90" y="225" on="1"/>
        <pt x="90" y="265" on="1"/>
        <pt x="270" y="265" on="1"/>
        <pt x="270" y="440" on="1"/>
        <pt x="310" y="440" on="1"/>
        <pt x="310" y="265" on="1"/>
        <pt x="490" y="265" on="1"/>
        <pt x="490" y="225" on="1"/>
        <pt x="310" y="225" on="1"/>
        <pt x="310" y="50" on="1"/>
        <pt x="270" y="50" on="1"/>
      </contour>
    </TTGlyph>
    <TTGlyph name="question" xMin="240" yMin="-45" xMax="515" yMax="535">
      <contour>
        <pt x="380" y="-45" on="1"/>
        <pt x="363" y="-45" on="0"/>
        <pt x="340" y="-22" on="0"/>
        <pt x="340" y="-5" on="1"/>
        <pt x="340" y="9" on="0"/>
        <pt x="363" y="30" on="0"/>
        <pt x="380" y="30" on="1"/>
        <pt x="397" y="30" on="0"/>
        <pt x="420" y="9" on="0"/>
        <pt x="420" y="-5" on="1"/>
        <pt x="420" y="-22" on="0"/>
        <pt x="397" y="-45" on="0"/>
        <pt x="380" y="-45" on="1"/>
      </contour>
      <contour>
        <pt x="360" y="80" on="1"/>
        <pt x="360" y="185" on="1"/>
        <pt x="360" y="221" on="0"/>
        <pt x="394" y="289" on="0"/>
        <pt x="425" y="315" on="1"/>
        <pt x="449" y="335" on="0"/>
        <pt x="475" y="382" on="0"/>
        <pt x="475" y="405" on="1"/>
        <pt x="475" y="442" on="0"/>
        <pt x="422" y="495" on="0"/>
        <pt x="385" y="495" on="1"/>
        <pt x="342" y="495" on="0"/>
        <pt x="280" y="442" on="0"/>
        <pt x="280" y="405" on="1"/>
        <pt x="280" y="360" on="1"/>
        <pt x="240" y="360" on="1"/>
        <pt x="240" y="405" on="1"/>
        <pt x="240" y="459" on="0"/>
        <pt x="325" y="535" on="0"/>
        <pt x="385" y="535" on="1"/>
        <pt x="439" y="535" on="0"/>
        <pt x="515" y="459" on="0"/>
        <pt x="515" y="405" on="1"/>
        <pt x="515" y="379" on="0"/>
        <pt x="484" y="319" on="0"/>
        <pt x="455" y="290" on="1"/>
        <pt x="429" y="268" on="0"/>
        <pt x="400" y="216" on="0"/>
        <pt x="400" y="190" on="1"/>
        <pt x="400" y="80" on="1"/>
        <pt x="360" y="80" on="1"/>
      </contour>
    </TTGlyph>
    <TTGlyph name="quotedbl" xMin="2" yMin="499" xMax="198" yMax="657">
      <contour>
        <pt x="68" y="499" on="1"/>
        <pt x="31" y="499" on="1"/>
        <pt x="2" y="657" on="1"/>
        <pt x="62" y="657" on="1"/>
        <pt x="68" y="499" on="1"/>
      </contour>
      <contour>
        <pt x="198" y="499" on="1"/>
        <pt x="161" y="499" on="1"/>
        <pt x="132" y="657" on="1"/>
        <pt x="192" y="657" on="1"/>
        <pt x="198" y="499" on="1"/>
      </contour>
    </TTGlyph>
    <TTGlyph name="quotedblleft" xMin="90" yMin="435" xMax="345" yMax="620">
      <contour>
        <pt x="90" y="435" on="1"/>
        <pt x="165" y="620" on="1"/>
        <pt x="205" y="620" on="1"/>
        <pt x="160" y="435" on="1"/>
        <pt x="90" y="435" on="1"/>
      </contour>
      <contour>
        <pt x="230" y="435" on="1"/>
        <pt x="305" y="620" on="1"/>
        <pt x="345" y="620" on="1"/>
        <pt x="300" y="435" on="1"/>
        <pt x="230" y="435" on="1"/>
      </contour>
    </TTGlyph>
    <TTGlyph name="quotedblright" xMin="90" yMin="435" xMax="370" yMax="635">
      <contour>
        <pt x="90" y="435" on="1"/>
        <pt x="150" y="635" on="1"/>
        <pt x="230" y="635" on="1"/>
        <pt x="135" y="435" on="1"/>
        <pt x="90" y="435" on="1"/>
      </contour>
      <contour>
        <pt x="230" y="435" on="1"/>
        <pt x="290" y="635" on="1"/>
        <pt x="370" y="635" on="1"/>
        <pt x="275" y="435" on="1"/>
        <pt x="230" y="435" on="1"/>
      </contour>
    </TTGlyph>
    <TTGlyph name="quoteleft" xMin="90" yMin="415" xMax="215" yMax="650">
      <contour>
        <pt x="160" y="415" on="1"/>
        <pt x="131" y="415" on="0"/>
        <pt x="90" y="456" on="0"/>
        <pt x="90" y="485" on="1"/>
        <pt x="90" y="535" on="0"/>
        <pt x="144" y="623" on="0"/>
        <pt x="190" y="650" on="1"/>
        <pt x="215" y="620" on="1"/>
        <pt x="181" y="604" on="0"/>
        <pt x="140" y="542" on="0"/>
        <pt x="140" y="505" on="1"/>
        <pt x="143" y="510" on="0"/>
        <pt x="159" y="515" on="0"/>
        <pt x="170" y="515" on="1"/>
        <pt x="189" y="515" on="0"/>
        <pt x="215" y="486" on="0"/>
        <pt x="215" y="465" on="1"/>
        <pt x="215" y="444" on="0"/>
        <pt x="183" y="415" on="0"/>
        <pt x="160" y="415" on="1"/>
      </contour>
    </TTGlyph>
    <TTGlyph name="quoteright" xMin="90" yMin="355" xMax="225" yMax="595">
      <contour>
        <pt x="115" y="355" on="1"/>
        <pt x="95" y="390" on="1"/>
        <pt x="134" y="408" on="0"/>
        <pt x="180" y="465" on="0"/>
        <pt x="180" y="495" on="1"/>
        <pt x="176" y="488" on="0"/>
        <pt x="157" y="480" on="0"/>
        <pt x="145" y="480" on="1"/>
        <pt x="122" y="480" on="0"/>
        <pt x="90" y="512" on="0"/>
        <pt x="90" y="535" on="1"/>
        <pt x="90" y="560" on="0"/>
        <pt x="128" y="595" on="0"/>
        <pt x="155" y="595" on="1"/>
        <pt x="184" y="595" on="0"/>
        <pt x="225" y="551" on="0"/>
        <pt x="225" y="520" on="1"/>
        <pt x="225" y="468" on="0"/>
        <pt x="165" y="378" on="0"/>
        <pt x="115" y="355" on="1"/>
      </contour>
    </TTGlyph>
    <TTGlyph name="quotesingle" xMin="2" yMin="499" xMax="68" yMax="657">
      <contour>
        <pt x="68" y="499" on="1"/>
        <pt x="31" y="499" on="1"/>
        <pt x="2" y="657" on="1"/>
        <pt x="62" y="657" on="1"/>
        <pt x="68" y="499" on="1"/>
      </contour>
    </TTGlyph>
    <TTGlyph name="semicolon" xMin="90" yMin="-135" xMax="225" yMax="390">
      <contour>
        <pt x="110" y="-135" on="1"/>
        <pt x="90" y="-105" on="1"/>
        <pt x="133" y="-85" on="0"/>
        <pt x="185" y="-33" on="0"/>
        <pt x="185" y="-10" on="1"/>
        <pt x="185" y="-6" on="0"/>
        <pt x="182" y="2" on="0"/>
        <pt x="180" y="5" on="1"/>
        <pt x="174" y="0" on="0"/>
        <pt x="156" y="-5" on="0"/>
        <pt x="145" y="-5" on="1"/>
        <pt x="126" y="-5" on="0"/>
        <pt x="100" y="21" on="0"/>
        <pt x="100" y="40" on="1"/>
        <pt x="100" y="61" on="0"/>
        <pt x="132" y="90" on="0"/>
        <pt x="155" y="90" on="1"/>
        <pt x="184" y="90" on="0"/>
        <pt x="225" y="37" on="0"/>
        <pt x="225" y="0" on="1"/>
        <pt x="225" y="-42" on="0"/>
        <pt x="162" y="-116" on="0"/>
        <pt x="110" y="-135" on="1"/>
      </contour>
      <contour>
        <pt x="147" y="285" on="1"/>
        <pt x="128" y="285" on="0"/>
        <pt x="100" y="315" on="0"/>
        <pt x="100" y="337" on="1"/>
        <pt x="100" y="359" on="0"/>
        <pt x="128" y="390" on="0"/>
        <pt x="147" y="390" on="1"/>
        <pt x="167" y="390" on="0"/>
        <pt x="195" y="359" on="0"/>
        <pt x="195" y="337" on="1"/>
        <pt x="195" y="315" on="0"/>
        <pt x="167" y="285" on="0"/>
        <pt x="147" y="285" on="1"/>
      </contour>
    </TTGlyph>
    <TTGlyph name="seven" xMin="58" yMin="0" xMax="367" yMax="519">
      <contour>
        <pt x="121" y="0" on="1"/>
        <pt x="121" y="127" on="0"/>
        <pt x="230" y="389" on="0"/>
        <pt x="321" y="480" on="1"/>
        <pt x="58" y="480" on="1"/>
        <pt x="58" y="519" on="1"/>
        <pt x="367" y="519" on="1"/>
        <pt x="367" y="485" on="1"/>
        <pt x="274" y="392" on="0"/>
        <pt x="161" y="127" on="0"/>
        <pt x="161" y="0" on="1"/>
        <pt x="121" y="0" on="1"/>
      </contour>
    </TTGlyph>
    <TTGlyph name="six" xMin="47" yMin="-6" xMax="379" yMax="525">
      <contour>
        <pt x="220" y="-6" on="1"/>
        <pt x="134" y="-6" on="0"/>
        <pt x="47" y="114" on="0"/>
        <pt x="47" y="232" on="1"/>
        <pt x="47" y="371" on="0"/>
        <pt x="145" y="525" on="0"/>
        <pt x="233" y="525" on="1"/>
        <pt x="293" y="525" on="0"/>
        <pt x="379" y="455" on="0"/>
        <pt x="379" y="405" on="1"/>
        <pt x="338" y="405" on="1"/>
        <pt x="338" y="439" on="0"/>
        <pt x="276" y="487" on="0"/>
        <pt x="233" y="487" on="1"/>
        <pt x="173" y="487" on="0"/>
        <pt x="88" y="365" on="0"/>
        <pt x="88" y="279" on="1"/>
        <pt x="88" y="242" on="1"/>
        <pt x="102" y="279" on="0"/>
        <pt x="174" y="325" on="0"/>
        <pt x="220" y="325" on="1"/>
        <pt x="286" y="325" on="0"/>
        <pt x="379" y="228" on="0"/>
        <pt x="379" y="160" on="1"/>
        <pt x="379" y="91" on="0"/>
        <pt x="286" y="-6" on="0"/>
        <pt x="220" y="-6" on="1"/>
      </contour>
      <contour>
        <pt x="220" y="28" on="1"/>
        <pt x="270" y="28" on="0"/>
        <pt x="341" y="105" on="0"/>
        <pt x="341" y="160" on="1"/>
        <pt x="341" y="214" on="0"/>
        <pt x="270" y="291" on="0"/>
        <pt x="220" y="291" on="1"/>
        <pt x="169" y="291" on="0"/>
        <pt x="98" y="214" on="0"/>
        <pt x="98" y="160" on="1"/>
        <pt x="98" y="105" on="0"/>
        <pt x="169" y="28" on="0"/>
        <pt x="220" y="28" on="1"/>
      </contour>
    </TTGlyph>
    <TTGlyph name="slash" xMin="90" yMin="-140" xMax="520" yMax="660">
      <contour>
        <pt x="120" y="-140" on="1"/>
        <pt x="90" y="-115" on="1"/>
        <pt x="490" y="660" on="1"/>
        <pt x="520" y="640" on="1"/>
        <pt x="120" y="-140" on="1"/>
      </contour>
    </TTGlyph>
    <TTGlyph name="three" xMin="47" yMin="-6" xMax="379" yMax="519">
      <contour>
        <pt x="213" y="-6" on="1"/>
        <pt x="144" y="-6" on="0"/>
        <pt x="47" y="75" on="0"/>
        <pt x="47" y="133" on="1"/>
        <pt x="47" y="139" on="1"/>
        <pt x="88" y="139" on="1"/>
        <pt x="88" y="133" on="1"/>
        <pt x="88" y="90" on="0"/>
        <pt x="161" y="28" on="0"/>
        <pt x="213" y="28" on="1"/>
        <pt x="265" y="28" on="0"/>
        <pt x="338" y="97" on="0"/>
        <pt x="338" y="146" on="1"/>
        <pt x="338" y="188" on="0"/>
        <pt x="280" y="248" on="0"/>
        <pt x="239" y="248" on="1"/>
        <pt x="180" y="248" on="1"/>
        <pt x="180" y="286" on="1"/>
        <pt x="239" y="286" on="1"/>
        <pt x="272" y="286" on="0"/>
        <pt x="318" y="345" on="0"/>
        <pt x="318" y="386" on="1"/>
        <pt x="318" y="425" on="0"/>
        <pt x="253" y="480" on="0"/>
        <pt x="207" y="480" on="1"/>
        <pt x="162" y="480" on="0"/>
        <pt x="98" y="423" on="0"/>
        <pt x="98" y="382" on="1"/>
        <pt x="98" y="365" on="1"/>
        <pt x="57" y="365" on="1"/>
        <pt x="60" y="392" on="1"/>
        <pt x="60" y="445" on="0"/>
        <pt x="146" y="519" on="0"/>
        <pt x="207" y="519" on="1"/>
        <pt x="270" y="519" on="0"/>
        <pt x="359" y="441" on="0"/>
        <pt x="359" y="386" on="1"/>
        <pt x="359" y="343" on="0"/>
        <pt x="318" y="278" on="0"/>
        <pt x="286" y="269" on="1"/>
        <pt x="327" y="258" on="0"/>
        <pt x="379" y="189" on="0"/>
        <pt x="379" y="146" on="1"/>
        <pt x="379" y="83" on="0"/>
        <pt x="282" y="-6" on="0"/>
        <pt x="213" y="-6" on="1"/>
      </contour>
    </TTGlyph>
    <TTGlyph name="two" xMin="53" yMin="0" xMax="372" yMax="525">
      <contour>
        <pt x="53" y="0" on="1"/>
        <pt x="53" y="46" on="1"/>
        <pt x="53" y="96" on="0"/>
        <pt x="147" y="200" on="0"/>
        <pt x="226" y="237" on="1"/>
        <pt x="272" y="259" on="0"/>
        <pt x="327" y="336" on="0"/>
        <pt x="327" y="379" on="1"/>
        <pt x="327" y="424" on="0"/>
        <pt x="260" y="487" on="0"/>
        <pt x="213" y="487" on="1"/>
        <pt x="168" y="487" on="0"/>
        <pt x="104" y="412" on="0"/>
        <pt x="104" y="359" on="1"/>
        <pt x="63" y="359" on="1"/>
        <pt x="63" y="428" on="0"/>
        <pt x="151" y="525" on="0"/>
        <pt x="213" y="525" on="1"/>
        <pt x="279" y="525" on="0"/>
        <pt x="372" y="439" on="0"/>
        <pt x="372" y="379" on="1"/>
        <pt x="372" y="327" on="0"/>
        <pt x="300" y="231" on="0"/>
        <pt x="239" y="203" on="1"/>
        <pt x="173" y="172" on="0"/>
        <pt x="93" y="92" on="0"/>
        <pt x="93" y="57" on="1"/>
        <pt x="93" y="33" on="1"/>
        <pt x="372" y="33" on="1"/>
        <pt x="372" y="0" on="1"/>
        <pt x="53" y="0" on="1"/>
      </contour>
    </TTGlyph>
    <TTGlyph name="u0981" xMin="-270" yMin="575" xMax="50" yMax="750">
      <contour>
        <pt x="-110" y="575" on="1"/>
        <pt x="-173" y="575" on="0"/>
        <pt x="-265" y="653" on="0"/>
        <pt x="-270" y="710" on="1"/>
        <pt x="-230" y="715" on="1"/>
        <pt x="-223" y="672" on="0"/>
        <pt x="-155" y="617" on="0"/>
        <pt x="-110" y="617" on="1"/>
        <pt x="-65" y="617" on="0"/>
        <pt x="3" y="673" on="0"/>
        <pt x="10" y="715" on="1"/>
        <pt x="50" y="710" on="1"/>
        <pt x="45" y="653" on="0"/>
        <pt x="-47" y="575" on="0"/>
        <pt x="-110" y="575" on="1"/>
      </contour>
      <contour>
        <pt x="-110" y="680" on="1"/>
        <pt x="-127" y="680" on="0"/>
        <pt x="-150" y="699" on="0"/>
        <pt x="-150" y="713" on="1"/>
        <pt x="-150" y="728" on="0"/>
        <pt x="-125" y="750" on="0"/>
        <pt x="-107" y="750" on="1"/>
        <pt x="-92" y="750" on="0"/>
        <pt x="-70" y="729" on="0"/>
        <pt x="-70" y="715" on="1"/>
        <pt x="-70" y="701" on="0"/>
        <pt x="-93" y="680" on="0"/>
        <pt x="-110" y="680" on="1"/>
      </contour>
    </TTGlyph>
    <TTGlyph name="u0981_u09C0.abvs" xMin="-380" yMin="0" xMax="331" yMax="760">
      <contour>
        <pt x="90" y="0" on="1"/>
        <pt x="90" y="465" on="1"/>
        <pt x="-10" y="465" on="1"/>
        <pt x="-10" y="500" on="1"/>
        <pt x="90" y="500" on="1"/>
        <pt x="82" y="587" on="0"/>
        <pt x="-90" y="705" on="0"/>
        <pt x="-210" y="705" on="1"/>
        <pt x="-264" y="705" on="0"/>
        <pt x="-340" y="667" on="0"/>
        <pt x="-340" y="640" on="1"/>
        <pt x="-340" y="618" on="0"/>
        <pt x="-298" y="587" on="0"/>
        <pt x="-268" y="587" on="1"/>
        <pt x="-170" y="590" on="1"/>
        <pt x="-133" y="590" on="0"/>
        <pt x="-80" y="540" on="0"/>
        <pt x="-80" y="505" on="1"/>
        <pt x="-120" y="505" on="1"/>
        <pt x="-120" y="525" on="0"/>
        <pt x="-149" y="553" on="0"/>
        <pt x="-170" y="553" on="1"/>
        <pt x="-265" y="550" on="1"/>
        <pt x="-313" y="550" on="0"/>
        <pt x="-380" y="603" on="0"/>
        <pt x="-380" y="640" on="1"/>
        <pt x="-380" y="685" on="0"/>
        <pt x="-287" y="740" on="0"/>
        <pt x="-210" y="740" on="1"/>
        <pt x="-75" y="740" on="0"/>
        <pt x="121" y="602" on="0"/>
        <pt x="130" y="500" on="1"/>
        <pt x="230" y="500" on="1"/>
        <pt x="230" y="465" on="1"/>
        <pt x="130" y="465" on="1"/>
        <pt x="130" y="0" on="1"/>
        <pt x="90" y="0" on="1"/>
      </contour>
      <contour>
        <pt x="187" y="625" on="1"/>
        <pt x="130" y="625" on="0"/>
        <pt x="48" y="695" on="0"/>
        <pt x="43" y="747" on="1"/>
        <pt x="79" y="751" on="1"/>
        <pt x="86" y="713" on="0"/>
        <pt x="147" y="663" on="0"/>
        <pt x="187" y="663" on="1"/>
        <pt x="227" y="663" on="0"/>
        <pt x="288" y="713" on="0"/>
        <pt x="295" y="751" on="1"/>
        <pt x="331" y="747" on="1"/>
        <pt x="326" y="695" on="0"/>
        <pt x="244" y="625" on="0"/>
        <pt x="187" y="625" on="1"/>
      </contour>
      <contour>
        <pt x="187" y="697" on="1"/>
        <pt x="172" y="697" on="0"/>
        <pt x="151" y="715" on="0"/>
        <pt x="151" y="728" on="1"/>
        <pt x="151" y="741" on="0"/>
        <pt x="171" y="760" on="0"/>
        <pt x="185" y="760" on="1"/>
        <pt x="201" y="760" on="0"/>
        <pt x="223" y="741" on="0"/>
        <pt x="223" y="728" on="1"/>
        <pt x="223" y="715" on="0"/>
        <pt x="202" y="697" on="0"/>
        <pt x="187" y="697" on="1"/>
      </contour>
    </TTGlyph>
    <TTGlyph name="u0981_u09D7.abvs" xMin="-340" yMin="0" xMax="301" yMax="750">
      <contour>
        <pt x="90" y="0" on="1"/>
        <pt x="90" y="465" on="1"/>
        <pt x="-10" y="465" on="1"/>
        <pt x="-10" y="500" on="1"/>
        <pt x="90" y="500" on="1"/>
        <pt x="90" y="537" on="0"/>
        <pt x="28" y="590" on="0"/>
        <pt x="-15" y="590" on="1"/>
        <pt x="-52" y="590" on="0"/>
        <pt x="-193" y="555" on="0"/>
        <pt x="-230" y="555" on="1"/>
        <pt x="-276" y="555" on="0"/>
        <pt x="-340" y="615" on="0"/>
        <pt x="-340" y="658" on="1"/>
        <pt x="-340" y="675" on="0"/>
        <pt x="-334" y="702" on="0"/>
        <pt x="-328" y="710" on="1"/>
        <pt x="-290" y="700" on="1"/>
        <pt x="-295" y="693" on="0"/>
        <pt x="-300" y="672" on="0"/>
        <pt x="-300" y="658" on="1"/>
        <pt x="-300" y="632" on="0"/>
        <pt x="-259" y="595" on="0"/>
        <pt x="-230" y="595" on="1"/>
        <pt x="-193" y="595" on="0"/>
        <pt x="-52" y="630" on="0"/>
        <pt x="-15" y="630" on="1"/>
        <pt x="45" y="630" on="0"/>
        <pt x="130" y="554" on="0"/>
        <pt x="130" y="500" on="1"/>
        <pt x="230" y="500" on="1"/>
        <pt x="230" y="465" on="1"/>
        <pt x="130" y="465" on="1"/>
        <pt x="130" y="0" on="1"/>
        <pt x="90" y="0" on="1"/>
      </contour>
      <contour>
        <pt x="158" y="600" on="1"/>
        <pt x="103" y="600" on="0"/>
        <pt x="22" y="678" on="0"/>
        <pt x="17" y="735" on="1"/>
        <pt x="56" y="740" on="1"/>
        <pt x="63" y="697" on="0"/>
        <pt x="121" y="642" on="0"/>
        <pt x="158" y="642" on="1"/>
        <pt x="196" y="642" on="0"/>
        <pt x="255" y="697" on="0"/>
        <pt x="262" y="740" on="1"/>
        <pt x="301" y="735" on="1"/>
        <pt x="296" y="678" on="0"/>
        <pt x="214" y="600" on="0"/>
        <pt x="158" y="600" on="1"/>
      </contour>
      <contour>
        <pt x="158" y="680" on="1"/>
        <pt x="144" y="680" on="0"/>
        <pt x="124" y="701" on="0"/>
        <pt x="124" y="715" on="1"/>
        <pt x="124" y="729" on="0"/>
        <pt x="143" y="750" on="0"/>
        <pt x="157" y="750" on="1"/>
        <pt x="172" y="750" on="0"/>
        <pt x="193" y="729" on="0"/>
        <pt x="193" y="715" on="1"/>
        <pt x="193" y="701" on="0"/>
        <pt x="172" y="680" on="0"/>
        <pt x="158" y="680" on="1"/>
      </contour>
    </TTGlyph>
    <TTGlyph name="u0982" xMin="29" yMin="-30" xMax="304" yMax="510">
      <contour>
        <pt x="269" y="-30" on="1"/>
        <pt x="230" y="37" on="0"/>
        <pt x="108" y="154" on="0"/>
        <pt x="29" y="200" on="1"/>
        <pt x="49" y="235" on="1"/>
        <pt x="133" y="187" on="0"/>
        <pt x="262" y="62" on="0"/>
        <pt x="304" y="-10" on="1"/>
        <pt x="269" y="-30" on="1"/>
      </contour>
      <contour>
        <pt x="169" y="290" on="1"/>
        <pt x="121" y="290" on="0"/>
        <pt x="54" y="354" on="0"/>
        <pt x="54" y="400" on="1"/>
        <pt x="54" y="446" on="0"/>
        <pt x="121" y="510" on="0"/>
        <pt x="169" y="510" on="1"/>
        <pt x="217" y="510" on="0"/>
        <pt x="284" y="446" on="0"/>
        <pt x="284" y="400" on="1"/>
        <pt x="284" y="354" on="0"/>
        <pt x="217" y="290" on="0"/>
        <pt x="169" y="290" on="1"/>
      </contour>
      <contour>
        <pt x="169" y="330" on="1"/>
        <pt x="200" y="330" on="0"/>
        <pt x="244" y="371" on="0"/>
        <pt x="244" y="400" on="1"/>
        <pt x="244" y="429" on="0"/>
        <pt x="200" y="470" on="0"/>
        <pt x="169" y="470" on="1"/>
        <pt x="138" y="470" on="0"/>
        <pt x="94" y="429" on="0"/>
        <pt x="94" y="400" on="1"/>
        <pt x="94" y="371" on="0"/>
        <pt x="138" y="330" on="0"/>
        <pt x="169" y="330" on="1"/>
      </contour>
    </TTGlyph>
    <TTGlyph name="u0983" xMin="90" yMin="-10" xMax="320" yMax="510">
      <contour>
        <pt x="205" y="-10" on="1"/>
        <pt x="157" y="-10" on="0"/>
        <pt x="90" y="54" on="0"/>
        <pt x="90" y="100" on="1"/>
        <pt x="90" y="146" on="0"/>
        <pt x="157" y="210" on="0"/>
        <pt x="205" y="210" on="1"/>
        <pt x="253" y="210" on="0"/>
        <pt x="320" y="146" on="0"/>
        <pt x="320" y="100" on="1"/>
        <pt x="320" y="54" on="0"/>
        <pt x="253" y="-10" on="0"/>
        <pt x="205" y="-10" on="1"/>
      </contour>
      <contour>
        <pt x="205" y="30" on="1"/>
        <pt x="236" y="30" on="0"/>
        <pt x="280" y="71" on="0"/>
        <pt x="280" y="100" on="1"/>
        <pt x="280" y="129" on="0"/>
        <pt x="236" y="170" on="0"/>
        <pt x="205" y="170" on="1"/>
        <pt x="174" y="170" on="0"/>
        <pt x="130" y="129" on="0"/>
        <pt x="130" y="100" on="1"/>
        <pt x="130" y="71" on="0"/>
        <pt x="174" y="30" on="0"/>
        <pt x="205" y="30" on="1"/>
      </contour>
      <contour>
        <pt x="205" y="290" on="1"/>
        <pt x="157" y="290" on="0"/>
        <pt x="90" y="354" on="0"/>
        <pt x="90" y="400" on="1"/>
        <pt x="90" y="446" on="0"/>
        <pt x="157" y="510" on="0"/>
        <pt x="205" y="510" on="1"/>
        <pt x="253" y="510" on="0"/>
        <pt x="320" y="446" on="0"/>
        <pt x="320" y="400" on="1"/>
        <pt x="320" y="354" on="0"/>
        <pt x="253" y="290" on="0"/>
        <pt x="205" y="290" on="1"/>
      </contour>
      <contour>
        <pt x="205" y="330" on="1"/>
        <pt x="236" y="330" on="0"/>
        <pt x="280" y="371" on="0"/>
        <pt x="280" y="400" on="1"/>
        <pt x="280" y="429" on="0"/>
        <pt x="236" y="470" on="0"/>
        <pt x="205" y="470" on="1"/>
        <pt x="174" y="470" on="0"/>
        <pt x="130" y="429" on="0"/>
        <pt x="130" y="400" on="1"/>
        <pt x="130" y="371" on="0"/>
        <pt x="174" y="330" on="0"/>
        <pt x="205" y="330" on="1"/>
      </contour>
    </TTGlyph>
    <TTGlyph name="u0985" xMin="-10" yMin="0" xMax="676" yMax="500">
      <contour>
        <pt x="536" y="0" on="1"/>
        <pt x="536" y="105" on="1"/>
        <pt x="517" y="132" on="0"/>
        <pt x="468" y="168" on="0"/>
        <pt x="441" y="175" on="1"/>
        <pt x="421" y="132" on="0"/>
        <pt x="337" y="80" on="0"/>
        <pt x="286" y="80" on="1"/>
        <pt x="195" y="80" on="0"/>
        <pt x="47" y="239" on="0"/>
        <pt x="26" y="360" on="1"/>
        <pt x="66" y="365" on="1"/>
        <pt x="85" y="259" on="0"/>
        <pt x="209" y="120" on="0"/>
        <pt x="286" y="120" on="1"/>
        <pt x="338" y="120" on="0"/>
        <pt x="411" y="187" on="0"/>
        <pt x="411" y="235" on="1"/>
        <pt x="411" y="285" on="0"/>
        <pt x="347" y="355" on="0"/>
        <pt x="301" y="355" on="1"/>
        <pt x="305" y="350" on="0"/>
        <pt x="310" y="337" on="0"/>
        <pt x="310" y="331" on="1"/>
        <pt x="310" y="308" on="0"/>
        <pt x="278" y="275" on="0"/>
        <pt x="255" y="275" on="1"/>
        <pt x="231" y="275" on="0"/>
        <pt x="196" y="307" on="0"/>
        <pt x="196" y="330" on="1"/>
        <pt x="196" y="353" on="0"/>
        <pt x="231" y="388" on="0"/>
        <pt x="256" y="390" on="1"/>
        <pt x="256" y="412" on="0"/>
        <pt x="238" y="451" on="0"/>
        <pt x="221" y="465" on="1"/>
        <pt x="-10" y="465" on="1"/>
        <pt x="-10" y="500" on="1"/>
        <pt x="676" y="500" on="1"/>
        <pt x="676" y="465" on="1"/>
        <pt x="576" y="465" on="1"/>
        <pt x="576" y="0" on="1"/>
        <pt x="536" y="0" on="1"/>
      </contour>
      <contour>
        <pt x="536" y="155" on="1"/>
        <pt x="536" y="465" on="1"/>
        <pt x="271" y="465" on="1"/>
        <pt x="283" y="454" on="0"/>
        <pt x="296" y="418" on="0"/>
        <pt x="296" y="395" on="1"/>
        <pt x="361" y="395" on="0"/>
        <pt x="453" y="301" on="0"/>
        <pt x="453" y="234" on="1"/>
        <pt x="453" y="230" on="0"/>
        <pt x="452" y="221" on="0"/>
        <pt x="451" y="215" on="1"/>
        <pt x="479" y="205" on="0"/>
        <pt x="523" y="174" on="0"/>
        <pt x="536" y="155" on="1"/>
      </contour>
    </TTGlyph>
    <TTGlyph name="u0986" xMin="-10" yMin="0" xMax="907" yMax="560">
      <contour>
        <pt x="536" y="0" on="1"/>
        <pt x="536" y="105" on="1"/>
        <pt x="517" y="132" on="0"/>
        <pt x="468" y="168" on="0"/>
        <pt x="441" y="175" on="1"/>
        <pt x="421" y="132" on="0"/>
        <pt x="337" y="80" on="0"/>
        <pt x="286" y="80" on="1"/>
        <pt x="195" y="80" on="0"/>
        <pt x="47" y="239" on="0"/>
        <pt x="26" y="360" on="1"/>
        <pt x="66" y="365" on="1"/>
        <pt x="85" y="259" on="0"/>
        <pt x="209" y="120" on="0"/>
        <pt x="286" y="120" on="1"/>
        <pt x="338" y="120" on="0"/>
        <pt x="411" y="187" on="0"/>
        <pt x="411" y="235" on="1"/>
        <pt x="411" y="285" on="0"/>
        <pt x="347" y="355" on="0"/>
        <pt x="301" y="355" on="1"/>
        <pt x="305" y="350" on="0"/>
        <pt x="310" y="337" on="0"/>
        <pt x="310" y="331" on="1"/>
        <pt x="310" y="308" on="0"/>
        <pt x="278" y="275" on="0"/>
        <pt x="255" y="275" on="1"/>
        <pt x="231" y="275" on="0"/>
        <pt x="196" y="307" on="0"/>
        <pt x="196" y="330" on="1"/>
        <pt x="196" y="353" on="0"/>
        <pt x="231" y="388" on="0"/>
        <pt x="256" y="390" on="1"/>
        <pt x="256" y="412" on="0"/>
        <pt x="238" y="451" on="0"/>
        <pt x="221" y="465" on="1"/>
        <pt x="-10" y="465" on="1"/>
        <pt x="-10" y="500" on="1"/>
        <pt x="692" y="500" on="1"/>
        <pt x="716" y="500" on="0"/>
        <pt x="756" y="473" on="0"/>
        <pt x="767" y="450" on="1"/>
        <pt x="767" y="560" on="1"/>
        <pt x="807" y="560" on="1"/>
        <pt x="807" y="500" on="1"/>
        <pt x="907" y="500" on="1"/>
        <pt x="907" y="465" on="1"/>
        <pt x="807" y="465" on="1"/>
        <pt x="807" y="0" on="1"/>
        <pt x="767" y="0" on="1"/>
        <pt x="767" y="335" on="1"/>
        <pt x="762" y="390" on="0"/>
        <pt x="719" y="465" on="0"/>
        <pt x="692" y="465" on="1"/>
        <pt x="576" y="465" on="1"/>
        <pt x="576" y="0" on="1"/>
        <pt x="536" y="0" on="1"/>
      </contour>
      <contour>
        <pt x="536" y="155" on="1"/>
        <pt x="536" y="465" on="1"/>
        <pt x="271" y="465" on="1"/>
        <pt x="283" y="454" on="0"/>
        <pt x="296" y="418" on="0"/>
        <pt x="296" y="395" on="1"/>
        <pt x="361" y="395" on="0"/>
        <pt x="453" y="301" on="0"/>
        <pt x="453" y="234" on="1"/>
        <pt x="453" y="230" on="0"/>
        <pt x="452" y="221" on="0"/>
        <pt x="451" y="215" on="1"/>
        <pt x="479" y="205" on="0"/>
        <pt x="523" y="174" on="0"/>
        <pt x="536" y="155" on="1"/>
      </contour>
    </TTGlyph>
    <TTGlyph name="u0987" xMin="-10" yMin="-95" xMax="427" yMax="705">
      <contour>
        <pt x="387" y="-95" on="1"/>
        <pt x="344" y="-3" on="0"/>
        <pt x="149" y="105" on="0"/>
        <pt x="27" y="105" on="1"/>
        <pt x="22" y="145" on="1"/>
        <pt x="97" y="140" on="1"/>
        <pt x="180" y="140" on="0"/>
        <pt x="297" y="210" on="0"/>
        <pt x="297" y="260" on="1"/>
        <pt x="297" y="297" on="0"/>
        <pt x="233" y="350" on="0"/>
        <pt x="187" y="350" on="1"/>
        <pt x="187" y="317" on="0"/>
        <pt x="143" y="270" on="0"/>
        <pt x="112" y="270" on="1"/>
        <pt x="85" y="270" on="0"/>
        <pt x="47" y="299" on="0"/>
        <pt x="47" y="320" on="1"/>
        <pt x="47" y="349" on="0"/>
        <pt x="103" y="390" on="0"/>
        <pt x="142" y="390" on="1"/>
        <pt x="138" y="411" on="0"/>
        <pt x="118" y="449" on="0"/>
        <pt x="102" y="465" on="1"/>
        <pt x="-10" y="465" on="1"/>
        <pt x="-10" y="500" on="1"/>
        <pt x="312" y="500" on="1"/>
        <pt x="312" y="533" on="0"/>
        <pt x="271" y="580" on="0"/>
        <pt x="242" y="580" on="1"/>
        <pt x="218" y="580" on="0"/>
        <pt x="126" y="560" on="0"/>
        <pt x="102" y="560" on="1"/>
        <pt x="69" y="560" on="0"/>
        <pt x="22" y="604" on="0"/>
        <pt x="22" y="635" on="1"/>
        <pt x="22" y="655" on="0"/>
        <pt x="43" y="692" on="0"/>
        <pt x="62" y="705" on="1"/>
        <pt x="97" y="685" on="1"/>
        <pt x="81" y="676" on="0"/>
        <pt x="62" y="652" on="0"/>
        <pt x="62" y="640" on="1"/>
        <pt x="62" y="623" on="0"/>
        <pt x="85" y="600" on="0"/>
        <pt x="102" y="600" on="1"/>
        <pt x="126" y="600" on="0"/>
        <pt x="218" y="620" on="0"/>
        <pt x="242" y="620" on="1"/>
        <pt x="288" y="620" on="0"/>
        <pt x="352" y="550" on="0"/>
        <pt x="352" y="500" on="1"/>
        <pt x="410" y="500" on="1"/>
        <pt x="410" y="465" on="1"/>
        <pt x="152" y="465" on="1"/>
        <pt x="164" y="444" on="0"/>
        <pt x="179" y="406" on="0"/>
        <pt x="182" y="390" on="1"/>
        <pt x="248" y="384" on="0"/>
        <pt x="337" y="309" on="0"/>
        <pt x="337" y="260" on="1"/>
        <pt x="337" y="210" on="0"/>
        <pt x="258" y="131" on="0"/>
        <pt x="197" y="120" on="1"/>
        <pt x="264" y="102" on="0"/>
        <pt x="383" y="1" on="0"/>
        <pt x="427" y="-75" on="1"/>
        <pt x="387" y="-95" on="1"/>
      </contour>
    </TTGlyph>
    <TTGlyph name="u0988" xMin="-10" yMin="-5" xMax="512" yMax="725">
      <contour>
        <pt x="417" y="-5" on="1"/>
        <pt x="388" y="24" on="0"/>
        <pt x="357" y="115" on="0"/>
        <pt x="357" y="170" on="1"/>
        <pt x="357" y="215" on="0"/>
        <pt x="385" y="302" on="0"/>
        <pt x="412" y="340" on="1"/>
        <pt x="363" y="322" on="0"/>
        <pt x="288" y="255" on="0"/>
        <pt x="267" y="210" on="1"/>
        <pt x="244" y="160" on="0"/>
        <pt x="170" y="100" on="0"/>
        <pt x="132" y="100" on="1"/>
        <pt x="95" y="100" on="0"/>
        <pt x="42" y="147" on="0"/>
        <pt x="42" y="180" on="1"/>
        <pt x="45" y="199" on="0"/>
        <pt x="53" y="221" on="0"/>
        <pt x="57" y="225" on="1"/>
        <pt x="87" y="210" on="1"/>
        <pt x="85" y="203" on="0"/>
        <pt x="82" y="191" on="0"/>
        <pt x="82" y="185" on="1"/>
        <pt x="82" y="166" on="0"/>
        <pt x="111" y="140" on="0"/>
        <pt x="132" y="140" on="1"/>
        <pt x="160" y="140" on="0"/>
        <pt x="225" y="208" on="0"/>
        <pt x="252" y="265" on="1"/>
        <pt x="237" y="307" on="0"/>
        <pt x="189" y="360" on="0"/>
        <pt x="162" y="365" on="1"/>
        <pt x="167" y="338" on="0"/>
        <pt x="127" y="295" on="0"/>
        <pt x="97" y="295" on="1"/>
        <pt x="74" y="295" on="0"/>
        <pt x="42" y="324" on="0"/>
        <pt x="42" y="345" on="1"/>
        <pt x="42" y="370" on="0"/>
        <pt x="85" y="407" on="0"/>
        <pt x="117" y="410" on="1"/>
        <pt x="116" y="413" on="0"/>
        <pt x="104" y="459" on="0"/>
        <pt x="97" y="465" on="1"/>
        <pt x="-10" y="465" on="1"/>
        <pt x="-10" y="500" on="1"/>
        <pt x="392" y="500" on="1"/>
        <pt x="392" y="533" on="0"/>
        <pt x="342" y="580" on="0"/>
        <pt x="307" y="580" on="1"/>
        <pt x="278" y="580" on="0"/>
        <pt x="166" y="560" on="0"/>
        <pt x="137" y="560" on="1"/>
        <pt x="98" y="560" on="0"/>
        <pt x="42" y="613" on="0"/>
        <pt x="42" y="650" on="1"/>
        <pt x="42" y="673" on="0"/>
        <pt x="66" y="713" on="0"/>
        <pt x="87" y="725" on="1"/>
        <pt x="117" y="705" on="1"/>
        <pt x="100" y="691" on="0"/>
        <pt x="82" y="662" on="0"/>
        <pt x="82" y="650" on="1"/>
        <pt x="82" y="629" on="0"/>
        <pt x="114" y="600" on="0"/>
        <pt x="137" y="600" on="1"/>
        <pt x="166" y="600" on="0"/>
        <pt x="278" y="620" on="0"/>
        <pt x="307" y="620" on="1"/>
        <pt x="359" y="620" on="0"/>
        <pt x="432" y="550" on="0"/>
        <pt x="432" y="500" on="1"/>
        <pt x="512" y="500" on="1"/>
        <pt x="512" y="465" on="1"/>
        <pt x="142" y="465" on="1"/>
        <pt x="148" y="452" on="0"/>
        <pt x="156" y="424" on="0"/>
        <pt x="157" y="410" on="1"/>
        <pt x="199" y="403" on="0"/>
        <pt x="266" y="344" on="0"/>
        <pt x="282" y="300" on="1"/>
        <pt x="320" y="338" on="0"/>
        <pt x="401" y="380" on="0"/>
        <pt x="437" y="380" on="1"/>
        <pt x="462" y="340" on="1"/>
        <pt x="431" y="309" on="0"/>
        <pt x="397" y="220" on="0"/>
        <pt x="397" y="170" on="1"/>
        <pt x="397" y="113" on="0"/>
        <pt x="426" y="28" on="0"/>
        <pt x="452" y="10" on="1"/>
        <pt x="417" y="-5" on="1"/>
      </contour>
    </TTGlyph>
    <TTGlyph name="u0989" xMin="-10" yMin="20" xMax="609" yMax="750">
      <contour>
        <pt x="-10" y="465" on="1"/>
        <pt x="-10" y="500" on="1"/>
        <pt x="463" y="500" on="1"/>
        <pt x="463" y="537" on="0"/>
        <pt x="407" y="590" on="0"/>
        <pt x="368" y="590" on="1"/>
        <pt x="336" y="590" on="0"/>
        <pt x="210" y="570" on="0"/>
        <pt x="178" y="570" on="1"/>
        <pt x="135" y="570" on="0"/>
        <pt x="73" y="629" on="0"/>
        <pt x="73" y="670" on="1"/>
        <pt x="73" y="695" on="0"/>
        <pt x="97" y="738" on="0"/>
        <pt x="118" y="750" on="1"/>
        <pt x="148" y="725" on="1"/>
        <pt x="131" y="711" on="0"/>
        <pt x="113" y="682" on="0"/>
        <pt x="113" y="670" on="1"/>
        <pt x="113" y="645" on="0"/>
        <pt x="151" y="610" on="0"/>
        <pt x="178" y="610" on="1"/>
        <pt x="209" y="610" on="0"/>
        <pt x="332" y="630" on="0"/>
        <pt x="363" y="630" on="1"/>
        <pt x="421" y="630" on="0"/>
        <pt x="503" y="554" on="0"/>
        <pt x="503" y="500" on="1"/>
        <pt x="609" y="500" on="1"/>
        <pt x="609" y="465" on="1"/>
        <pt x="303" y="465" on="1"/>
        <pt x="303" y="320" on="1"/>
        <pt x="303" y="293" on="0"/>
        <pt x="329" y="255" on="0"/>
        <pt x="348" y="255" on="1"/>
        <pt x="374" y="255" on="0"/>
        <pt x="436" y="323" on="0"/>
        <pt x="463" y="380" on="1"/>
        <pt x="504" y="365" on="0"/>
        <pt x="553" y="286" on="0"/>
        <pt x="553" y="235" on="1"/>
        <pt x="553" y="146" on="0"/>
        <pt x="418" y="20" on="0"/>
        <pt x="323" y="20" on="1"/>
        <pt x="205" y="20" on="0"/>
        <pt x="38" y="231" on="0"/>
        <pt x="38" y="380" on="1"/>
        <pt x="78" y="385" on="1"/>
        <pt x="78" y="250" on="0"/>
        <pt x="222" y="60" on="0"/>
        <pt x="323" y="60" on="1"/>
        <pt x="402" y="60" on="0"/>
        <pt x="513" y="163" on="0"/>
        <pt x="513" y="235" on="1"/>
        <pt x="513" y="261" on="0"/>
        <pt x="495" y="306" on="0"/>
        <pt x="478" y="320" on="1"/>
        <pt x="450" y="271" on="0"/>
        <pt x="380" y="215" on="0"/>
        <pt x="348" y="215" on="1"/>
        <pt x="313" y="215" on="0"/>
        <pt x="263" y="277" on="0"/>
        <pt x="263" y="320" on="1"/>
        <pt x="263" y="465" on="1"/>
        <pt x="-10" y="465" on="1"/>
      </contour>
    </TTGlyph>
    <TTGlyph name="u098A" xMin="-10" yMin="15" xMax="663" yMax="750">
      <contour>
        <pt x="-10" y="465" on="1"/>
        <pt x="-10" y="500" on="1"/>
        <pt x="507" y="500" on="1"/>
        <pt x="507" y="535" on="0"/>
        <pt x="454" y="585" on="0"/>
        <pt x="417" y="585" on="1"/>
        <pt x="384" y="585" on="0"/>
        <pt x="255" y="555" on="0"/>
        <pt x="222" y="555" on="1"/>
        <pt x="179" y="555" on="0"/>
        <pt x="117" y="611" on="0"/>
        <pt x="117" y="650" on="1"/>
        <pt x="117" y="679" on="0"/>
        <pt x="152" y="733" on="0"/>
        <pt x="182" y="750" on="1"/>
        <pt x="207" y="720" on="1"/>
        <pt x="184" y="707" on="0"/>
        <pt x="157" y="669" on="0"/>
        <pt x="157" y="650" on="1"/>
        <pt x="157" y="627" on="0"/>
        <pt x="195" y="595" on="0"/>
        <pt x="222" y="595" on="1"/>
        <pt x="255" y="595" on="0"/>
        <pt x="384" y="625" on="0"/>
        <pt x="417" y="625" on="1"/>
        <pt x="471" y="625" on="0"/>
        <pt x="547" y="552" on="0"/>
        <pt x="547" y="500" on="1"/>
        <pt x="663" y="500" on="1"/>
        <pt x="663" y="465" on="1"/>
        <pt x="357" y="465" on="1"/>
        <pt x="357" y="320" on="1"/>
        <pt x="357" y="293" on="0"/>
        <pt x="380" y="255" on="0"/>
        <pt x="397" y="255" on="1"/>
        <pt x="422" y="255" on="0"/>
        <pt x="481" y="320" on="0"/>
        <pt x="507" y="375" on="1"/>
        <pt x="553" y="348" on="0"/>
        <pt x="607" y="262" on="0"/>
        <pt x="607" y="215" on="1"/>
        <pt x="607" y="124" on="0"/>
        <pt x="476" y="15" on="0"/>
        <pt x="367" y="15" on="1"/>
        <pt x="228" y="15" on="0"/>
        <pt x="32" y="208" on="0"/>
        <pt x="32" y="345" on="1"/>
        <pt x="67" y="345" on="1"/>
        <pt x="67" y="243" on="0"/>
        <pt x="209" y="75" on="0"/>
        <pt x="322" y="45" on="1"/>
        <pt x="238" y="93" on="0"/>
        <pt x="142" y="267" on="0"/>
        <pt x="142" y="370" on="1"/>
        <pt x="182" y="370" on="1"/>
        <pt x="182" y="244" on="0"/>
        <pt x="314" y="65" on="0"/>
        <pt x="407" y="65" on="1"/>
        <pt x="473" y="65" on="0"/>
        <pt x="567" y="150" on="0"/>
        <pt x="567" y="210" on="1"/>
        <pt x="567" y="240" on="0"/>
        <pt x="541" y="295" on="0"/>
        <pt x="517" y="315" on="1"/>
        <pt x="496" y="269" on="0"/>
        <pt x="431" y="215" on="0"/>
        <pt x="397" y="215" on="1"/>
        <pt x="364" y="215" on="0"/>
        <pt x="317" y="277" on="0"/>
        <pt x="317" y="320" on="1"/>
        <pt x="317" y="465" on="1"/>
        <pt x="-10" y="465" on="1"/>
      </contour>
    </TTGlyph>
    <TTGlyph name="u098B" xMin="12" yMin="0" xMax="646" yMax="560">
      <contour>
        <pt x="377" y="0" on="1"/>
        <pt x="340" y="79" on="0"/>
        <pt x="204" y="178" on="0"/>
        <pt x="122" y="185" on="1"/>
        <pt x="92" y="225" on="1"/>
        <pt x="145" y="278" on="0"/>
        <pt x="270" y="352" on="0"/>
        <pt x="337" y="370" on="1"/>
        <pt x="299" y="377" on="0"/>
        <pt x="239" y="416" on="0"/>
        <pt x="222" y="445" on="1"/>
        <pt x="196" y="407" on="0"/>
        <pt x="129" y="365" on="0"/>
        <pt x="97" y="365" on="1"/>
        <pt x="62" y="365" on="0"/>
        <pt x="12" y="412" on="0"/>
        <pt x="12" y="445" on="1"/>
        <pt x="12" y="468" on="0"/>
        <pt x="41" y="500" on="0"/>
        <pt x="62" y="500" on="1"/>
        <pt x="79" y="500" on="0"/>
        <pt x="102" y="479" on="0"/>
        <pt x="102" y="465" on="1"/>
        <pt x="102" y="451" on="0"/>
        <pt x="87" y="430" on="0"/>
        <pt x="77" y="430" on="1"/>
        <pt x="67" y="430" on="1"/>
        <pt x="67" y="422" on="0"/>
        <pt x="88" y="410" on="0"/>
        <pt x="102" y="410" on="1"/>
        <pt x="124" y="410" on="0"/>
        <pt x="187" y="466" on="0"/>
        <pt x="222" y="515" on="1"/>
        <pt x="245" y="465" on="0"/>
        <pt x="327" y="405" on="0"/>
        <pt x="372" y="405" on="1"/>
        <pt x="372" y="500" on="1"/>
        <pt x="412" y="500" on="1"/>
        <pt x="412" y="255" on="1"/>
        <pt x="451" y="237" on="0"/>
        <pt x="507" y="191" on="0"/>
        <pt x="522" y="165" on="1"/>
        <pt x="522" y="560" on="1"/>
        <pt x="562" y="560" on="1"/>
        <pt x="562" y="500" on="1"/>
        <pt x="646" y="500" on="1"/>
        <pt x="646" y="465" on="1"/>
        <pt x="562" y="465" on="1"/>
        <pt x="562" y="80" on="1"/>
        <pt x="532" y="80" on="1"/>
        <pt x="522" y="117" on="0"/>
        <pt x="460" y="188" on="0"/>
        <pt x="412" y="215" on="1"/>
        <pt x="412" y="0" on="1"/>
        <pt x="377" y="0" on="1"/>
      </contour>
      <contour>
        <pt x="372" y="80" on="1"/>
        <pt x="372" y="335" on="1"/>
        <pt x="298" y="315" on="0"/>
        <pt x="184" y="257" on="0"/>
        <pt x="147" y="220" on="1"/>
        <pt x="211" y="214" on="0"/>
        <pt x="329" y="141" on="0"/>
        <pt x="372" y="80" on="1"/>
      </contour>
    </TTGlyph>
    <TTGlyph name="u098C" xMin="39" yMin="0" xMax="424" yMax="505">
      <contour>
        <pt x="84" y="450" on="1"/>
        <pt x="84" y="462" on="0"/>
        <pt x="97" y="491" on="0"/>
        <pt x="109" y="505" on="1"/>
        <pt x="144" y="485" on="1"/>
        <pt x="137" y="479" on="0"/>
        <pt x="129" y="458" on="0"/>
        <pt x="129" y="445" on="1"/>
        <pt x="129" y="414" on="0"/>
        <pt x="198" y="350" on="0"/>
        <pt x="254" y="330" on="1"/>
        <pt x="331" y="302" on="0"/>
        <pt x="424" y="209" on="0"/>
        <pt x="424" y="160" on="1"/>
        <pt x="424" y="101" on="0"/>
        <pt x="348" y="10" on="0"/>
        <pt x="289" y="0" on="1"/>
        <pt x="254" y="30" on="1"/>
        <pt x="265" y="59" on="0"/>
        <pt x="274" y="91" on="0"/>
        <pt x="274" y="100" on="1"/>
        <pt x="274" y="139" on="0"/>
        <pt x="218" y="195" on="0"/>
        <pt x="179" y="195" on="1"/>
        <pt x="138" y="195" on="0"/>
        <pt x="79" y="145" on="0"/>
        <pt x="79" y="110" on="1"/>
        <pt x="79" y="90" on="0"/>
        <pt x="101" y="57" on="0"/>
        <pt x="119" y="50" on="1"/>
        <pt x="119" y="69" on="0"/>
        <pt x="145" y="95" on="0"/>
        <pt x="164" y="95" on="1"/>
        <pt x="185" y="95" on="0"/>
        <pt x="214" y="69" on="0"/>
        <pt x="214" y="50" on="1"/>
        <pt x="214" y="29" on="0"/>
        <pt x="176" y="0" on="0"/>
        <pt x="149" y="0" on="1"/>
        <pt x="103" y="0" on="0"/>
        <pt x="39" y="64" on="0"/>
        <pt x="39" y="110" on="1"/>
        <pt x="39" y="162" on="0"/>
        <pt x="121" y="235" on="0"/>
        <pt x="179" y="235" on="1"/>
        <pt x="235" y="235" on="0"/>
        <pt x="314" y="156" on="0"/>
        <pt x="314" y="100" on="1"/>
        <pt x="314" y="84" on="0"/>
        <pt x="309" y="59" on="0"/>
        <pt x="304" y="50" on="1"/>
        <pt x="338" y="62" on="0"/>
        <pt x="379" y="123" on="0"/>
        <pt x="379" y="160" on="1"/>
        <pt x="379" y="198" on="0"/>
        <pt x="294" y="275" on="0"/>
        <pt x="224" y="300" on="1"/>
        <pt x="161" y="323" on="0"/>
        <pt x="84" y="405" on="0"/>
        <pt x="84" y="450" on="1"/>
      </contour>
    </TTGlyph>
    <TTGlyph name="u098F" xMin="45" yMin="0" xMax="495" yMax="505">
      <contour>
        <pt x="455" y="0" on="1"/>
        <pt x="451" y="49" on="0"/>
        <pt x="370" y="115" on="0"/>
        <pt x="314" y="115" on="1"/>
        <pt x="292" y="115" on="0"/>
        <pt x="207" y="100" on="0"/>
        <pt x="185" y="100" on="1"/>
        <pt x="127" y="100" on="0"/>
        <pt x="45" y="200" on="0"/>
        <pt x="45" y="270" on="1"/>
        <pt x="45" y="301" on="0"/>
        <pt x="60" y="359" on="0"/>
        <pt x="75" y="385" on="1"/>
        <pt x="110" y="365" on="1"/>
        <pt x="98" y="344" on="0"/>
        <pt x="85" y="295" on="0"/>
        <pt x="85" y="270" on="1"/>
        <pt x="85" y="216" on="0"/>
        <pt x="144" y="140" on="0"/>
        <pt x="185" y="140" on="1"/>
        <pt x="207" y="140" on="0"/>
        <pt x="293" y="155" on="0"/>
        <pt x="315" y="155" on="1"/>
        <pt x="361" y="155" on="0"/>
        <pt x="436" y="117" on="0"/>
        <pt x="455" y="84" on="1"/>
        <pt x="455" y="420" on="1"/>
        <pt x="455" y="439" on="0"/>
        <pt x="426" y="465" on="0"/>
        <pt x="405" y="465" on="1"/>
        <pt x="355" y="465" on="0"/>
        <pt x="255" y="365" on="0"/>
        <pt x="255" y="315" on="1"/>
        <pt x="261" y="318" on="0"/>
        <pt x="276" y="321" on="0"/>
        <pt x="284" y="321" on="1"/>
        <pt x="307" y="321" on="0"/>
        <pt x="340" y="294" on="0"/>
        <pt x="340" y="275" on="1"/>
        <pt x="340" y="254" on="0"/>
        <pt x="305" y="225" on="0"/>
        <pt x="280" y="225" on="1"/>
        <pt x="253" y="225" on="0"/>
        <pt x="215" y="272" on="0"/>
        <pt x="215" y="305" on="1"/>
        <pt x="215" y="375" on="0"/>
        <pt x="338" y="505" on="0"/>
        <pt x="405" y="505" on="1"/>
        <pt x="442" y="505" on="0"/>
        <pt x="495" y="449" on="0"/>
        <pt x="495" y="410" on="1"/>
        <pt x="495" y="0" on="1"/>
        <pt x="455" y="0" on="1"/>
      </contour>
    </TTGlyph>
    <TTGlyph name="u0990" xMin="39" yMin="0" xMax="609" yMax="735">
      <contour>
        <pt x="449" y="0" on="1"/>
        <pt x="436" y="49" on="0"/>
        <pt x="350" y="110" on="0"/>
        <pt x="294" y="110" on="1"/>
        <pt x="276" y="110" on="0"/>
        <pt x="207" y="100" on="0"/>
        <pt x="189" y="100" on="1"/>
        <pt x="127" y="100" on="0"/>
        <pt x="39" y="185" on="0"/>
        <pt x="39" y="245" on="1"/>
        <pt x="39" y="274" on="0"/>
        <pt x="57" y="331" on="0"/>
        <pt x="74" y="355" on="1"/>
        <pt x="109" y="335" on="1"/>
        <pt x="94" y="314" on="0"/>
        <pt x="79" y="268" on="0"/>
        <pt x="79" y="245" on="1"/>
        <pt x="79" y="202" on="0"/>
        <pt x="143" y="140" on="0"/>
        <pt x="189" y="140" on="1"/>
        <pt x="207" y="140" on="0"/>
        <pt x="276" y="150" on="0"/>
        <pt x="294" y="150" on="1"/>
        <pt x="339" y="150" on="0"/>
        <pt x="421" y="105" on="0"/>
        <pt x="449" y="65" on="1"/>
        <pt x="449" y="400" on="1"/>
        <pt x="449" y="427" on="0"/>
        <pt x="423" y="465" on="0"/>
        <pt x="404" y="465" on="1"/>
        <pt x="350" y="465" on="0"/>
        <pt x="249" y="351" on="0"/>
        <pt x="249" y="290" on="1"/>
        <pt x="256" y="297" on="0"/>
        <pt x="274" y="305" on="0"/>
        <pt x="284" y="305" on="1"/>
        <pt x="303" y="305" on="0"/>
        <pt x="329" y="282" on="0"/>
        <pt x="329" y="265" on="1"/>
        <pt x="329" y="244" on="0"/>
        <pt x="300" y="215" on="0"/>
        <pt x="279" y="215" on="1"/>
        <pt x="250" y="215" on="0"/>
        <pt x="209" y="262" on="0"/>
        <pt x="209" y="295" on="1"/>
        <pt x="209" y="369" on="0"/>
        <pt x="336" y="505" on="0"/>
        <pt x="404" y="505" on="1"/>
        <pt x="439" y="505" on="0"/>
        <pt x="489" y="446" on="0"/>
        <pt x="489" y="405" on="1"/>
        <pt x="489" y="370" on="1"/>
        <pt x="524" y="376" on="0"/>
        <pt x="569" y="436" on="0"/>
        <pt x="569" y="475" on="1"/>
        <pt x="569" y="518" on="0"/>
        <pt x="475" y="580" on="0"/>
        <pt x="409" y="580" on="1"/>
        <pt x="328" y="580" on="0"/>
        <pt x="214" y="647" on="0"/>
        <pt x="214" y="695" on="1"/>
        <pt x="214" y="706" on="0"/>
        <pt x="224" y="727" on="0"/>
        <pt x="234" y="735" on="1"/>
        <pt x="269" y="720" on="1"/>
        <pt x="262" y="716" on="0"/>
        <pt x="254" y="703" on="0"/>
        <pt x="254" y="695" on="1"/>
        <pt x="254" y="664" on="0"/>
        <pt x="351" y="620" on="0"/>
        <pt x="419" y="620" on="1"/>
        <pt x="498" y="620" on="0"/>
        <pt x="609" y="535" on="0"/>
        <pt x="609" y="475" on="1"/>
        <pt x="609" y="425" on="0"/>
        <pt x="542" y="344" on="0"/>
        <pt x="489" y="330" on="1"/>
        <pt x="489" y="0" on="1"/>
        <pt x="449" y="0" on="1"/>
      </contour>
    </TTGlyph>
    <TTGlyph name="u0993" xMin="34" yMin="-10" xMax="509" yMax="500">
      <contour>
        <pt x="329" y="-10" on="1"/>
        <pt x="218" y="-10" on="0"/>
        <pt x="48" y="206" on="0"/>
        <pt x="34" y="365" on="1"/>
        <pt x="74" y="370" on="1"/>
        <pt x="87" y="226" on="0"/>
        <pt x="233" y="30" on="0"/>
        <pt x="329" y="30" on="1"/>
        <pt x="387" y="30" on="0"/>
        <pt x="469" y="94" on="0"/>
        <pt x="469" y="140" on="1"/>
        <pt x="469" y="176" on="0"/>
        <pt x="422" y="235" on="0"/>
        <pt x="384" y="245" on="1"/>
        <pt x="367" y="235" on="0"/>
        <pt x="336" y="225" on="0"/>
        <pt x="324" y="225" on="1"/>
        <pt x="305" y="225" on="0"/>
        <pt x="279" y="246" on="0"/>
        <pt x="279" y="260" on="1"/>
        <pt x="279" y="277" on="0"/>
        <pt x="302" y="300" on="0"/>
        <pt x="319" y="300" on="1"/>
        <pt x="338" y="300" on="0"/>
        <pt x="371" y="292" on="0"/>
        <pt x="384" y="285" on="1"/>
        <pt x="410" y="303" on="0"/>
        <pt x="439" y="353" on="0"/>
        <pt x="439" y="380" on="1"/>
        <pt x="439" y="413" on="0"/>
        <pt x="375" y="460" on="0"/>
        <pt x="329" y="460" on="1"/>
        <pt x="288" y="460" on="0"/>
        <pt x="229" y="435" on="0"/>
        <pt x="224" y="415" on="1"/>
        <pt x="242" y="418" on="0"/>
        <pt x="269" y="391" on="0"/>
        <pt x="269" y="370" on="1"/>
        <pt x="269" y="353" on="0"/>
        <pt x="240" y="330" on="0"/>
        <pt x="219" y="330" on="1"/>
        <pt x="200" y="330" on="0"/>
        <pt x="174" y="362" on="0"/>
        <pt x="174" y="385" on="1"/>
        <pt x="174" y="433" on="0"/>
        <pt x="265" y="500" on="0"/>
        <pt x="329" y="500" on="1"/>
        <pt x="391" y="500" on="0"/>
        <pt x="479" y="430" on="0"/>
        <pt x="479" y="380" on="1"/>
        <pt x="479" y="345" on="0"/>
        <pt x="453" y="285" on="0"/>
        <pt x="429" y="265" on="1"/>
        <pt x="466" y="248" on="0"/>
        <pt x="509" y="180" on="0"/>
        <pt x="509" y="140" on="1"/>
        <pt x="509" y="78" on="0"/>
        <pt x="404" y="-10" on="0"/>
        <pt x="329" y="-10" on="1"/>
      </contour>
    </TTGlyph>
    <TTGlyph name="u0994" xMin="35" yMin="-10" xMax="620" yMax="740">
      <contour>
        <pt x="330" y="-10" on="1"/>
        <pt x="219" y="-10" on="0"/>
        <pt x="49" y="209" on="0"/>
        <pt x="35" y="370" on="1"/>
        <pt x="75" y="375" on="1"/>
        <pt x="88" y="229" on="0"/>
        <pt x="235" y="30" on="0"/>
        <pt x="330" y="30" on="1"/>
        <pt x="388" y="30" on="0"/>
        <pt x="470" y="94" on="0"/>
        <pt x="470" y="140" on="1"/>
        <pt x="470" y="176" on="0"/>
        <pt x="423" y="235" on="0"/>
        <pt x="385" y="245" on="1"/>
        <pt x="368" y="235" on="0"/>
        <pt x="337" y="225" on="0"/>
        <pt x="325" y="225" on="1"/>
        <pt x="306" y="225" on="0"/>
        <pt x="280" y="246" on="0"/>
        <pt x="280" y="260" on="1"/>
        <pt x="280" y="277" on="0"/>
        <pt x="306" y="300" on="0"/>
        <pt x="325" y="300" on="1"/>
        <pt x="339" y="300" on="0"/>
        <pt x="367" y="292" on="0"/>
        <pt x="380" y="285" on="1"/>
        <pt x="406" y="303" on="0"/>
        <pt x="435" y="351" on="0"/>
        <pt x="435" y="375" on="1"/>
        <pt x="435" y="414" on="0"/>
        <pt x="371" y="470" on="0"/>
        <pt x="325" y="470" on="1"/>
        <pt x="286" y="470" on="0"/>
        <pt x="228" y="443" on="0"/>
        <pt x="220" y="420" on="1"/>
        <pt x="243" y="420" on="0"/>
        <pt x="275" y="394" on="0"/>
        <pt x="275" y="375" on="1"/>
        <pt x="275" y="354" on="0"/>
        <pt x="243" y="325" on="0"/>
        <pt x="220" y="325" on="1"/>
        <pt x="199" y="325" on="0"/>
        <pt x="170" y="363" on="0"/>
        <pt x="170" y="390" on="1"/>
        <pt x="170" y="438" on="0"/>
        <pt x="264" y="505" on="0"/>
        <pt x="330" y="505" on="1"/>
        <pt x="390" y="505" on="0"/>
        <pt x="475" y="429" on="0"/>
        <pt x="475" y="375" on="1"/>
        <pt x="518" y="375" on="0"/>
        <pt x="580" y="425" on="0"/>
        <pt x="580" y="460" on="1"/>
        <pt x="580" y="501" on="0"/>
        <pt x="485" y="564" on="0"/>
        <pt x="415" y="570" on="1"/>
        <pt x="322" y="578" on="0"/>
        <pt x="195" y="663" on="0"/>
        <pt x="195" y="717" on="1"/>
        <pt x="195" y="725" on="0"/>
        <pt x="198" y="737" on="0"/>
        <pt x="200" y="740" on="1"/>
        <pt x="245" y="740" on="1"/>
        <pt x="243" y="733" on="0"/>
        <pt x="240" y="723" on="0"/>
        <pt x="240" y="720" on="1"/>
        <pt x="240" y="678" on="0"/>
        <pt x="352" y="612" on="0"/>
        <pt x="435" y="605" on="1"/>
        <pt x="514" y="598" on="0"/>
        <pt x="620" y="515" on="0"/>
        <pt x="620" y="460" on="1"/>
        <pt x="620" y="408" on="0"/>
        <pt x="531" y="335" on="0"/>
        <pt x="468" y="335" on="1"/>
        <pt x="467" y="320" on="0"/>
        <pt x="444" y="286" on="0"/>
        <pt x="425" y="270" on="1"/>
        <pt x="464" y="252" on="0"/>
        <pt x="510" y="181" on="0"/>
        <pt x="510" y="140" on="1"/>
        <pt x="510" y="78" on="0"/>
        <pt x="405" y="-10" on="0"/>
        <pt x="330" y="-10" on="1"/>
      </contour>
    </TTGlyph>
    <TTGlyph name="u0995" xMin="-10" yMin="0" xMax="548" yMax="500">
      <contour>
        <pt x="272" y="0" on="1"/>
        <pt x="242" y="82" on="0"/>
        <pt x="127" y="189" on="0"/>
        <pt x="57" y="200" on="1"/>
        <pt x="17" y="235" on="1"/>
        <pt x="68" y="307" on="0"/>
        <pt x="201" y="394" on="0"/>
        <pt x="272" y="400" on="1"/>
        <pt x="272" y="465" on="1"/>
        <pt x="-10" y="465" on="1"/>
        <pt x="-10" y="500" on="1"/>
        <pt x="548" y="500" on="1"/>
        <pt x="548" y="465" on="1"/>
        <pt x="312" y="465" on="1"/>
        <pt x="312" y="400" on="1"/>
        <pt x="393" y="393" on="0"/>
        <pt x="502" y="292" on="0"/>
        <pt x="502" y="225" on="1"/>
        <pt x="502" y="188" on="0"/>
        <pt x="459" y="135" on="0"/>
        <pt x="428" y="135" on="1"/>
        <pt x="405" y="135" on="0"/>
        <pt x="372" y="161" on="0"/>
        <pt x="372" y="180" on="1"/>
        <pt x="372" y="201" on="0"/>
        <pt x="402" y="230" on="0"/>
        <pt x="424" y="230" on="1"/>
        <pt x="434" y="230" on="0"/>
        <pt x="453" y="226" on="0"/>
        <pt x="460" y="223" on="1"/>
        <pt x="461" y="225" on="0"/>
        <pt x="462" y="231" on="0"/>
        <pt x="462" y="235" on="1"/>
        <pt x="462" y="279" on="0"/>
        <pt x="371" y="355" on="0"/>
        <pt x="312" y="360" on="1"/>
        <pt x="312" y="0" on="1"/>
        <pt x="272" y="0" on="1"/>
      </contour>
      <contour>
        <pt x="272" y="80" on="1"/>
        <pt x="272" y="360" on="1"/>
        <pt x="213" y="355" on="0"/>
        <pt x="108" y="292" on="0"/>
        <pt x="72" y="240" on="1"/>
        <pt x="140" y="222" on="0"/>
        <pt x="245" y="138" on="0"/>
        <pt x="272" y="80" on="1"/>
      </contour>
    </TTGlyph>
    <TTGlyph name="u0995_u09AC_u09CD.blwf.blws" xMin="-10" yMin="0" xMax="562" yMax="500">
      <contour>
        <pt x="308" y="0" on="1"/>
        <pt x="280" y="41" on="0"/>
        <pt x="161" y="93" on="0"/>
        <pt x="83" y="100" on="1"/>
        <pt x="53" y="130" on="1"/>
        <pt x="78" y="160" on="0"/>
        <pt x="121" y="200" on="0"/>
        <pt x="138" y="210" on="1"/>
        <pt x="124" y="224" on="0"/>
        <pt x="77" y="242" on="0"/>
        <pt x="48" y="245" on="1"/>
        <pt x="23" y="280" on="1"/>
        <pt x="69" y="334" on="0"/>
        <pt x="217" y="402" on="0"/>
        <pt x="308" y="410" on="1"/>
        <pt x="308" y="465" on="1"/>
        <pt x="-10" y="465" on="1"/>
        <pt x="-10" y="500" on="1"/>
        <pt x="562" y="500" on="1"/>
        <pt x="562" y="465" on="1"/>
        <pt x="348" y="465" on="1"/>
        <pt x="348" y="410" on="1"/>
        <pt x="420" y="410" on="0"/>
        <pt x="523" y="325" on="0"/>
        <pt x="523" y="265" on="1"/>
        <pt x="523" y="240" on="0"/>
        <pt x="494" y="205" on="0"/>
        <pt x="473" y="205" on="1"/>
        <pt x="454" y="205" on="0"/>
        <pt x="428" y="228" on="0"/>
        <pt x="428" y="245" on="1"/>
        <pt x="428" y="262" on="0"/>
        <pt x="454" y="286" on="0"/>
        <pt x="473" y="286" on="1"/>
        <pt x="483" y="285" on="1"/>
        <pt x="476" y="322" on="0"/>
        <pt x="400" y="370" on="0"/>
        <pt x="348" y="370" on="1"/>
        <pt x="348" y="0" on="1"/>
        <pt x="308" y="0" on="1"/>
      </contour>
      <contour>
        <pt x="308" y="50" on="1"/>
        <pt x="308" y="240" on="1"/>
        <pt x="253" y="235" on="0"/>
        <pt x="151" y="181" on="0"/>
        <pt x="113" y="135" on="1"/>
        <pt x="177" y="129" on="0"/>
        <pt x="278" y="85" on="0"/>
        <pt x="308" y="50" on="1"/>
      </contour>
      <contour>
        <pt x="168" y="235" on="1"/>
        <pt x="211" y="255" on="0"/>
        <pt x="281" y="278" on="0"/>
        <pt x="308" y="280" on="1"/>
        <pt x="308" y="370" on="1"/>
        <pt x="234" y="363" on="0"/>
        <pt x="115" y="317" on="0"/>
        <pt x="78" y="280" on="1"/>
        <pt x="105" y="275" on="0"/>
        <pt x="151" y="252" on="0"/>
        <pt x="168" y="235" on="1"/>
      </contour>
    </TTGlyph>
    <TTGlyph name="u0995_u09B0_u09CD.blwf.vatu" xMin="-10" yMin="0" xMax="653" yMax="500">
      <contour>
        <pt x="367" y="0" on="1"/>
        <pt x="364" y="34" on="0"/>
        <pt x="304" y="80" on="0"/>
        <pt x="262" y="80" on="1"/>
        <pt x="242" y="80" on="0"/>
        <pt x="162" y="70" on="0"/>
        <pt x="142" y="70" on="1"/>
        <pt x="99" y="70" on="0"/>
        <pt x="37" y="132" on="0"/>
        <pt x="37" y="175" on="1"/>
        <pt x="37" y="206" on="0"/>
        <pt x="55" y="265" on="0"/>
        <pt x="72" y="290" on="1"/>
        <pt x="102" y="270" on="1"/>
        <pt x="90" y="253" on="0"/>
        <pt x="77" y="204" on="0"/>
        <pt x="77" y="175" on="1"/>
        <pt x="77" y="148" on="0"/>
        <pt x="115" y="110" on="0"/>
        <pt x="142" y="110" on="1"/>
        <pt x="162" y="110" on="0"/>
        <pt x="242" y="120" on="0"/>
        <pt x="262" y="120" on="1"/>
        <pt x="295" y="120" on="0"/>
        <pt x="351" y="94" on="0"/>
        <pt x="367" y="70" on="1"/>
        <pt x="367" y="310" on="1"/>
        <pt x="367" y="341" on="0"/>
        <pt x="338" y="385" on="0"/>
        <pt x="317" y="385" on="1"/>
        <pt x="275" y="385" on="0"/>
        <pt x="218" y="322" on="0"/>
        <pt x="222" y="280" on="1"/>
        <pt x="228" y="284" on="0"/>
        <pt x="242" y="289" on="0"/>
        <pt x="248" y="289" on="1"/>
        <pt x="268" y="289" on="0"/>
        <pt x="297" y="261" on="0"/>
        <pt x="297" y="242" on="1"/>
        <pt x="297" y="225" on="0"/>
        <pt x="268" y="200" on="0"/>
        <pt x="247" y="200" on="1"/>
        <pt x="220" y="200" on="0"/>
        <pt x="182" y="250" on="0"/>
        <pt x="182" y="285" on="1"/>
        <pt x="182" y="343" on="0"/>
        <pt x="261" y="425" on="0"/>
        <pt x="317" y="425" on="1"/>
        <pt x="354" y="425" on="0"/>
        <pt x="407" y="366" on="0"/>
        <pt x="407" y="325" on="1"/>
        <pt x="423" y="349" on="0"/>
        <pt x="476" y="375" on="0"/>
        <pt x="507" y="375" on="1"/>
        <pt x="550" y="375" on="0"/>
        <pt x="612" y="316" on="0"/>
        <pt x="612" y="275" on="1"/>
        <pt x="612" y="236" on="0"/>
        <pt x="559" y="180" on="0"/>
        <pt x="522" y="180" on="1"/>
        <pt x="497" y="180" on="0"/>
        <pt x="462" y="206" on="0"/>
        <pt x="462" y="225" on="1"/>
        <pt x="462" y="239" on="0"/>
        <pt x="483" y="260" on="0"/>
        <pt x="497" y="260" on="1"/>
        <pt x="515" y="260" on="0"/>
        <pt x="540" y="236" on="0"/>
        <pt x="537" y="220" on="1"/>
        <pt x="552" y="223" on="0"/>
        <pt x="572" y="254" on="0"/>
        <pt x="572" y="275" on="1"/>
        <pt x="572" y="300" on="0"/>
        <pt x="534" y="335" on="0"/>
        <pt x="507" y="335" on="1"/>
        <pt x="468" y="335" on="0"/>
        <pt x="410" y="283" on="0"/>
        <pt x="407" y="245" on="1"/>
        <pt x="407" y="0" on="1"/>
        <pt x="367" y="0" on="1"/>
      </contour>
      <contour>
        <pt x="-10" y="465" on="1"/>
        <pt x="-10" y="500" on="1"/>
        <pt x="653" y="500" on="1"/>
        <pt x="653" y="465" on="1"/>
        <pt x="-10" y="465" on="1"/>
      </contour>
    </TTGlyph>
    <TTGlyph name="u0995_u09CD.half" xMin="-10" yMin="-254" xMax="548" yMax="500">
      <contour>
        <pt x="272" y="0" on="1"/>
        <pt x="242" y="82" on="0"/>
        <pt x="127" y="189" on="0"/>
        <pt x="57" y="200" on="1"/>
        <pt x="17" y="235" on="1"/>
        <pt x="68" y="307" on="0"/>
        <pt x="201" y="394" on="0"/>
        <pt x="272" y="400" on="1"/>
        <pt x="272" y="465" on="1"/>
        <pt x="-10" y="465" on="1"/>
        <pt x="-10" y="500" on="1"/>
        <pt x="548" y="500" on="1"/>
        <pt x="548" y="465" on="1"/>
        <pt x="312" y="465" on="1"/>
        <pt x="312" y="400" on="1"/>
        <pt x="393" y="393" on="0"/>
        <pt x="502" y="292" on="0"/>
        <pt x="502" y="225" on="1"/>
        <pt x="502" y="188" on="0"/>
        <pt x="459" y="135" on="0"/>
        <pt x="428" y="135" on="1"/>
        <pt x="405" y="135" on="0"/>
        <pt x="372" y="161" on="0"/>
        <pt x="372" y="180" on="1"/>
        <pt x="372" y="201" on="0"/>
        <pt x="402" y="230" on="0"/>
        <pt x="424" y="230" on="1"/>
        <pt x="434" y="230" on="0"/>
        <pt x="453" y="226" on="0"/>
        <pt x="460" y="223" on="1"/>
        <pt x="461" y="225" on="0"/>
        <pt x="462" y="231" on="0"/>
        <pt x="462" y="235" on="1"/>
        <pt x="462" y="279" on="0"/>
        <pt x="371" y="355" on="0"/>
        <pt x="312" y="360" on="1"/>
        <pt x="312" y="0" on="1"/>
        <pt x="272" y="0" on="1"/>
      </contour>
      <contour>
        <pt x="272" y="80" on="1"/>
        <pt x="272" y="360" on="1"/>
        <pt x="213" y="355" on="0"/>
        <pt x="108" y="292" on="0"/>
        <pt x="72" y="240" on="1"/>
        <pt x="140" y="222" on="0"/>
        <pt x="245" y="138" on="0"/>
        <pt x="272" y="80" on="1"/>
      </contour>
      <contour>
        <pt x="480" y="-254" on="1"/>
        <pt x="261" y="-49" on="1"/>
        <pt x="290" y="-19" on="1"/>
        <pt x="510" y="-224" on="1"/>
        <pt x="480" y="-254" on="1"/>
      </contour>
    </TTGlyph>
    <TTGlyph name="u0995_u09CD.half_u0995.pres" xMin="-10" yMin="0" xMax="576" yMax="500">
      <contour>
        <pt x="295" y="0" on="1"/>
        <pt x="247" y="48" on="0"/>
        <pt x="133" y="100" on="0"/>
        <pt x="75" y="100" on="1"/>
        <pt x="50" y="140" on="1"/>
        <pt x="61" y="153" on="0"/>
        <pt x="103" y="188" on="0"/>
        <pt x="135" y="210" on="1"/>
        <pt x="113" y="232" on="0"/>
        <pt x="69" y="255" on="0"/>
        <pt x="50" y="255" on="1"/>
        <pt x="25" y="285" on="1"/>
        <pt x="64" y="341" on="0"/>
        <pt x="206" y="412" on="0"/>
        <pt x="295" y="420" on="1"/>
        <pt x="295" y="465" on="1"/>
        <pt x="-10" y="465" on="1"/>
        <pt x="-10" y="500" on="1"/>
        <pt x="576" y="500" on="1"/>
        <pt x="576" y="465" on="1"/>
        <pt x="335" y="465" on="1"/>
        <pt x="335" y="420" on="1"/>
        <pt x="411" y="413" on="0"/>
        <pt x="515" y="347" on="0"/>
        <pt x="515" y="305" on="1"/>
        <pt x="515" y="282" on="0"/>
        <pt x="486" y="250" on="0"/>
        <pt x="465" y="250" on="1"/>
        <pt x="446" y="250" on="0"/>
        <pt x="420" y="273" on="0"/>
        <pt x="420" y="290" on="1"/>
        <pt x="420" y="305" on="0"/>
        <pt x="449" y="328" on="0"/>
        <pt x="470" y="330" on="1"/>
        <pt x="446" y="354" on="0"/>
        <pt x="376" y="380" on="0"/>
        <pt x="335" y="380" on="1"/>
        <pt x="335" y="270" on="1"/>
        <pt x="411" y="263" on="0"/>
        <pt x="515" y="188" on="0"/>
        <pt x="515" y="140" on="1"/>
        <pt x="515" y="113" on="0"/>
        <pt x="486" y="75" on="0"/>
        <pt x="465" y="75" on="1"/>
        <pt x="446" y="75" on="0"/>
        <pt x="420" y="101" on="0"/>
        <pt x="420" y="120" on="1"/>
        <pt x="420" y="139" on="0"/>
        <pt x="449" y="165" on="0"/>
        <pt x="470" y="165" on="1"/>
        <pt x="453" y="195" on="0"/>
        <pt x="380" y="230" on="0"/>
        <pt x="335" y="230" on="1"/>
        <pt x="335" y="0" on="1"/>
        <pt x="295" y="0" on="1"/>
      </contour>
      <contour>
        <pt x="295" y="50" on="1"/>
        <pt x="295" y="230" on="1"/>
        <pt x="253" y="226" on="0"/>
        <pt x="156" y="178" on="0"/>
        <pt x="105" y="135" on="1"/>
        <pt x="148" y="135" on="0"/>
        <pt x="246" y="91" on="0"/>
        <pt x="295" y="50" on="1"/>
      </contour>
      <contour>
        <pt x="170" y="230" on="1"/>
        <pt x="208" y="248" on="0"/>
        <pt x="271" y="268" on="0"/>
        <pt x="295" y="270" on="1"/>
        <pt x="295" y="380" on="1"/>
        <pt x="237" y="380" on="0"/>
        <pt x="126" y="331" on="0"/>
        <pt x="80" y="285" on="1"/>
        <pt x="105" y="281" on="0"/>
        <pt x="151" y="252" on="0"/>
        <pt x="170" y="230" on="1"/>
      </contour>
    </TTGlyph>
    <TTGlyph name="u0995_u09CD.half_u099F.pres" xMin="-10" yMin="-10" xMax="474" yMax="690">
      <contour>
        <pt x="238" y="-10" on="1"/>
        <pt x="178" y="-10" on="0"/>
        <pt x="93" y="49" on="0"/>
        <pt x="93" y="90" on="1"/>
        <pt x="93" y="119" on="0"/>
        <pt x="148" y="174" on="0"/>
        <pt x="193" y="190" on="1"/>
        <pt x="168" y="234" on="0"/>
        <pt x="79" y="285" on="0"/>
        <pt x="28" y="285" on="1"/>
        <pt x="18" y="325" on="1"/>
        <pt x="61" y="368" on="0"/>
        <pt x="173" y="415" on="0"/>
        <pt x="233" y="415" on="1"/>
        <pt x="233" y="465" on="1"/>
        <pt x="-10" y="465" on="1"/>
        <pt x="-10" y="500" on="1"/>
        <pt x="333" y="500" on="1"/>
        <pt x="333" y="533" on="0"/>
        <pt x="289" y="580" on="0"/>
        <pt x="258" y="580" on="1"/>
        <pt x="231" y="580" on="0"/>
        <pt x="125" y="560" on="0"/>
        <pt x="98" y="560" on="1"/>
        <pt x="61" y="560" on="0"/>
        <pt x="8" y="601" on="0"/>
        <pt x="8" y="630" on="1"/>
        <pt x="8" y="651" on="0"/>
        <pt x="21" y="683" on="0"/>
        <pt x="33" y="690" on="1"/>
        <pt x="68" y="675" on="1"/>
        <pt x="58" y="663" on="0"/>
        <pt x="48" y="643" on="0"/>
        <pt x="48" y="635" on="1"/>
        <pt x="48" y="621" on="0"/>
        <pt x="77" y="600" on="0"/>
        <pt x="98" y="600" on="1"/>
        <pt x="124" y="600" on="0"/>
        <pt x="227" y="620" on="0"/>
        <pt x="253" y="620" on="1"/>
        <pt x="303" y="620" on="0"/>
        <pt x="373" y="550" on="0"/>
        <pt x="373" y="500" on="1"/>
        <pt x="474" y="500" on="1"/>
        <pt x="474" y="465" on="1"/>
        <pt x="273" y="465" on="1"/>
        <pt x="273" y="415" on="1"/>
        <pt x="335" y="415" on="0"/>
        <pt x="423" y="330" on="0"/>
        <pt x="423" y="270" on="1"/>
        <pt x="423" y="247" on="0"/>
        <pt x="391" y="215" on="0"/>
        <pt x="368" y="215" on="1"/>
        <pt x="347" y="215" on="0"/>
        <pt x="318" y="241" on="0"/>
        <pt x="318" y="260" on="1"/>
        <pt x="318" y="280" on="0"/>
        <pt x="355" y="304" on="0"/>
        <pt x="378" y="300" on="1"/>
        <pt x="372" y="333" on="0"/>
        <pt x="313" y="375" on="0"/>
        <pt x="273" y="375" on="1"/>
        <pt x="273" y="225" on="1"/>
        <pt x="273" y="205" on="0"/>
        <pt x="235" y="166" on="0"/>
        <pt x="203" y="155" on="1"/>
        <pt x="171" y="144" on="0"/>
        <pt x="133" y="105" on="0"/>
        <pt x="133" y="85" on="1"/>
        <pt x="133" y="62" on="0"/>
        <pt x="195" y="30" on="0"/>
        <pt x="238" y="30" on="1"/>
        <pt x="269" y="30" on="0"/>
        <pt x="320" y="57" on="0"/>
        <pt x="333" y="80" on="1"/>
        <pt x="293" y="80" on="0"/>
        <pt x="293" y="160" on="0"/>
        <pt x="333" y="160" on="1"/>
        <pt x="354" y="160" on="0"/>
        <pt x="383" y="131" on="0"/>
        <pt x="383" y="110" on="1"/>
        <pt x="383" y="60" on="0"/>
        <pt x="298" y="-10" on="0"/>
        <pt x="238" y="-10" on="1"/>
      </contour>
      <contour>
        <pt x="223" y="210" on="1"/>
        <pt x="228" y="212" on="0"/>
        <pt x="233" y="228" on="0"/>
        <pt x="233" y="240" on="1"/>
        <pt x="233" y="375" on="1"/>
        <pt x="190" y="375" on="0"/>
        <pt x="108" y="344" on="0"/>
        <pt x="73" y="315" on="1"/>
        <pt x="125" y="306" on="0"/>
        <pt x="204" y="250" on="0"/>
        <pt x="223" y="210" on="1"/>
      </contour>
    </TTGlyph>
    <TTGlyph name="u0995_u09CD.half_u09A4.pres" xMin="-10" yMin="-10" xMax="757" yMax="500">
      <contour>
        <pt x="35" y="390" on="1"/>
        <pt x="75" y="395" on="1"/>
        <pt x="89" y="240" on="0"/>
        <pt x="253" y="30" on="0"/>
        <pt x="360" y="30" on="1"/>
        <pt x="410" y="30" on="0"/>
        <pt x="480" y="86" on="0"/>
        <pt x="480" y="125" on="1"/>
        <pt x="480" y="159" on="0"/>
        <pt x="440" y="210" on="0"/>
        <pt x="410" y="215" on="1"/>
        <pt x="398" y="203" on="0"/>
        <pt x="369" y="190" on="0"/>
        <pt x="355" y="190" on="1"/>
        <pt x="336" y="190" on="0"/>
        <pt x="310" y="213" on="0"/>
        <pt x="310" y="230" on="1"/>
        <pt x="310" y="247" on="0"/>
        <pt x="336" y="270" on="0"/>
        <pt x="355" y="270" on="1"/>
        <pt x="374" y="270" on="0"/>
        <pt x="403" y="262" on="0"/>
        <pt x="410" y="255" on="1"/>
        <pt x="426" y="264" on="0"/>
        <pt x="445" y="299" on="0"/>
        <pt x="445" y="320" on="1"/>
        <pt x="445" y="349" on="0"/>
        <pt x="381" y="390" on="0"/>
        <pt x="335" y="390" on="1"/>
        <pt x="295" y="390" on="0"/>
        <pt x="237" y="359" on="0"/>
        <pt x="230" y="335" on="1"/>
        <pt x="250" y="342" on="0"/>
        <pt x="285" y="323" on="0"/>
        <pt x="285" y="305" on="1"/>
        <pt x="285" y="288" on="0"/>
        <pt x="259" y="265" on="0"/>
        <pt x="240" y="265" on="1"/>
        <pt x="219" y="265" on="0"/>
        <pt x="190" y="297" on="0"/>
        <pt x="190" y="320" on="1"/>
        <pt x="190" y="366" on="0"/>
        <pt x="275" y="430" on="0"/>
        <pt x="335" y="430" on="1"/>
        <pt x="381" y="430" on="0"/>
        <pt x="459" y="387" on="0"/>
        <pt x="480" y="350" on="1"/>
        <pt x="502" y="372" on="0"/>
        <pt x="559" y="395" on="0"/>
        <pt x="590" y="395" on="1"/>
        <pt x="642" y="395" on="0"/>
        <pt x="715" y="328" on="0"/>
        <pt x="715" y="280" on="1"/>
        <pt x="715" y="239" on="0"/>
        <pt x="653" y="180" on="0"/>
        <pt x="610" y="180" on="1"/>
        <pt x="585" y="180" on="0"/>
        <pt x="550" y="206" on="0"/>
        <pt x="550" y="225" on="1"/>
        <pt x="550" y="239" on="0"/>
        <pt x="573" y="260" on="0"/>
        <pt x="590" y="260" on="1"/>
        <pt x="607" y="260" on="0"/>
        <pt x="630" y="237" on="0"/>
        <pt x="630" y="220" on="1"/>
        <pt x="650" y="225" on="0"/>
        <pt x="675" y="259" on="0"/>
        <pt x="675" y="280" on="1"/>
        <pt x="675" y="311" on="0"/>
        <pt x="625" y="355" on="0"/>
        <pt x="590" y="355" on="1"/>
        <pt x="560" y="355" on="0"/>
        <pt x="505" y="329" on="0"/>
        <pt x="485" y="305" on="1"/>
        <pt x="485" y="291" on="0"/>
        <pt x="470" y="257" on="0"/>
        <pt x="455" y="240" on="1"/>
        <pt x="485" y="226" on="0"/>
        <pt x="520" y="164" on="0"/>
        <pt x="520" y="125" on="1"/>
        <pt x="520" y="69" on="0"/>
        <pt x="426" y="-10" on="0"/>
        <pt x="360" y="-10" on="1"/>
        <pt x="237" y="-10" on="0"/>
        <pt x="50" y="220" on="0"/>
        <pt x="35" y="390" on="1"/>
      </contour>
      <contour>
        <pt x="-10" y="465" on="1"/>
        <pt x="-10" y="500" on="1"/>
        <pt x="757" y="500" on="1"/>
        <pt x="757" y="465" on="1"/>
        <pt x="-10" y="465" on="1"/>
      </contour>
    </TTGlyph>
    <TTGlyph name="u0995_u09CD.half_u09A4_u09AC_u09CD.blwf.pres" xMin="-10" yMin="-195" xMax="682" yMax="500">
      <contour>
        <pt x="331" y="-195" on="1"/>
        <pt x="310" y="-158" on="0"/>
        <pt x="229" y="-115" on="0"/>
        <pt x="181" y="-115" on="1"/>
        <pt x="166" y="-80" on="1"/>
        <pt x="195" y="-51" on="0"/>
        <pt x="261" y="-8" on="0"/>
        <pt x="296" y="5" on="1"/>
        <pt x="183" y="25" on="0"/>
        <pt x="36" y="220" on="0"/>
        <pt x="36" y="350" on="1"/>
        <pt x="76" y="355" on="1"/>
        <pt x="76" y="225" on="0"/>
        <pt x="222" y="40" on="0"/>
        <pt x="326" y="40" on="1"/>
        <pt x="365" y="40" on="0"/>
        <pt x="421" y="90" on="0"/>
        <pt x="421" y="125" on="1"/>
        <pt x="421" y="154" on="0"/>
        <pt x="386" y="195" on="0"/>
        <pt x="361" y="195" on="1"/>
        <pt x="352" y="190" on="0"/>
        <pt x="335" y="185" on="0"/>
        <pt x="326" y="185" on="1"/>
        <pt x="307" y="185" on="0"/>
        <pt x="281" y="206" on="0"/>
        <pt x="281" y="220" on="1"/>
        <pt x="281" y="234" on="0"/>
        <pt x="307" y="255" on="0"/>
        <pt x="326" y="255" on="1"/>
        <pt x="333" y="255" on="0"/>
        <pt x="350" y="250" on="0"/>
        <pt x="361" y="245" on="1"/>
        <pt x="378" y="262" on="0"/>
        <pt x="396" y="298" on="0"/>
        <pt x="396" y="315" on="1"/>
        <pt x="396" y="346" on="0"/>
        <pt x="343" y="390" on="0"/>
        <pt x="306" y="390" on="1"/>
        <pt x="276" y="390" on="0"/>
        <pt x="230" y="359" on="0"/>
        <pt x="226" y="335" on="1"/>
        <pt x="233" y="336" on="1"/>
        <pt x="253" y="336" on="0"/>
        <pt x="281" y="312" on="0"/>
        <pt x="281" y="295" on="1"/>
        <pt x="281" y="276" on="0"/>
        <pt x="252" y="250" on="0"/>
        <pt x="231" y="250" on="1"/>
        <pt x="208" y="250" on="0"/>
        <pt x="176" y="285" on="0"/>
        <pt x="176" y="310" on="1"/>
        <pt x="176" y="360" on="0"/>
        <pt x="252" y="430" on="0"/>
        <pt x="306" y="430" on="1"/>
        <pt x="354" y="430" on="0"/>
        <pt x="427" y="385" on="0"/>
        <pt x="436" y="350" on="1"/>
        <pt x="460" y="374" on="0"/>
        <pt x="512" y="400" on="0"/>
        <pt x="536" y="400" on="1"/>
        <pt x="579" y="400" on="0"/>
        <pt x="641" y="341" on="0"/>
        <pt x="641" y="300" on="1"/>
        <pt x="641" y="259" on="0"/>
        <pt x="585" y="200" on="0"/>
        <pt x="546" y="200" on="1"/>
        <pt x="521" y="200" on="0"/>
        <pt x="486" y="229" on="0"/>
        <pt x="486" y="250" on="1"/>
        <pt x="486" y="269" on="0"/>
        <pt x="512" y="295" on="0"/>
        <pt x="531" y="295" on="1"/>
        <pt x="550" y="295" on="0"/>
        <pt x="576" y="272" on="0"/>
        <pt x="576" y="255" on="1"/>
        <pt x="587" y="260" on="0"/>
        <pt x="601" y="285" on="0"/>
        <pt x="601" y="300" on="1"/>
        <pt x="601" y="325" on="0"/>
        <pt x="563" y="360" on="0"/>
        <pt x="536" y="360" on="1"/>
        <pt x="517" y="360" on="0"/>
        <pt x="465" y="329" on="0"/>
        <pt x="436" y="300" on="1"/>
        <pt x="437" y="285" on="0"/>
        <pt x="416" y="245" on="0"/>
        <pt x="396" y="225" on="1"/>
        <pt x="425" y="214" on="0"/>
        <pt x="461" y="159" on="0"/>
        <pt x="461" y="125" on="1"/>
        <pt x="461" y="88" on="0"/>
        <pt x="412" y="25" on="0"/>
        <pt x="371" y="10" on="1"/>
        <pt x="371" y="-195" on="1"/>
        <pt x="331" y="-195" on="1"/>
      </contour>
      <contour>
        <pt x="331" y="-140" on="1"/>
        <pt x="331" y="-10" on="1"/>
        <pt x="221" y="-80" on="1"/>
        <pt x="255" y="-86" on="0"/>
        <pt x="312" y="-117" on="0"/>
        <pt x="331" y="-140" on="1"/>
      </contour>
      <contour>
        <pt x="-10" y="465" on="1"/>
        <pt x="-10" y="500" on="1"/>
        <pt x="682" y="500" on="1"/>
        <pt x="682" y="465" on="1"/>
        <pt x="-10" y="465" on="1"/>
      </contour>
    </TTGlyph>
    <TTGlyph name="u0995_u09CD.half_u09A4_u09B0_u09CD.blwf.vatu.pres" xMin="-10" yMin="-140" xMax="757" yMax="500">
      <contour>
        <pt x="35" y="390" on="1"/>
        <pt x="75" y="395" on="1"/>
        <pt x="89" y="240" on="0"/>
        <pt x="253" y="30" on="0"/>
        <pt x="360" y="30" on="1"/>
        <pt x="410" y="30" on="0"/>
        <pt x="480" y="86" on="0"/>
        <pt x="480" y="125" on="1"/>
        <pt x="480" y="159" on="0"/>
        <pt x="440" y="210" on="0"/>
        <pt x="410" y="215" on="1"/>
        <pt x="398" y="203" on="0"/>
        <pt x="369" y="190" on="0"/>
        <pt x="355" y="190" on="1"/>
        <pt x="336" y="190" on="0"/>
        <pt x="310" y="213" on="0"/>
        <pt x="310" y="230" on="1"/>
        <pt x="310" y="247" on="0"/>
        <pt x="336" y="270" on="0"/>
        <pt x="355" y="270" on="1"/>
        <pt x="374" y="270" on="0"/>
        <pt x="403" y="262" on="0"/>
        <pt x="410" y="255" on="1"/>
        <pt x="426" y="264" on="0"/>
        <pt x="445" y="299" on="0"/>
        <pt x="445" y="320" on="1"/>
        <pt x="445" y="349" on="0"/>
        <pt x="381" y="390" on="0"/>
        <pt x="335" y="390" on="1"/>
        <pt x="295" y="390" on="0"/>
        <pt x="237" y="359" on="0"/>
        <pt x="230" y="335" on="1"/>
        <pt x="250" y="342" on="0"/>
        <pt x="285" y="323" on="0"/>
        <pt x="285" y="305" on="1"/>
        <pt x="285" y="288" on="0"/>
        <pt x="259" y="265" on="0"/>
        <pt x="240" y="265" on="1"/>
        <pt x="219" y="265" on="0"/>
        <pt x="190" y="297" on="0"/>
        <pt x="190" y="320" on="1"/>
        <pt x="190" y="366" on="0"/>
        <pt x="275" y="430" on="0"/>
        <pt x="335" y="430" on="1"/>
        <pt x="381" y="430" on="0"/>
        <pt x="459" y="387" on="0"/>
        <pt x="480" y="350" on="1"/>
        <pt x="502" y="372" on="0"/>
        <pt x="559" y="395" on="0"/>
        <pt x="590" y="395" on="1"/>
        <pt x="642" y="395" on="0"/>
        <pt x="715" y="328" on="0"/>
        <pt x="715" y="280" on="1"/>
        <pt x="715" y="239" on="0"/>
        <pt x="653" y="180" on="0"/>
        <pt x="610" y="180" on="1"/>
        <pt x="585" y="180" on="0"/>
        <pt x="550" y="206" on="0"/>
        <pt x="550" y="225" on="1"/>
        <pt x="550" y="239" on="0"/>
        <pt x="573" y="260" on="0"/>
        <pt x="590" y="260" on="1"/>
        <pt x="607" y="260" on="0"/>
        <pt x="630" y="237" on="0"/>
        <pt x="630" y="220" on="1"/>
        <pt x="650" y="225" on="0"/>
        <pt x="675" y="259" on="0"/>
        <pt x="675" y="280" on="1"/>
        <pt x="675" y="311" on="0"/>
        <pt x="625" y="355" on="0"/>
        <pt x="590" y="355" on="1"/>
        <pt x="560" y="355" on="0"/>
        <pt x="505" y="329" on="0"/>
        <pt x="485" y="305" on="1"/>
        <pt x="485" y="291" on="0"/>
        <pt x="470" y="257" on="0"/>
        <pt x="455" y="240" on="1"/>
        <pt x="485" y="226" on="0"/>
        <pt x="520" y="164" on="0"/>
        <pt x="520" y="125" on="1"/>
        <pt x="520" y="115" on="0"/>
        <pt x="516" y="94" on="0"/>
        <pt x="512" y="84" on="1"/>
        <pt x="512" y="-140" on="1"/>
        <pt x="472" y="-140" on="1"/>
        <pt x="467" y="-120" on="0"/>
        <pt x="416" y="-95" on="0"/>
        <pt x="382" y="-95" on="1"/>
        <pt x="350" y="-95" on="0"/>
        <pt x="229" y="-135" on="0"/>
        <pt x="197" y="-135" on="1"/>
        <pt x="164" y="-135" on="0"/>
        <pt x="117" y="-79" on="0"/>
        <pt x="117" y="-40" on="1"/>
        <pt x="152" y="-40" on="1"/>
        <pt x="152" y="-63" on="0"/>
        <pt x="178" y="-95" on="0"/>
        <pt x="197" y="-95" on="1"/>
        <pt x="229" y="-95" on="0"/>
        <pt x="350" y="-55" on="0"/>
        <pt x="382" y="-55" on="1"/>
        <pt x="414" y="-55" on="0"/>
        <pt x="463" y="-74" on="0"/>
        <pt x="472" y="-90" on="1"/>
        <pt x="472" y="29" on="1"/>
        <pt x="449" y="10" on="0"/>
        <pt x="392" y="-10" on="0"/>
        <pt x="360" y="-10" on="1"/>
        <pt x="237" y="-10" on="0"/>
        <pt x="50" y="220" on="0"/>
        <pt x="35" y="390" on="1"/>
      </contour>
      <contour>
        <pt x="-10" y="465" on="1"/>
        <pt x="-10" y="500" on="1"/>
        <pt x="757" y="500" on="1"/>
        <pt x="757" y="465" on="1"/>
        <pt x="-10" y="465" on="1"/>
      </contour>
    </TTGlyph>
    <TTGlyph name="u0995_u09CD.half_u09A8.pres" xMin="-10" yMin="-40" xMax="560" yMax="500">
      <contour>
        <pt x="43" y="255" on="1"/>
        <pt x="94" y="328" on="0"/>
        <pt x="232" y="410" on="0"/>
        <pt x="303" y="410" on="1"/>
        <pt x="303" y="465" on="1"/>
        <pt x="-10" y="465" on="1"/>
        <pt x="-10" y="500" on="1"/>
        <pt x="560" y="500" on="1"/>
        <pt x="560" y="465" on="1"/>
        <pt x="343" y="465" on="1"/>
        <pt x="343" y="410" on="1"/>
        <pt x="417" y="404" on="0"/>
        <pt x="518" y="314" on="0"/>
        <pt x="518" y="255" on="1"/>
        <pt x="518" y="224" on="0"/>
        <pt x="483" y="180" on="0"/>
        <pt x="458" y="180" on="1"/>
        <pt x="437" y="180" on="0"/>
        <pt x="408" y="207" on="0"/>
        <pt x="408" y="245" on="0"/>
        <pt x="438" y="272" on="0"/>
        <pt x="460" y="272" on="1"/>
        <pt x="465" y="272" on="0"/>
        <pt x="474" y="271" on="0"/>
        <pt x="478" y="270" on="1"/>
        <pt x="470" y="313" on="0"/>
        <pt x="394" y="370" on="0"/>
        <pt x="343" y="370" on="1"/>
        <pt x="343" y="-40" on="1"/>
        <pt x="303" y="-40" on="1"/>
        <pt x="275" y="9" on="0"/>
        <pt x="192" y="65" on="0"/>
        <pt x="148" y="65" on="1"/>
        <pt x="150" y="57" on="1"/>
        <pt x="151" y="53" on="0"/>
        <pt x="151" y="49" on="1"/>
        <pt x="151" y="25" on="0"/>
        <pt x="118" y="-10" on="0"/>
        <pt x="94" y="-10" on="1"/>
        <pt x="69" y="-10" on="0"/>
        <pt x="33" y="25" on="0"/>
        <pt x="33" y="75" on="0"/>
        <pt x="77" y="110" on="0"/>
        <pt x="108" y="110" on="1"/>
        <pt x="170" y="110" on="0"/>
        <pt x="273" y="62" on="0"/>
        <pt x="303" y="20" on="1"/>
        <pt x="303" y="65" on="1"/>
        <pt x="261" y="137" on="0"/>
        <pt x="138" y="220" on="0"/>
        <pt x="73" y="220" on="1"/>
        <pt x="43" y="255" on="1"/>
      </contour>
      <contour>
        <pt x="303" y="130" on="1"/>
        <pt x="303" y="370" on="1"/>
        <pt x="253" y="374" on="0"/>
        <pt x="142" y="313" on="0"/>
        <pt x="93" y="255" on="1"/>
        <pt x="155" y="250" on="0"/>
        <pt x="265" y="184" on="0"/>
        <pt x="303" y="130" on="1"/>
      </contour>
    </TTGlyph>
    <TTGlyph name="u0995_u09CD.half_u09AE.pres" xMin="-10" yMin="0" xMax="613" yMax="500">
      <contour>
        <pt x="473" y="0" on="1"/>
        <pt x="457" y="43" on="0"/>
        <pt x="342" y="95" on="0"/>
        <pt x="263" y="95" on="1"/>
        <pt x="265" y="71" on="0"/>
        <pt x="235" y="35" on="0"/>
        <pt x="213" y="35" on="1"/>
        <pt x="188" y="35" on="0"/>
        <pt x="153" y="64" on="0"/>
        <pt x="153" y="106" on="0"/>
        <pt x="187" y="135" on="0"/>
        <pt x="211" y="135" on="1"/>
        <pt x="223" y="134" on="1"/>
        <pt x="209" y="185" on="0"/>
        <pt x="108" y="254" on="0"/>
        <pt x="38" y="260" on="1"/>
        <pt x="18" y="300" on="1"/>
        <pt x="54" y="352" on="0"/>
        <pt x="162" y="415" on="0"/>
        <pt x="223" y="420" on="1"/>
        <pt x="223" y="465" on="1"/>
        <pt x="-10" y="465" on="1"/>
        <pt x="-10" y="500" on="1"/>
        <pt x="613" y="500" on="1"/>
        <pt x="613" y="465" on="1"/>
        <pt x="513" y="465" on="1"/>
        <pt x="513" y="0" on="1"/>
        <pt x="473" y="0" on="1"/>
      </contour>
      <contour>
        <pt x="473" y="55" on="1"/>
        <pt x="473" y="465" on="1"/>
        <pt x="263" y="465" on="1"/>
        <pt x="263" y="420" on="1"/>
        <pt x="327" y="420" on="0"/>
        <pt x="418" y="344" on="0"/>
        <pt x="418" y="290" on="1"/>
        <pt x="418" y="259" on="0"/>
        <pt x="386" y="215" on="0"/>
        <pt x="363" y="215" on="1"/>
        <pt x="344" y="215" on="0"/>
        <pt x="318" y="238" on="0"/>
        <pt x="318" y="255" on="1"/>
        <pt x="318" y="271" on="0"/>
        <pt x="344" y="293" on="0"/>
        <pt x="362" y="293" on="1"/>
        <pt x="366" y="293" on="0"/>
        <pt x="370" y="292" on="1"/>
        <pt x="378" y="290" on="1"/>
        <pt x="378" y="327" on="0"/>
        <pt x="311" y="380" on="0"/>
        <pt x="263" y="380" on="1"/>
        <pt x="263" y="135" on="1"/>
        <pt x="341" y="128" on="0"/>
        <pt x="451" y="86" on="0"/>
        <pt x="473" y="55" on="1"/>
      </contour>
      <contour>
        <pt x="223" y="205" on="1"/>
        <pt x="223" y="380" on="1"/>
        <pt x="177" y="376" on="0"/>
        <pt x="94" y="332" on="0"/>
        <pt x="63" y="295" on="1"/>
        <pt x="116" y="286" on="0"/>
        <pt x="199" y="239" on="0"/>
        <pt x="223" y="205" on="1"/>
      </contour>
    </TTGlyph>
    <TTGlyph name="u0995_u09CD.half_u09B2.pres" xMin="-10" yMin="-45" xMax="612" yMax="500">
      <contour>
        <pt x="342" y="0" on="1"/>
        <pt x="342" y="25" on="0"/>
        <pt x="310" y="60" on="0"/>
        <pt x="287" y="60" on="1"/>
        <pt x="268" y="60" on="0"/>
        <pt x="242" y="31" on="0"/>
        <pt x="242" y="10" on="1"/>
        <pt x="207" y="10" on="1"/>
        <pt x="207" y="45" on="0"/>
        <pt x="157" y="95" on="0"/>
        <pt x="122" y="95" on="1"/>
        <pt x="99" y="95" on="0"/>
        <pt x="67" y="63" on="0"/>
        <pt x="67" y="40" on="1"/>
        <pt x="67" y="25" on="0"/>
        <pt x="83" y="0" on="0"/>
        <pt x="97" y="-5" on="1"/>
        <pt x="99" y="6" on="0"/>
        <pt x="116" y="20" on="0"/>
        <pt x="127" y="20" on="1"/>
        <pt x="139" y="20" on="0"/>
        <pt x="157" y="2" on="0"/>
        <pt x="157" y="-10" on="1"/>
        <pt x="157" y="-24" on="0"/>
        <pt x="131" y="-45" on="0"/>
        <pt x="112" y="-45" on="1"/>
        <pt x="77" y="-45" on="0"/>
        <pt x="27" y="5" on="0"/>
        <pt x="27" y="40" on="1"/>
        <pt x="27" y="77" on="0"/>
        <pt x="83" y="130" on="0"/>
        <pt x="122" y="130" on="1"/>
        <pt x="159" y="130" on="0"/>
        <pt x="216" y="94" on="0"/>
        <pt x="227" y="65" on="1"/>
        <pt x="237" y="80" on="0"/>
        <pt x="270" y="96" on="0"/>
        <pt x="289" y="96" on="1"/>
        <pt x="301" y="96" on="0"/>
        <pt x="324" y="85" on="0"/>
        <pt x="332" y="75" on="1"/>
        <pt x="311" y="134" on="0"/>
        <pt x="183" y="212" on="0"/>
        <pt x="97" y="220" on="1"/>
        <pt x="77" y="255" on="1"/>
        <pt x="129" y="317" on="0"/>
        <pt x="265" y="396" on="0"/>
        <pt x="342" y="410" on="1"/>
        <pt x="342" y="465" on="1"/>
        <pt x="-10" y="465" on="1"/>
        <pt x="-10" y="500" on="1"/>
        <pt x="612" y="500" on="1"/>
        <pt x="612" y="465" on="1"/>
        <pt x="382" y="465" on="1"/>
        <pt x="382" y="410" on="1"/>
        <pt x="459" y="410" on="0"/>
        <pt x="567" y="322" on="0"/>
        <pt x="567" y="260" on="1"/>
        <pt x="567" y="221" on="0"/>
        <pt x="523" y="165" on="0"/>
        <pt x="492" y="165" on="1"/>
        <pt x="473" y="165" on="0"/>
        <pt x="447" y="191" on="0"/>
        <pt x="447" y="210" on="1"/>
        <pt x="448" y="227" on="0"/>
        <pt x="473" y="250" on="0"/>
        <pt x="490" y="250" on="1"/>
        <pt x="502" y="250" on="0"/>
        <pt x="521" y="245" on="0"/>
        <pt x="527" y="240" on="1"/>
        <pt x="528" y="243" on="0"/>
        <pt x="530" y="254" on="0"/>
        <pt x="530" y="262" on="1"/>
        <pt x="530" y="311" on="0"/>
        <pt x="442" y="375" on="0"/>
        <pt x="382" y="370" on="1"/>
        <pt x="382" y="0" on="1"/>
        <pt x="342" y="0" on="1"/>
      </contour>
      <contour>
        <pt x="342" y="130" on="1"/>
        <pt x="342" y="370" on="1"/>
        <pt x="292" y="366" on="0"/>
        <pt x="183" y="306" on="0"/>
        <pt x="132" y="255" on="1"/>
        <pt x="200" y="249" on="0"/>
        <pt x="312" y="183" on="0"/>
        <pt x="342" y="130" on="1"/>
      </contour>
    </TTGlyph>
    <TTGlyph name="u0995_u09CD.half_u09B7.pres" xMin="-10" yMin="0" xMax="633" yMax="500">
      <contour>
        <pt x="384" y="0" on="1"/>
        <pt x="376" y="46" on="0"/>
        <pt x="306" y="121" on="0"/>
        <pt x="254" y="140" on="1"/>
        <pt x="252" y="119" on="0"/>
        <pt x="220" y="90" on="0"/>
        <pt x="199" y="90" on="1"/>
        <pt x="176" y="90" on="0"/>
        <pt x="144" y="116" on="0"/>
        <pt x="144" y="135" on="1"/>
        <pt x="144" y="156" on="0"/>
        <pt x="176" y="186" on="0"/>
        <pt x="199" y="186" on="1"/>
        <pt x="219" y="185" on="1"/>
        <pt x="227" y="231" on="0"/>
        <pt x="177" y="307" on="0"/>
        <pt x="134" y="315" on="1"/>
        <pt x="134" y="288" on="0"/>
        <pt x="102" y="250" on="0"/>
        <pt x="79" y="250" on="1"/>
        <pt x="56" y="250" on="0"/>
        <pt x="24" y="276" on="0"/>
        <pt x="24" y="295" on="1"/>
        <pt x="24" y="318" on="0"/>
        <pt x="58" y="351" on="0"/>
        <pt x="82" y="351" on="1"/>
        <pt x="94" y="350" on="1"/>
        <pt x="94" y="386" on="0"/>
        <pt x="59" y="448" on="0"/>
        <pt x="29" y="465" on="1"/>
        <pt x="-10" y="465" on="1"/>
        <pt x="-10" y="500" on="1"/>
        <pt x="633" y="500" on="1"/>
        <pt x="633" y="465" on="1"/>
        <pt x="424" y="465" on="1"/>
        <pt x="424" y="335" on="1"/>
        <pt x="494" y="335" on="0"/>
        <pt x="594" y="268" on="0"/>
        <pt x="594" y="220" on="1"/>
        <pt x="594" y="185" on="0"/>
        <pt x="553" y="135" on="0"/>
        <pt x="524" y="135" on="1"/>
        <pt x="501" y="135" on="0"/>
        <pt x="469" y="161" on="0"/>
        <pt x="469" y="180" on="1"/>
        <pt x="469" y="199" on="0"/>
        <pt x="498" y="225" on="0"/>
        <pt x="519" y="225" on="1"/>
        <pt x="527" y="225" on="0"/>
        <pt x="543" y="217" on="0"/>
        <pt x="549" y="210" on="1"/>
        <pt x="565" y="238" on="0"/>
        <pt x="482" y="295" on="0"/>
        <pt x="424" y="295" on="1"/>
        <pt x="424" y="0" on="1"/>
        <pt x="384" y="0" on="1"/>
      </contour>
      <contour>
        <pt x="384" y="90" on="1"/>
        <pt x="384" y="295" on="1"/>
        <pt x="312" y="295" on="0"/>
        <pt x="209" y="395" on="0"/>
        <pt x="209" y="465" on="1"/>
        <pt x="84" y="465" on="1"/>
        <pt x="108" y="449" on="0"/>
        <pt x="134" y="388" on="0"/>
        <pt x="134" y="350" on="1"/>
        <pt x="196" y="345" on="0"/>
        <pt x="270" y="240" on="0"/>
        <pt x="259" y="175" on="1"/>
        <pt x="299" y="168" on="0"/>
        <pt x="365" y="123" on="0"/>
        <pt x="384" y="90" on="1"/>
      </contour>
      <contour>
        <pt x="384" y="335" on="1"/>
        <pt x="384" y="465" on="1"/>
        <pt x="249" y="465" on="1"/>
        <pt x="249" y="411" on="0"/>
        <pt x="328" y="335" on="0"/>
        <pt x="384" y="335" on="1"/>
      </contour>
    </TTGlyph>
    <TTGlyph name="u0995_u09CD.half_u09B7_u09AC_u09CD.blwf.pres" xMin="-10" yMin="-130" xMax="629" yMax="500">
      <contour>
        <pt x="-10" y="465" on="1"/>
        <pt x="-10" y="500" on="1"/>
        <pt x="629" y="500" on="1"/>
        <pt x="629" y="465" on="1"/>
        <pt x="420" y="465" on="1"/>
        <pt x="420" y="335" on="1"/>
        <pt x="490" y="335" on="0"/>
        <pt x="590" y="271" on="0"/>
        <pt x="590" y="225" on="1"/>
        <pt x="590" y="188" on="0"/>
        <pt x="546" y="135" on="0"/>
        <pt x="515" y="135" on="1"/>
        <pt x="492" y="135" on="0"/>
        <pt x="460" y="161" on="0"/>
        <pt x="460" y="180" on="1"/>
        <pt x="460" y="199" on="0"/>
        <pt x="486" y="225" on="0"/>
        <pt x="505" y="225" on="1"/>
        <pt x="516" y="225" on="0"/>
        <pt x="537" y="215" on="0"/>
        <pt x="545" y="205" on="1"/>
        <pt x="547" y="208" on="0"/>
        <pt x="549" y="218" on="0"/>
        <pt x="549" y="224" on="1"/>
        <pt x="549" y="253" on="0"/>
        <pt x="473" y="295" on="0"/>
        <pt x="420" y="295" on="1"/>
        <pt x="420" y="-130" on="1"/>
        <pt x="380" y="-130" on="1"/>
        <pt x="360" y="-95" on="0"/>
        <pt x="269" y="-55" on="0"/>
        <pt x="210" y="-55" on="1"/>
        <pt x="190" y="-20" on="1"/>
        <pt x="226" y="23" on="0"/>
        <pt x="307" y="84" on="0"/>
        <pt x="349" y="100" on="1"/>
        <pt x="331" y="114" on="0"/>
        <pt x="280" y="135" on="0"/>
        <pt x="250" y="140" on="1"/>
        <pt x="248" y="119" on="0"/>
        <pt x="216" y="90" on="0"/>
        <pt x="195" y="90" on="1"/>
        <pt x="174" y="90" on="0"/>
        <pt x="145" y="119" on="0"/>
        <pt x="145" y="140" on="1"/>
        <pt x="145" y="162" on="0"/>
        <pt x="188" y="190" on="0"/>
        <pt x="215" y="185" on="1"/>
        <pt x="223" y="231" on="0"/>
        <pt x="173" y="307" on="0"/>
        <pt x="130" y="315" on="1"/>
        <pt x="130" y="290" on="0"/>
        <pt x="98" y="255" on="0"/>
        <pt x="75" y="255" on="1"/>
        <pt x="54" y="255" on="0"/>
        <pt x="25" y="281" on="0"/>
        <pt x="25" y="300" on="1"/>
        <pt x="25" y="321" on="0"/>
        <pt x="63" y="350" on="0"/>
        <pt x="90" y="350" on="1"/>
        <pt x="82" y="379" on="0"/>
        <pt x="54" y="437" on="0"/>
        <pt x="35" y="465" on="1"/>
        <pt x="-10" y="465" on="1"/>
      </contour>
      <contour>
        <pt x="380" y="70" on="1"/>
        <pt x="345" y="60" on="0"/>
        <pt x="278" y="14" on="0"/>
        <pt x="250" y="-20" on="1"/>
        <pt x="302" y="-29" on="0"/>
        <pt x="370" y="-55" on="0"/>
        <pt x="380" y="-70" on="1"/>
        <pt x="380" y="70" on="1"/>
      </contour>
      <contour>
        <pt x="380" y="115" on="1"/>
        <pt x="380" y="295" on="1"/>
        <pt x="308" y="295" on="0"/>
        <pt x="205" y="395" on="0"/>
        <pt x="205" y="465" on="1"/>
        <pt x="80" y="465" on="1"/>
        <pt x="101" y="428" on="0"/>
        <pt x="126" y="370" on="0"/>
        <pt x="130" y="350" on="1"/>
        <pt x="192" y="345" on="0"/>
        <pt x="266" y="240" on="0"/>
        <pt x="255" y="175" on="1"/>
        <pt x="303" y="167" on="0"/>
        <pt x="368" y="135" on="0"/>
        <pt x="380" y="115" on="1"/>
      </contour>
      <contour>
        <pt x="380" y="335" on="1"/>
        <pt x="380" y="465" on="1"/>
        <pt x="245" y="465" on="1"/>
        <pt x="245" y="411" on="0"/>
        <pt x="324" y="335" on="0"/>
        <pt x="380" y="335" on="1"/>
      </contour>
    </TTGlyph>
    <TTGlyph name="u0995_u09CD.half_u09B7_u09B0_u09CD.blwf.vatu.pres" xMin="20" yMin="0" xMax="651" yMax="500">
      <contour>
        <pt x="402" y="0" on="1"/>
        <pt x="402" y="12" on="0"/>
        <pt x="353" y="30" on="0"/>
        <pt x="318" y="30" on="1"/>
        <pt x="287" y="30" on="0"/>
        <pt x="169" y="0" on="0"/>
        <pt x="138" y="0" on="1"/>
        <pt x="99" y="0" on="0"/>
        <pt x="43" y="67" on="0"/>
        <pt x="43" y="115" on="1"/>
        <pt x="83" y="115" on="1"/>
        <pt x="83" y="84" on="0"/>
        <pt x="115" y="40" on="0"/>
        <pt x="138" y="40" on="1"/>
        <pt x="169" y="40" on="0"/>
        <pt x="287" y="70" on="0"/>
        <pt x="318" y="70" on="1"/>
        <pt x="335" y="70" on="0"/>
        <pt x="365" y="65" on="0"/>
        <pt x="377" y="61" on="1"/>
        <pt x="359" y="87" on="0"/>
        <pt x="305" y="128" on="0"/>
        <pt x="272" y="140" on="1"/>
        <pt x="270" y="119" on="0"/>
        <pt x="238" y="90" on="0"/>
        <pt x="217" y="90" on="1"/>
        <pt x="194" y="90" on="0"/>
        <pt x="162" y="116" on="0"/>
        <pt x="162" y="135" on="1"/>
        <pt x="162" y="156" on="0"/>
        <pt x="194" y="186" on="0"/>
        <pt x="217" y="186" on="1"/>
        <pt x="237" y="184" on="1"/>
        <pt x="245" y="231" on="0"/>
        <pt x="195" y="307" on="0"/>
        <pt x="152" y="315" on="1"/>
        <pt x="152" y="288" on="0"/>
        <pt x="120" y="250" on="0"/>
        <pt x="97" y="250" on="1"/>
        <pt x="74" y="250" on="0"/>
        <pt x="42" y="279" on="0"/>
        <pt x="42" y="300" on="1"/>
        <pt x="42" y="321" on="0"/>
        <pt x="76" y="351" on="0"/>
        <pt x="100" y="351" on="1"/>
        <pt x="112" y="350" on="1"/>
        <pt x="112" y="386" on="0"/>
        <pt x="77" y="448" on="0"/>
        <pt x="47" y="465" on="1"/>
        <pt x="20" y="465" on="1"/>
        <pt x="20" y="500" on="1"/>
        <pt x="651" y="500" on="1"/>
        <pt x="651" y="465" on="1"/>
        <pt x="442" y="465" on="1"/>
        <pt x="442" y="335" on="1"/>
        <pt x="512" y="335" on="0"/>
        <pt x="612" y="268" on="0"/>
        <pt x="612" y="220" on="1"/>
        <pt x="612" y="185" on="0"/>
        <pt x="571" y="135" on="0"/>
        <pt x="542" y="135" on="1"/>
        <pt x="519" y="135" on="0"/>
        <pt x="487" y="161" on="0"/>
        <pt x="487" y="180" on="1"/>
        <pt x="487" y="199" on="0"/>
        <pt x="516" y="225" on="0"/>
        <pt x="537" y="225" on="1"/>
        <pt x="545" y="225" on="0"/>
        <pt x="561" y="217" on="0"/>
        <pt x="567" y="210" on="1"/>
        <pt x="583" y="238" on="0"/>
        <pt x="500" y="295" on="0"/>
        <pt x="442" y="295" on="1"/>
        <pt x="442" y="0" on="1"/>
        <pt x="402" y="0" on="1"/>
      </contour>
      <contour>
        <pt x="402" y="90" on="1"/>
        <pt x="402" y="295" on="1"/>
        <pt x="330" y="295" on="0"/>
        <pt x="227" y="395" on="0"/>
        <pt x="227" y="465" on="1"/>
        <pt x="102" y="465" on="1"/>
        <pt x="126" y="449" on="0"/>
        <pt x="152" y="388" on="0"/>
        <pt x="152" y="350" on="1"/>
        <pt x="214" y="345" on="0"/>
        <pt x="288" y="240" on="0"/>
        <pt x="277" y="175" on="1"/>
        <pt x="316" y="167" on="0"/>
        <pt x="381" y="123" on="0"/>
        <pt x="402" y="90" on="1"/>
      </contour>
      <contour>
        <pt x="402" y="335" on="1"/>
        <pt x="402" y="465" on="1"/>
        <pt x="267" y="465" on="1"/>
        <pt x="267" y="411" on="0"/>
        <pt x="346" y="335" on="0"/>
        <pt x="402" y="335" on="1"/>
      </contour>
    </TTGlyph>
    <TTGlyph name="u0995_u09CD.half_u09B7_u09CD.half_u09A3.pres" xMin="-10" yMin="-50" xMax="650" yMax="500">
      <contour>
        <pt x="384" y="-50" on="1"/>
        <pt x="352" y="-12" on="0"/>
        <pt x="268" y="30" on="0"/>
        <pt x="224" y="30" on="1"/>
        <pt x="229" y="26" on="0"/>
        <pt x="234" y="12" on="0"/>
        <pt x="234" y="4" on="1"/>
        <pt x="234" y="-18" on="0"/>
        <pt x="202" y="-50" on="0"/>
        <pt x="179" y="-50" on="1"/>
        <pt x="154" y="-50" on="0"/>
        <pt x="119" y="-18" on="0"/>
        <pt x="119" y="5" on="1"/>
        <pt x="119" y="32" on="0"/>
        <pt x="172" y="70" on="0"/>
        <pt x="209" y="70" on="1"/>
        <pt x="264" y="70" on="0"/>
        <pt x="356" y="33" on="0"/>
        <pt x="384" y="0" on="1"/>
        <pt x="373" y="60" on="0"/>
        <pt x="303" y="147" on="0"/>
        <pt x="254" y="160" on="1"/>
        <pt x="249" y="140" on="0"/>
        <pt x="215" y="115" on="0"/>
        <pt x="194" y="115" on="1"/>
        <pt x="169" y="115" on="0"/>
        <pt x="134" y="144" on="0"/>
        <pt x="134" y="165" on="1"/>
        <pt x="134" y="189" on="0"/>
        <pt x="169" y="222" on="0"/>
        <pt x="194" y="222" on="1"/>
        <pt x="201" y="222" on="0"/>
        <pt x="217" y="218" on="0"/>
        <pt x="224" y="215" on="1"/>
        <pt x="231" y="252" on="0"/>
        <pt x="182" y="319" on="0"/>
        <pt x="139" y="330" on="1"/>
        <pt x="139" y="303" on="0"/>
        <pt x="107" y="265" on="0"/>
        <pt x="84" y="265" on="1"/>
        <pt x="59" y="265" on="0"/>
        <pt x="24" y="294" on="0"/>
        <pt x="24" y="315" on="1"/>
        <pt x="24" y="342" on="0"/>
        <pt x="66" y="377" on="0"/>
        <pt x="94" y="375" on="1"/>
        <pt x="88" y="408" on="0"/>
        <pt x="59" y="456" on="0"/>
        <pt x="39" y="465" on="1"/>
        <pt x="-10" y="465" on="1"/>
        <pt x="-10" y="500" on="1"/>
        <pt x="650" y="500" on="1"/>
        <pt x="650" y="465" on="1"/>
        <pt x="424" y="465" on="1"/>
        <pt x="424" y="340" on="1"/>
        <pt x="501" y="340" on="0"/>
        <pt x="609" y="258" on="0"/>
        <pt x="609" y="200" on="1"/>
        <pt x="609" y="167" on="0"/>
        <pt x="571" y="120" on="0"/>
        <pt x="544" y="120" on="1"/>
        <pt x="521" y="120" on="0"/>
        <pt x="489" y="149" on="0"/>
        <pt x="489" y="170" on="1"/>
        <pt x="489" y="189" on="0"/>
        <pt x="520" y="217" on="0"/>
        <pt x="542" y="217" on="1"/>
        <pt x="549" y="217" on="0"/>
        <pt x="563" y="213" on="0"/>
        <pt x="569" y="210" on="1"/>
        <pt x="569" y="247" on="0"/>
        <pt x="484" y="300" on="0"/>
        <pt x="424" y="300" on="1"/>
        <pt x="424" y="-50" on="1"/>
        <pt x="384" y="-50" on="1"/>
      </contour>
      <contour>
        <pt x="384" y="95" on="1"/>
        <pt x="384" y="305" on="1"/>
        <pt x="318" y="317" on="0"/>
        <pt x="225" y="405" on="0"/>
        <pt x="214" y="465" on="1"/>
        <pt x="94" y="465" on="1"/>
        <pt x="108" y="451" on="0"/>
        <pt x="129" y="405" on="0"/>
        <pt x="134" y="375" on="1"/>
        <pt x="199" y="364" on="0"/>
        <pt x="275" y="261" on="0"/>
        <pt x="264" y="200" on="1"/>
        <pt x="303" y="190" on="0"/>
        <pt x="366" y="135" on="0"/>
        <pt x="384" y="95" on="1"/>
      </contour>
      <contour>
        <pt x="384" y="345" on="1"/>
        <pt x="384" y="465" on="1"/>
        <pt x="254" y="465" on="1"/>
        <pt x="262" y="420" on="0"/>
        <pt x="333" y="354" on="0"/>
        <pt x="384" y="345" on="1"/>
      </contour>
    </TTGlyph>
    <TTGlyph name="u0995_u09CD.half_u09B7_u09CD.half_u09AE.pres" xMin="-10" yMin="0" xMax="678" yMax="500">
      <contour>
        <pt x="538" y="0" on="1"/>
        <pt x="520" y="50" on="0"/>
        <pt x="424" y="110" on="0"/>
        <pt x="363" y="110" on="1"/>
        <pt x="363" y="89" on="0"/>
        <pt x="334" y="60" on="0"/>
        <pt x="313" y="60" on="1"/>
        <pt x="290" y="60" on="0"/>
        <pt x="258" y="89" on="0"/>
        <pt x="258" y="110" on="1"/>
        <pt x="258" y="133" on="0"/>
        <pt x="300" y="162" on="0"/>
        <pt x="328" y="160" on="1"/>
        <pt x="323" y="190" on="0"/>
        <pt x="276" y="234" on="0"/>
        <pt x="243" y="240" on="1"/>
        <pt x="243" y="215" on="0"/>
        <pt x="211" y="180" on="0"/>
        <pt x="188" y="180" on="1"/>
        <pt x="165" y="180" on="0"/>
        <pt x="133" y="206" on="0"/>
        <pt x="133" y="225" on="1"/>
        <pt x="133" y="250" on="0"/>
        <pt x="179" y="280" on="0"/>
        <pt x="208" y="275" on="1"/>
        <pt x="211" y="305" on="0"/>
        <pt x="160" y="350" on="0"/>
        <pt x="123" y="350" on="1"/>
        <pt x="119" y="326" on="0"/>
        <pt x="88" y="295" on="0"/>
        <pt x="68" y="295" on="1"/>
        <pt x="45" y="295" on="0"/>
        <pt x="13" y="324" on="0"/>
        <pt x="13" y="345" on="1"/>
        <pt x="13" y="368" on="0"/>
        <pt x="58" y="398" on="0"/>
        <pt x="88" y="395" on="1"/>
        <pt x="88" y="414" on="0"/>
        <pt x="80" y="449" on="0"/>
        <pt x="73" y="465" on="1"/>
        <pt x="-10" y="465" on="1"/>
        <pt x="-10" y="500" on="1"/>
        <pt x="678" y="500" on="1"/>
        <pt x="678" y="465" on="1"/>
        <pt x="578" y="465" on="1"/>
        <pt x="578" y="0" on="1"/>
        <pt x="538" y="0" on="1"/>
      </contour>
      <contour>
        <pt x="538" y="65" on="1"/>
        <pt x="538" y="465" on="1"/>
        <pt x="368" y="465" on="1"/>
        <pt x="368" y="390" on="1"/>
        <pt x="413" y="390" on="1"/>
        <pt x="450" y="390" on="0"/>
        <pt x="503" y="337" on="0"/>
        <pt x="503" y="300" on="1"/>
        <pt x="503" y="267" on="0"/>
        <pt x="462" y="220" on="0"/>
        <pt x="433" y="220" on="1"/>
        <pt x="414" y="220" on="0"/>
        <pt x="388" y="241" on="0"/>
        <pt x="388" y="255" on="1"/>
        <pt x="388" y="269" on="0"/>
        <pt x="408" y="290" on="0"/>
        <pt x="422" y="290" on="1"/>
        <pt x="432" y="290" on="0"/>
        <pt x="449" y="279" on="0"/>
        <pt x="453" y="270" on="1"/>
        <pt x="458" y="275" on="0"/>
        <pt x="463" y="290" on="0"/>
        <pt x="463" y="300" on="1"/>
        <pt x="463" y="321" on="0"/>
        <pt x="437" y="350" on="0"/>
        <pt x="418" y="350" on="1"/>
        <pt x="368" y="350" on="1"/>
        <pt x="368" y="155" on="1"/>
        <pt x="422" y="150" on="0"/>
        <pt x="511" y="103" on="0"/>
        <pt x="538" y="65" on="1"/>
      </contour>
      <contour>
        <pt x="328" y="225" on="1"/>
        <pt x="328" y="350" on="1"/>
        <pt x="293" y="350" on="1"/>
        <pt x="260" y="350" on="0"/>
        <pt x="213" y="397" on="0"/>
        <pt x="213" y="430" on="1"/>
        <pt x="213" y="465" on="1"/>
        <pt x="118" y="465" on="1"/>
        <pt x="123" y="451" on="0"/>
        <pt x="128" y="414" on="0"/>
        <pt x="128" y="390" on="1"/>
        <pt x="184" y="385" on="0"/>
        <pt x="255" y="315" on="0"/>
        <pt x="248" y="273" on="1"/>
        <pt x="273" y="269" on="0"/>
        <pt x="315" y="244" on="0"/>
        <pt x="328" y="225" on="1"/>
      </contour>
      <contour>
        <pt x="293" y="390" on="1"/>
        <pt x="328" y="390" on="1"/>
        <pt x="328" y="465" on="1"/>
        <pt x="258" y="465" on="1"/>
        <pt x="258" y="430" on="1"/>
        <pt x="258" y="413" on="0"/>
        <pt x="279" y="390" on="0"/>
        <pt x="293" y="390" on="1"/>
      </contour>
    </TTGlyph>
    <TTGlyph name="u0995_u09CD.half_u09B8.pres" xMin="-10" yMin="0" xMax="575" yMax="500">
      <contour>
        <pt x="440" y="0" on="1"/>
        <pt x="430" y="56" on="0"/>
        <pt x="371" y="130" on="0"/>
        <pt x="335" y="130" on="1"/>
        <pt x="318" y="130" on="0"/>
        <pt x="278" y="101" on="0"/>
        <pt x="260" y="75" on="1"/>
        <pt x="242" y="49" on="0"/>
        <pt x="194" y="20" on="0"/>
        <pt x="170" y="20" on="1"/>
        <pt x="131" y="20" on="0"/>
        <pt x="75" y="82" on="0"/>
        <pt x="75" y="125" on="1"/>
        <pt x="80" y="150" on="1"/>
        <pt x="125" y="140" on="1"/>
        <pt x="123" y="133" on="0"/>
        <pt x="120" y="118" on="0"/>
        <pt x="120" y="110" on="1"/>
        <pt x="120" y="89" on="0"/>
        <pt x="149" y="60" on="0"/>
        <pt x="170" y="60" on="1"/>
        <pt x="184" y="60" on="0"/>
        <pt x="211" y="82" on="0"/>
        <pt x="220" y="100" on="1"/>
        <pt x="202" y="169" on="0"/>
        <pt x="103" y="260" on="0"/>
        <pt x="40" y="265" on="1"/>
        <pt x="25" y="310" on="1"/>
        <pt x="67" y="352" on="0"/>
        <pt x="165" y="401" on="0"/>
        <pt x="215" y="405" on="1"/>
        <pt x="215" y="465" on="1"/>
        <pt x="-10" y="465" on="1"/>
        <pt x="-10" y="500" on="1"/>
        <pt x="575" y="500" on="1"/>
        <pt x="575" y="465" on="1"/>
        <pt x="475" y="465" on="1"/>
        <pt x="475" y="0" on="1"/>
        <pt x="440" y="0" on="1"/>
      </contour>
      <contour>
        <pt x="435" y="95" on="1"/>
        <pt x="435" y="465" on="1"/>
        <pt x="255" y="465" on="1"/>
        <pt x="255" y="405" on="1"/>
        <pt x="314" y="400" on="0"/>
        <pt x="395" y="331" on="0"/>
        <pt x="395" y="285" on="1"/>
        <pt x="395" y="258" on="0"/>
        <pt x="363" y="220" on="0"/>
        <pt x="340" y="220" on="1"/>
        <pt x="321" y="220" on="0"/>
        <pt x="295" y="241" on="0"/>
        <pt x="295" y="255" on="1"/>
        <pt x="295" y="278" on="0"/>
        <pt x="333" y="303" on="0"/>
        <pt x="355" y="295" on="1"/>
        <pt x="355" y="321" on="0"/>
        <pt x="297" y="361" on="0"/>
        <pt x="255" y="365" on="1"/>
        <pt x="255" y="130" on="1"/>
        <pt x="271" y="149" on="0"/>
        <pt x="313" y="170" on="0"/>
        <pt x="335" y="170" on="1"/>
        <pt x="365" y="170" on="0"/>
        <pt x="419" y="129" on="0"/>
        <pt x="435" y="95" on="1"/>
      </contour>
      <contour>
        <pt x="215" y="190" on="1"/>
        <pt x="215" y="365" on="1"/>
        <pt x="175" y="362" on="0"/>
        <pt x="103" y="328" on="0"/>
        <pt x="75" y="300" on="1"/>
        <pt x="118" y="288" on="0"/>
        <pt x="191" y="231" on="0"/>
        <pt x="215" y="190" on="1"/>
      </contour>
    </TTGlyph>
    <TTGlyph name="u0996" xMin="5" yMin="0" xMax="515" yMax="560">
      <contour>
        <pt x="375" y="0" on="1"/>
        <pt x="348" y="100" on="0"/>
        <pt x="192" y="225" on="0"/>
        <pt x="95" y="225" on="1"/>
        <pt x="95" y="260" on="1"/>
        <pt x="162" y="272" on="0"/>
        <pt x="250" y="360" on="0"/>
        <pt x="250" y="415" on="1"/>
        <pt x="250" y="433" on="0"/>
        <pt x="237" y="462" on="0"/>
        <pt x="225" y="470" on="1"/>
        <pt x="197" y="430" on="0"/>
        <pt x="128" y="385" on="0"/>
        <pt x="95" y="385" on="1"/>
        <pt x="58" y="385" on="0"/>
        <pt x="5" y="429" on="0"/>
        <pt x="5" y="460" on="1"/>
        <pt x="5" y="483" on="0"/>
        <pt x="34" y="515" on="0"/>
        <pt x="55" y="515" on="1"/>
        <pt x="74" y="515" on="0"/>
        <pt x="100" y="492" on="0"/>
        <pt x="100" y="475" on="1"/>
        <pt x="100" y="463" on="0"/>
        <pt x="81" y="441" on="0"/>
        <pt x="65" y="435" on="1"/>
        <pt x="71" y="430" on="0"/>
        <pt x="86" y="425" on="0"/>
        <pt x="94" y="425" on="1"/>
        <pt x="115" y="425" on="0"/>
        <pt x="155" y="449" on="0"/>
        <pt x="170" y="470" on="1"/>
        <pt x="183" y="489" on="0"/>
        <pt x="212" y="510" on="0"/>
        <pt x="225" y="510" on="1"/>
        <pt x="252" y="510" on="0"/>
        <pt x="290" y="451" on="0"/>
        <pt x="290" y="410" on="1"/>
        <pt x="290" y="356" on="0"/>
        <pt x="230" y="268" on="0"/>
        <pt x="180" y="250" on="1"/>
        <pt x="240" y="239" on="0"/>
        <pt x="344" y="152" on="0"/>
        <pt x="375" y="85" on="1"/>
        <pt x="375" y="560" on="1"/>
        <pt x="415" y="560" on="1"/>
        <pt x="415" y="500" on="1"/>
        <pt x="515" y="500" on="1"/>
        <pt x="515" y="465" on="1"/>
        <pt x="415" y="465" on="1"/>
        <pt x="415" y="0" on="1"/>
        <pt x="375" y="0" on="1"/>
      </contour>
    </TTGlyph>
</ttFont>
